<svg xmlns="http://www.w3.org/2000/svg" viewBox="0 0 500 500"><g id="freepik--Floor--inject-6"><ellipse id="freepik--floor--inject-6" cx="250" cy="334.28" rx="227.08" ry="131.1" style="fill:#f5f5f5"></ellipse></g><g id="freepik--Shadows--inject-6"><ellipse id="freepik--Shadow--inject-6" cx="208.49" cy="382.71" rx="73.47" ry="42.42" style="fill:#e0e0e0"></ellipse><ellipse id="freepik--shadow--inject-6" cx="316.6" cy="382.71" rx="55.93" ry="32.29" style="fill:#e0e0e0"></ellipse></g><g id="freepik--Plant--inject-6"><g id="freepik--Plants--inject-6"><path d="M424.65,311.13l-8.83-5.1s-5.25-21.82-3.16-41.45c2.94-27.61,21.12-38,28-35.62s8.91,10.42-2.53,26.86C431.42,265.52,423.13,285.73,424.65,311.13Z" style="fill:#582F71"></path><g style="opacity:0.15"><path d="M424.65,311.13l-8.83-5.1s-5.25-21.82-3.16-41.45c2.94-27.61,21.12-38,28-35.62s8.91,10.42-2.53,26.86C431.42,265.52,423.13,285.73,424.65,311.13Z"></path></g><path d="M421,300.41h.08a.6.6,0,0,0,.49-.71c-4.84-25.47,4.06-54.08,15.07-66a.6.6,0,0,0,0-.86.63.63,0,0,0-.87,0c-11.21,12.13-20.28,41.21-15.37,67.05A.61.61,0,0,0,421,300.41Z" style="fill:#fff"></path><path d="M447.76,324.48c1.39.71,5.1-2.46,6.14-3.23A13.09,13.09,0,0,0,458,316.1a12.22,12.22,0,0,0,.71-7.34,30.32,30.32,0,0,0-1.12-3.82l-1.27-3.7a9.48,9.48,0,0,1-.74-3.76c.2-2.59,2.39-4.5,4.38-6.16,2.21-1.83,4.48-4.22,4.31-7.31a10.88,10.88,0,0,0-3.05-6.33c-1.57-1.8-3.41-3.37-4.85-5.28a7.62,7.62,0,0,1-1.8-4.72,8.07,8.07,0,0,1,.9-3.06c1-2.07,2.34-4,3-6.19s.4-4.88-1.36-6.34c-1.45-1.21-3.52-1.28-5.39-1.06a12.16,12.16,0,0,0-4.86,2c-4.77,3-7.28,8.93-12.39,11.3-2,.91-4.16,1.2-6.22,1.86s-4.15,1.83-5,3.82c-1.71,3.92,2.07,8.45.93,12.57-1,3.65-4.42,5.19-6.22,8.53a7.71,7.71,0,0,0-.68,4.74,22.8,22.8,0,0,0,2.38,7.84,71.9,71.9,0,0,0,4.72,7.24S447.55,324.37,447.76,324.48Z" style="fill:#582F71"></path><path d="M434.25,317.44h0a.61.61,0,0,0,.56-.66c-2.23-24.22,7.85-51.59,15.78-59.8a.61.61,0,0,0,0-.86.6.6,0,0,0-.86,0c-8.09,8.37-18.38,36.2-16.12,60.76A.61.61,0,0,0,434.25,317.44Z" style="fill:#fff"></path><path d="M436.66,287.58a.39.39,0,0,0,.18,0,82.19,82.19,0,0,1,17.47-3.72.61.61,0,0,0,.55-.67.58.58,0,0,0-.66-.55,84.06,84.06,0,0,0-17.78,3.79.61.61,0,0,0,.24,1.19Z" style="fill:#fff"></path></g></g><g id="freepik--Clouds--inject-6"><g id="freepik--clouds--inject-6"><path d="M97.29,73.66l-8.07,4.65a9.77,9.77,0,0,0,.07-1.07V74.91c0-4.16-2.92-5.85-6.53-3.77a12.62,12.62,0,0,0-3.88,3.74c-.59-5.23-4.7-7.18-9.68-4.3-5.39,3.11-9.76,10.68-9.76,16.9V91a9.21,9.21,0,0,0,.83,4l-6.7,3.86A8,8,0,0,0,50,105.16c0,2.31,1.62,3.24,3.62,2.09L97.29,82a8,8,0,0,0,3.61-6.27C100.9,73.44,99.28,72.5,97.29,73.66Z" style="fill:#ebebeb"></path><path d="M151.77,84.13l-4.45,1.71V76c0-7.77-6.2-9.63-12.93-5.74h0c-6.73,3.88-12.18,13.33-12.18,21.1v1.43c-1.53-.61-3.5-.38-5.66.87h0c-4.84,2.79-8.77,9.59-8.77,15.19v.64l-6.2,3.59a12.77,12.77,0,0,0-5.78,10c0,3.68,2.59,5.17,5.78,3.33l50.19-29a12.77,12.77,0,0,0,5.78-10C157.55,83.78,155,82.29,151.77,84.13Z" style="fill:#ebebeb"></path></g></g><g id="freepik--Characters--inject-6"><g id="freepik--stork-and-baby--inject-6"><path d="M345.57,250.72c7.44-13.39-17.15-138-17.15-138L322,110.53S292.21,228.75,295.1,239.67,325.05,262.42,345.57,250.72Z" style="fill:#582F71"></path><path d="M345.57,250.72c7.44-13.39-17.15-138-17.15-138L322,110.53S292.21,228.75,295.1,239.67,325.05,262.42,345.57,250.72Z" style="opacity:0.1"></path><path d="M312.75,222.11l32.44-6.69c-1.07-9.52-2.54-20.11-4.17-30.77-3.62-.57-10.59-6-12.45-8.92-6.54-10.25-6.36-31-5.73-40.31.92-13.35,2.13-20.14,2.13-20.14l4.13,1c-.43-2.23-.68-3.47-.68-3.47L322,110.53s-13.6,53.92-21.54,92.3Z" style="opacity:0.1"></path><path d="M329.47,141.27s-1.36-19.77-2.76-29.11l-3-1s-4.65,17.71-4.91,22.08l6.12-20S328.73,135.88,329.47,141.27Z" style="opacity:0.1"></path><path d="M326.77,97.54c2,1.49,4,2.51,6.4,2s7.06-6.58,8.46-7.3-.26-2.26-2.42-3.13-10.75-1.7-13.17,5.83A2.86,2.86,0,0,0,326.77,97.54Z" style="fill:#582F71"></path><path d="M333.13,96c.15-.09.33-.23.28-.41s-.26-.2-.44-.21l-3.48-.17,4.23-3.45c.18-.15.37-.33.35-.56a.47.47,0,0,0-.41-.37,1.1,1.1,0,0,0-.59.09,19.87,19.87,0,0,0-5.21,3c-.52.37-1.36,1-1.1,1.76s1.23.83,1.78.95A6.48,6.48,0,0,0,333.13,96Z" style="opacity:0.15"></path><path d="M319.52,94.11c-2.4-.66-4.46-1.67-5.51-3.84s.88-9.61.58-11.16,2-1.18,4,0,7.93,7.45,3.47,14A2.89,2.89,0,0,1,319.52,94.11Z" style="fill:#582F71"></path><path d="M316.82,88.15c0-.18,0-.41.15-.47s.32.07.44.21l2.27,2.64.13-5.45c0-.23,0-.49.23-.61a.46.46,0,0,1,.55.09,1.4,1.4,0,0,1,.29.52,20.4,20.4,0,0,1,.83,5.94c0,.64,0,1.69-.72,2s-1.4-.47-1.84-.82A6.47,6.47,0,0,1,316.82,88.15Z" style="opacity:0.15"></path><path d="M328.24,97.18a5.4,5.4,0,1,1-5.4-5.4A5.39,5.39,0,0,1,328.24,97.18Z" style="fill:#582F71"></path><path d="M319.55,97.18c-1-2.56,1.14-4.71,3.55-5.39h-.26a5.4,5.4,0,1,0,5.32,6.27C326.39,100.75,320.53,99.7,319.55,97.18Z" style="opacity:0.1"></path><g id="freepik--Stork--inject-6"><path d="M238.71,212.8c-1.3,2.56-2.67,5.1-4.12,7.58-5.89,10.05-13.48,18.09-21.79,26.13-8,7.71-16.89,15-27.64,18.36-2.79.88-6.18,1.35-8.34-.61s-2-5.43-1.66-8.37a35.72,35.72,0,0,1-9.35,12.46,11.31,11.31,0,0,1-3.88,2.38,4.9,4.9,0,0,1-4.38-.56c-1.91-1.46-2-4.26-1.71-6.64-1.74,2.32-2.79,5.07-4.06,7.68s-2.86,5.19-5.29,6.77-5.9,1.87-8.12,0c-3.56-3-1.4-7.68-.79-11.43a104.55,104.55,0,0,1,3.26-13.84,119.26,119.26,0,0,1,11.47-25.63,146.78,146.78,0,0,1,18.39-24.42c3.4-3.68,6.94-7.29,10.68-10.62a108.43,108.43,0,0,1,12.83-9.56c29.29-16.45,41.5-15.07,48.17-11.16C246.54,173.77,249.52,191.55,238.71,212.8Z" style="fill:#582F71"></path><path d="M238.71,212.8c-1.3,2.56-2.67,5.1-4.12,7.58-5.89,10.05-13.48,18.09-21.79,26.13-8,7.71-16.89,15-27.64,18.36-2.79.88-6.18,1.35-8.34-.61s-2-5.43-1.66-8.37a35.72,35.72,0,0,1-9.35,12.46,11.31,11.31,0,0,1-3.88,2.38,4.9,4.9,0,0,1-4.38-.56c-1.91-1.46-2-4.26-1.71-6.64-1.74,2.32-2.79,5.07-4.06,7.68s-2.86,5.19-5.29,6.77-5.9,1.87-8.12,0c-3.56-3-1.4-7.68-.79-11.43a104.55,104.55,0,0,1,3.26-13.84,119.26,119.26,0,0,1,11.47-25.63,146.78,146.78,0,0,1,18.39-24.42c3.4-3.68,6.94-7.29,10.68-10.62a108.43,108.43,0,0,1,12.83-9.56c29.29-16.45,41.5-15.07,48.17-11.16C246.54,173.77,249.52,191.55,238.71,212.8Z" style="fill:#fafafa;opacity:0.7000000000000001"></path><path d="M223.85,361.77c-5.24-.83-5.95-.85-8-.5s-2.52,1.41-1.05,1.94,6,1,7.69,2.88,6.45,8.14,7.88,9.58,4.3,7.91,5.1,9.59,2.94.8,2.63-1.87c-.46-4-3.42-9.81-3.42-9.81a46.75,46.75,0,0,1,8.05,5.05c1.69,1.44,3.09,2.95,4.63,2.75s1-2.11-1-4.35a75,75,0,0,0-6.89-6.09,43.26,43.26,0,0,1,11.17,3.95c2.69,1.4,4.17.63,3.62-.73s-2.58-3.38-8.19-5.6C240.82,366.5,232.8,363.2,223.85,361.77Z" style="fill:#f0997a"></path><path d="M247.86,381.16c-1,.1-1.67-.17-3.52-2.29A22,22,0,0,0,237,373c-3.35-1.66-3.54-1-2.36.61a46.75,46.75,0,0,1,8,5.05c1.69,1.44,3.09,2.95,4.63,2.75A1.07,1.07,0,0,0,247.86,381.16Z" style="opacity:0.15"></path><path d="M254.26,374.88c-.2.42-.76.68-1.54.2s-2.06-1.14-4.5-2.35a37.1,37.1,0,0,0-7.31-2.82c-2-.46-2.53.43-1.51,1a43.85,43.85,0,0,1,11.17,3.95C252.73,376,254.09,375.73,254.26,374.88Z" style="opacity:0.15"></path><path d="M235.41,385.27a1.21,1.21,0,0,0,2.2.23c-.83.62-1.18,0-1.54-1a42.65,42.65,0,0,0-2-5.22,29.18,29.18,0,0,0-3.81-6.28c-1.33-1.48-4.66-5.75-6.43-7.64s-3.94-2.19-6.6-2.41-3.21-.89-3-1.15c-.62.46-.49,1,.48,1.39,1.47.53,6,1,7.69,2.87s6.45,8.15,7.88,9.59S234.61,383.59,235.41,385.27Z" style="opacity:0.15"></path><polygon points="230.89 365.51 225.76 365.86 220.51 281.55 225.64 281.19 230.89 365.51" style="fill:#f0997a"></polygon><path d="M225.64,281.19l-5.13.36.37,5.94a4.61,4.61,0,0,0,5.13-.39Z" style="opacity:0.15"></path><polygon points="225.63 281.41 220.51 280.96 226.82 214.12 231.94 214.57 225.63 281.41" style="fill:#f0997a"></polygon><path d="M227.26,264.19l4.68-49.62-4-.35-1.14-.1-5,53.59A51.92,51.92,0,0,0,227.26,264.19Z" style="opacity:0.15"></path><circle cx="222.92" cy="281.38" r="4.75" style="fill:#f0997a"></circle><path d="M287.21,75a21.41,21.41,0,0,0-42.56-3.31c-2.67,7.62-4.51,18.71-2.59,34.11,3.31,26.48,17.72,51.58,2.31,66.41-3.38,3.26-10.4.56-14.32.29-6.24-.43-12.52-.91-18.8-.38a89.68,89.68,0,0,0-37.77,12.27c-16.77,9.88-30.39,24.55-40.73,41-6.31,10.05-12,22-23.62,26.52-1.16.45-2.6,1.23-2.37,2.45a2.32,2.32,0,0,0,1.18,1.4,9.78,9.78,0,0,0,6.2,1.43,3.18,3.18,0,0,1-1.81,2.43,18.56,18.56,0,0,0-2.75,1.56,2.4,2.4,0,0,0-.81,2.81,3.06,3.06,0,0,0,1.7,1.18c7.1,2.71,15.44,2.23,22.66.33,8.67-2.27,16.89-6.14,25.68-7.9,10.24-2.06,20.81-1.18,31.26-1.37a97.71,97.71,0,0,0,48.17-14.57,73.53,73.53,0,0,0,31.82-42.79c8.4-30.74-1.39-47-10.28-77.12-3.68-12.48-5.45-21.62-5.95-29A21.42,21.42,0,0,0,287.21,75Z" style="fill:#582F71"></path><path d="M287.21,75a21.41,21.41,0,0,0-42.56-3.31c-2.67,7.62-4.51,18.71-2.59,34.11,3.31,26.48,17.72,51.58,2.31,66.41-3.38,3.26-10.4.56-14.32.29-6.24-.43-12.52-.91-18.8-.38a89.68,89.68,0,0,0-37.77,12.27c-16.77,9.88-30.39,24.55-40.73,41-6.31,10.05-12,22-23.62,26.52-1.16.45-2.6,1.23-2.37,2.45a2.32,2.32,0,0,0,1.18,1.4,9.78,9.78,0,0,0,6.2,1.43,3.18,3.18,0,0,1-1.81,2.43,18.56,18.56,0,0,0-2.75,1.56,2.4,2.4,0,0,0-.81,2.81,3.06,3.06,0,0,0,1.7,1.18c7.1,2.71,15.44,2.23,22.66.33,8.67-2.27,16.89-6.14,25.68-7.9,10.24-2.06,20.81-1.18,31.26-1.37a97.71,97.71,0,0,0,48.17-14.57,73.53,73.53,0,0,0,31.82-42.79c8.4-30.74-1.39-47-10.28-77.12-3.68-12.48-5.45-21.62-5.95-29A21.42,21.42,0,0,0,287.21,75Z" style="fill:#fafafa;opacity:0.9"></path><path d="M273.07,181.71c-1.4,14.84-10.45,33.52-21.94,42-12.76,9.37-31.34,12.37-29.7,4.86a72.56,72.56,0,0,0,.34-31.44s-7.34,24.31-32.66,42.58-72.19,27.09-72.19,27.09h0a43,43,0,0,0,16.16-1.27c8.67-2.27,16.89-6.14,25.68-7.9,10.24-2.06,20.81-1.18,31.26-1.37a97.71,97.71,0,0,0,48.17-14.57,73.53,73.53,0,0,0,31.82-42.79A87.54,87.54,0,0,0,273.07,181.71Z" style="fill:#582F71;opacity:0.03"></path><path d="M273.07,181.71c-1.4,14.84-10.45,33.52-21.94,42-12.76,9.37-31.34,12.37-29.7,4.86a72.56,72.56,0,0,0,.34-31.44s-7.34,24.31-32.66,42.58-72.19,27.09-72.19,27.09h0a43,43,0,0,0,16.16-1.27c8.67-2.27,16.89-6.14,25.68-7.9,10.24-2.06,20.81-1.18,31.26-1.37a97.71,97.71,0,0,0,48.17-14.57,73.53,73.53,0,0,0,31.82-42.79A87.54,87.54,0,0,0,273.07,181.71Z" style="opacity:0.03"></path><path d="M121.08,260.44c-1.79-3,9.38-13.38,9.38-13.38s-10.72,5.79-12.35,4.6.89-4.91,3.45-9.2h0a30.86,30.86,0,0,1-12.43,9.45c-1.16.45-2.6,1.23-2.37,2.45a2.32,2.32,0,0,0,1.18,1.4,9.78,9.78,0,0,0,6.2,1.43,3.18,3.18,0,0,1-1.81,2.43,18.56,18.56,0,0,0-2.75,1.56,2.4,2.4,0,0,0-.81,2.81,3.06,3.06,0,0,0,1.7,1.18c7.1,2.71,15.44,2.23,22.66.33,3.29-.86,6.51-1.95,9.73-3.07C134.65,262.56,122.27,262.42,121.08,260.44Z" style="fill:#37474f"></path><path d="M185,385.26c-5.25-.84-6-.86-8-.51s-2.53,1.41-1.06,1.94,6,1,7.69,2.88,6.45,8.15,7.88,9.58,4.3,7.91,5.1,9.59,3,.8,2.64-1.87c-.47-4-3.43-9.81-3.43-9.81a46.75,46.75,0,0,1,8.05,5.05c1.69,1.45,3.1,3,4.63,2.76s1-2.12-1-4.36a75,75,0,0,0-6.89-6.09,43.72,43.72,0,0,1,11.17,3.95c2.69,1.4,4.17.63,3.62-.73s-2.58-3.38-8.19-5.6C202,390,194,386.68,185,385.26Z" style="fill:#f0997a"></path><path d="M209,404.63c-1,.1-1.68-.17-3.53-2.29a22,22,0,0,0-7.36-5.89c-3.34-1.65-3.53-1-2.36.61a46.75,46.75,0,0,1,8.05,5.05c1.69,1.45,3.1,3,4.63,2.76A1.25,1.25,0,0,0,209,404.63Z" style="opacity:0.15"></path><path d="M215.42,398.35c-.19.42-.76.68-1.54.21s-2.06-1.14-4.49-2.36a36.7,36.7,0,0,0-7.32-2.81c-2-.46-2.53.42-1.51,1a43.72,43.72,0,0,1,11.17,3.95C213.89,399.5,215.25,399.21,215.42,398.35Z" style="opacity:0.15"></path><path d="M196.57,408.74a1.21,1.21,0,0,0,2.2.24c-.83.61-1.18,0-1.54-1a42,42,0,0,0-2-5.23,29.34,29.34,0,0,0-3.81-6.27c-1.32-1.49-4.66-5.75-6.43-7.64s-3.94-2.19-6.6-2.42-3.21-.89-3-1.14c-.61.45-.49,1,.48,1.38,1.47.54,6,1,7.69,2.88s6.45,8.15,7.88,9.58S195.77,407.06,196.57,408.74Z" style="opacity:0.15"></path><polygon points="192.04 388.99 186.92 389.35 181.67 305.03 186.79 304.67 192.04 388.99" style="fill:#f0997a"></polygon><path d="M186.79,304.67l-5.12.36L182,311a4.62,4.62,0,0,0,5.12-.38Z" style="opacity:0.15"></path><polygon points="186.45 306.24 181.43 305.13 196.31 239.67 201.33 240.78 186.45 306.24" style="fill:#f0997a"></polygon><path d="M201.33,240.78l-5-1.11-8.38,36.89c1.74,0,3.53-.13,5.33-.3Z" style="opacity:0.15"></path><circle cx="184.07" cy="304.86" r="4.75" style="fill:#f0997a"></circle><path d="M214.39,226c-7.67,15.65-17.49,29.66-33.09,37.8a9.21,9.21,0,0,1-7.55.38c-2.38-1-1.82-6.44-.54-8.67-3.55,6-9.85,13.54-17.06,17.22-1.81.93-5.48,1.2-6.71-.6s-.69-6.07-.09-8c-1.42,4.68-6.2,13.31-9.87,16.55-1.35,1.18-3,2.29-4.76,2.21-4-.17-3.62-6.06-3-7.74-3,4.92-7.3,12.78-11.31,16.9-1.4,1.43-3.37,2.92-5.21,2.12s-2.09-3.36-2-5.41c1.16-16.61,6.68-32.77,15-47.2a146.85,146.85,0,0,1,18-24.68c3.34-3.73,6.83-7.4,10.53-10.78,2.74-2.5,12.44-10,15.68-11.88,25.69-14.61,38.28-13.54,45-9.73C221.65,186.89,224.89,204.62,214.39,226Z" style="fill:#582F71"></path><path d="M214.39,226c-7.67,15.65-17.49,29.66-33.09,37.8a9.21,9.21,0,0,1-7.55.38c-2.38-1-1.82-6.44-.54-8.67-3.55,6-9.85,13.54-17.06,17.22-1.81.93-5.48,1.2-6.71-.6s-.69-6.07-.09-8c-1.42,4.68-6.2,13.31-9.87,16.55-1.35,1.18-3,2.29-4.76,2.21-4-.17-3.62-6.06-3-7.74-3,4.92-7.3,12.78-11.31,16.9-1.4,1.43-3.37,2.92-5.21,2.12s-2.09-3.36-2-5.41c1.16-16.61,6.68-32.77,15-47.2a146.85,146.85,0,0,1,18-24.68c3.34-3.73,6.83-7.4,10.53-10.78,2.74-2.5,12.44-10,15.68-11.88,25.69-14.61,38.28-13.54,45-9.73C221.65,186.89,224.89,204.62,214.39,226Z" style="fill:#fafafa;opacity:0.85"></path><path d="M214.39,226c.65-1.32,1.25-2.63,1.79-3.92a76.53,76.53,0,0,1-23,21.11c-2.72,1.6-6.22,3-8.88,1.33a6.19,6.19,0,0,1-2.51-5.09,14.27,14.27,0,0,1,1.83-6.74c-4,5-8.77,12.22-13.46,17.3-1.89,2-4.73,3.81-7.47,3.38s-3.25-2.72-3.21-5.52a22.39,22.39,0,0,1,2.73-9c-4.16,4.43-8.24,10.9-12.66,15.35-1.53,1.54-3.39,3.13-5.55,3-2.73-.21-3-2.86-2.82-5.59s2.11-6.25,3.26-8.79a74.1,74.1,0,0,0-6.32,7.81,48.38,48.38,0,0,1-5.91,6.4c-2.07,1.93-4.44,3.33-7.18,2.62a5.62,5.62,0,0,1-3.85-3.76,105.77,105.77,0,0,0-7.92,32.86c-.14,2.05.07,4.6,2,5.41s3.81-.69,5.21-2.12c4-4.12,8.35-12,11.31-16.9-.6,1.68-1,7.57,3,7.74,1.79.08,3.41-1,4.76-2.21,3.67-3.24,8.45-11.87,9.87-16.55-.6,1.94-1.06,6.33.09,8s4.9,1.53,6.71.6c7.21-3.68,13.51-11.21,17.06-17.22-1.28,2.23-1.84,7.71.54,8.67a9.21,9.21,0,0,0,7.55-.38C196.9,255.69,206.72,241.68,214.39,226Z" style="fill:#582F71;opacity:0.2"></path><path d="M207.55,238.38c-4.9,5.55-10.22,10.55-17.11,13.43-2.13.9-5.74,2.27-9,1.53a6,6,0,0,1-4.48-6c-3,5.19-8,10.81-12.93,12.53-2.06.72-5.56,1.24-7.57-.43-1.68-1.4-1.72-3.79-1.63-6.55a21,21,0,0,1-9.38,9.73c-5.1,2.55-9.21,1-8.17-3.71a24.89,24.89,0,0,1-7,7.41c-2.91,1.88-7.52,2.92-9.84.34-1.57-1.73-1.36-4.48-.71-7.11a104.2,104.2,0,0,0-6.49,29.19c-.14,2.05.07,4.6,2,5.41s3.81-.69,5.21-2.12c4-4.12,8.35-12,11.31-16.9-.6,1.68-1,7.57,3,7.74,1.79.08,3.41-1,4.76-2.21,3.67-3.24,8.45-11.87,9.87-16.55-.6,1.94-1.06,6.33.09,8s4.9,1.53,6.71.6c7.21-3.68,13.51-11.21,17.06-17.22-1.28,2.23-1.84,7.71.54,8.67a9.21,9.21,0,0,0,7.55-.38C192.64,257.91,201.06,248.91,207.55,238.38Z" style="fill:#455a64"></path><path d="M253.83,92.74a21.5,21.5,0,0,1-6.3-6.58,12.36,12.36,0,0,0,2,5.66,15.11,15.11,0,0,0,4.62,4.24C254,95,253.91,93.88,253.83,92.74Z" style="fill:#582F71;opacity:0.2"></path><path d="M270.94,78.42a3,3,0,1,1-3-3A3,3,0,0,1,270.94,78.42Z" style="fill:#37474f"></path><path d="M337.63,112.86l10,5.28a.4.4,0,0,1-.29.75c-15.11-4.15-70.49-24.68-71.9-25.09a11.45,11.45,0,0,1-5.95-5.3c-.69-1.6,0-1.8.95-1.83a21.55,21.55,0,0,0,10.48-3c2.88-1.66,5.11-3.32,6.1-6l64.39,38a.4.4,0,0,1-.3.74Z" style="fill:#f0997a"></path><path d="M337.63,112.86l3.94,2.38c2.18,1.31-.19.93-2.05.08L277.81,90.89Z" style="opacity:0.30000000000000004"></path><path d="M287.61,86.22c-.11.4-.78.55-1.5.34s-1.2-.69-1.08-1.08.78-.55,1.49-.34S287.72,85.83,287.61,86.22Z" style="opacity:0.30000000000000004"></path></g><g id="freepik--Baby--inject-6"><path d="M368.63,207.83c2.39,3.66,4.52,17.07-8.77,30.66s-30.36,24.84-55.37,26.06-49.86-9.67-47.3-26.51,24.5-20.87,34.37-24.64,24.16-22.57,42.88-21.85S368.63,207.83,368.63,207.83Z" style="fill:#582F71"></path><path d="M368.63,207.83c2.39,3.66,4.52,17.07-8.77,30.66s-30.36,24.84-55.37,26.06-49.86-9.67-47.3-26.51,24.5-20.87,34.37-24.64,24.16-22.57,42.88-21.85S368.63,207.83,368.63,207.83Z" style="fill:#fff;opacity:0.4"></path><path d="M368.63,207.83s-1.31-1.31-3.62-3.2l-8.67,5.64s8.49,1.73,5.75,10.25-17.59,16.53-26,10.42c-11.19-8.1-14.69-36.76-14.71-36.86h0c-.11.26-26.29,59.17-37.46,58.15-17.94-1.64-25.12-16.66-20.18-26.06h0A19.85,19.85,0,0,0,257.19,238c-2.56,16.84,22.29,27.73,47.3,26.51s42.08-12.46,55.37-26.06S371,211.49,368.63,207.83Z" style="opacity:0.1"></path><path d="M379,188.59c0,7.06-1.64,11.88-7,15.64-4,2.81-9.36,7-17.24,7.7-10.71,1-20.21-2.71-24.7-11.37a13.14,13.14,0,0,1-1-9.49c.78-2.78,2.65-5.06,4.11-7.5s2.09-5.26,3.42-7.8a22.33,22.33,0,0,1,4.85-6.05,18.71,18.71,0,0,1,6.35-4.09,22.81,22.81,0,0,1,7.38-1.14C368.78,164.49,379,175,379,188.59Z" style="fill:#ffa8a7"></path><path d="M342.66,188.75c-1.28-.45-3.17.67-2,1.54s4.34,2.57,4.44,1.77A4.52,4.52,0,0,0,342.66,188.75Z" style="fill:#f28f8f"></path><path d="M343.09,197.66l5.15,1.11a2.64,2.64,0,0,1-5.15-1.11Z" style="fill:#b16668"></path><path d="M382.65,191a25.1,25.1,0,0,1-1.56,5,19.62,19.62,0,0,1-7.38,8.62,36.7,36.7,0,0,1-10.6,5.05,16.18,16.18,0,0,0,3-6.59c1,1.69,4.36.79,5.6-.57,1.53-1.66,2.37-3.68,1.66-5.59a3.59,3.59,0,0,0-3.15-2.11,3,3,0,0,0-1.93.47c-.66.47-1.41,1.18-2.32.75a1.64,1.64,0,0,1-.82-1.36,6.07,6.07,0,0,1,.18-1.64,11.08,11.08,0,0,0-.23-4.62,16.81,16.81,0,0,1-.88-4.12,25.64,25.64,0,0,0,0-3.82,4.3,4.3,0,0,0-1.83-3.2,7.45,7.45,0,0,0-3.74-.55,16,16,0,0,1-5.54-1.07,17.79,17.79,0,0,1-6.72-4.24,3.54,3.54,0,0,0-3.31-1.18A6.79,6.79,0,0,0,340,171.8a16.86,16.86,0,0,0-3.28,3.67c.78-4,3.65-7.61,6.88-10,3.62-2.68,9.45-3.7,11.44-3.82a29.45,29.45,0,0,1,15.75,3.49A23.83,23.83,0,0,1,382.65,191Z" style="fill:#37474f"></path><path d="M360.51,198c0,2-2,3.61-4.44,3.61s-4.44-1.62-4.44-3.61,2-3.6,4.44-3.6S360.51,196,360.51,198Z" style="fill:#f28f8f;opacity:0.7000000000000001"></path><path d="M335.29,189.93c-1.13,1.64-3.68,1.84-5.7.45s-2.74-3.85-1.61-5.49,3.69-1.84,5.7-.44S336.42,188.3,335.29,189.93Z" style="fill:#f28f8f;opacity:0.7000000000000001"></path><path d="M341.19,183.52a2.57,2.57,0,1,1-2.57-2.56A2.56,2.56,0,0,1,341.19,183.52Z" style="fill:#263238"></path><path d="M340.27,183.13a.83.83,0,1,1-.82-.82A.83.83,0,0,1,340.27,183.13Z" style="fill:#fafafa"></path><path d="M357,189.55a2.57,2.57,0,1,1-2.57-2.56A2.57,2.57,0,0,1,357,189.55Z" style="fill:#263238"></path><path d="M356.51,189.16a.83.83,0,1,1-.83-.82A.83.83,0,0,1,356.51,189.16Z" style="fill:#fafafa"></path><path d="M355.53,164.63a4.55,4.55,0,0,1-.49-.58,4.68,4.68,0,0,1-.55-2.69,11.23,11.23,0,0,1,1.9-6c2.13-3.3,6.08-4.95,9.15-3.3a4.31,4.31,0,0,1,2.27,4.36,3.75,3.75,0,0,1-4.94,2.88,1.69,1.69,0,0,1-1.16-1.06c-.14-.53.33-1.19.86-1.06a3.92,3.92,0,0,1,.64.34,1,1,0,0,0,1.35-.73,1.35,1.35,0,0,0-.71-1.45,1.91,1.91,0,0,0-1.68,0,3.32,3.32,0,0,0-1.28,1.16,5.58,5.58,0,0,0-.95,3.55c.07.81.24,1.62.38,2.42a9.54,9.54,0,0,0,.64,1.7,1.25,1.25,0,0,1-.4.68A3.66,3.66,0,0,1,355.53,164.63Z" style="fill:#37474f"></path><path d="M355.23,164.26c-.51-3.5-5.52-9.78-7.86-8.65s-.9,3.47-1.81,4.74c-.77,1.09-3.51,2.35-2.57,4.21s9.28,2.47,11.28,1.7Z" style="fill:#582F71"></path><path d="M355.15,164.64c-.77-1.39-3-4.19-3.5-3.85s1.84,3.26,1.84,3.26-3.38-.51-3.36.28,4.64.89,4.64.89Z" style="opacity:0.15"></path><path d="M358.14,165.23c2.65-2.35,10.52-3.93,11.59-1.57s-1.55,3.24-1.67,4.8c-.11,1.33,1.22,4.16-.74,4.87s-8.28-3.62-9.73-6Z" style="fill:#582F71"></path><path d="M358.33,165.57c1.26-.49,4.76-1.28,4.78-.75s-4.14,1.29-4.14,1.29,3.26,1.85,2.85,2.45-3.26-1.29-3.91-2.47Z" style="opacity:0.15"></path><path d="M357.11,163.77c-1.51-.36-2.12-.26-2.76,1s-.74,2.22.88,2.82,2.37.61,2.64.22a6.09,6.09,0,0,1,.9-3A2.91,2.91,0,0,0,357.11,163.77Z" style="fill:#582F71"></path><path d="M358,166.66c-.14.57-.35.74-.69.79a4.77,4.77,0,0,1-2.16-.6c-.95-.46-1.11-1-1.12-1.37-.28.88-.07,1.6,1.2,2.07,1.62.59,2.37.61,2.64.22a6.18,6.18,0,0,1,.13-1.11Z" style="opacity:0.15"></path></g><path d="M345.65,250.59l-.08.13a76.51,76.51,0,0,1-41.08,13.83,75.27,75.27,0,0,1-24.85-2.86c-5.75-11.16-6.91-31.8-2.8-59.67,6.15-41.72,31.53-99.9,31.53-99.9l7.55,2.77s2.1,41.62,3.73,70.32c.33,5.79.88,12.24,1.69,18.87C324.56,220.31,331.84,249.28,345.65,250.59Z" style="fill:#582F71"></path><path d="M301.13,228.22l-3-1.28c-7.16-3-8.94-6.91-9.37-8.44a5.73,5.73,0,0,1,4-7.06c2.71-.76,5.62,1.35,6.8,3.8.53-2.67,2.82-5.44,5.64-5.37a5.71,5.71,0,0,1,5.6,5.84c0,1.6-.78,5.81-7,10.51Z" style="fill:#fafafa"></path><path d="M304.49,264.55a76.51,76.51,0,0,0,41.08-13.83s-25.11,10-45.2-.13-24.32-42.83-22.57-54.43q-.54,3-1,5.86c-4.11,27.87-2.95,48.51,2.8,59.67A75.27,75.27,0,0,0,304.49,264.55Z" style="opacity:0.1"></path><path d="M310.42,102.87c-3.77,9.84-14.6,43.65-15.52,50.58,0,0,14-43.35,16.48-48.36l1.8,59.4V103.88Z" style="opacity:0.1"></path></g></g><g id="freepik--Hearts--inject-6"><path id="freepik--Heart--inject-6" d="M374.61,130.49l-2.39-1c-5.63-2.36-7-5.43-7.37-6.63A4.5,4.5,0,0,1,368,117.3c2.14-.6,4.42,1,5.35,3,.42-2.1,2.22-4.27,4.43-4.22a4.5,4.5,0,0,1,4.41,4.59c0,1.26-.61,4.57-5.48,8.27Z" style="fill:#582F71"></path><path id="freepik--heart--inject-6" d="M392.44,116.78l-2.22-2.49c-5.21-5.83-5.14-10.14-4.87-11.72A5.77,5.77,0,0,1,392,97.86c2.8.48,4.53,3.66,4.55,6.4,1.64-2.2,4.92-3.73,7.45-2.45a5.76,5.76,0,0,1,2.57,7.74c-.72,1.43-3.22,5-10.88,6.54Z" style="fill:#582F71"></path></g></svg>