<svg xmlns="http://www.w3.org/2000/svg" viewBox="0 0 500 500"><g id="freepik--background-complete--inject-5"><path d="M443.63,430.22c-5.28-4.44-14.22-5-18.59.37a11,11,0,0,0-20.31-5.65c-1.19-6.74-2.47-13.67-6.18-19.42s-10.48-10.08-17.2-8.82c-6.4,1.21-11.06,7.16-12.71,13.46s-.86,12.95,0,19.41a13.73,13.73,0,0,0-21.2,12.26,5.67,5.67,0,0,0-6.95,8.23l111.85.24C451.45,443.45,448.91,434.65,443.63,430.22Z" style="fill:#e0e0e0"></path><path d="M222.44,430.22c-5.28-4.44-14.21-5-18.59.37a11,11,0,0,0-20.3-5.65c-1.2-6.74-2.48-13.67-6.18-19.42s-10.48-10.08-17.21-8.82c-6.4,1.21-11.06,7.16-12.71,13.46s-.86,12.95,0,19.41a13.73,13.73,0,0,0-21.2,12.26,5.67,5.67,0,0,0-7,8.23l111.84.24C230.27,443.45,227.73,434.65,222.44,430.22Z" style="fill:#e0e0e0"></path><path d="M104.44,205.62c-3.45-2.9-9.27-3.24-12.13.24a7.17,7.17,0,0,0-13.24-3.68c-.78-4.4-1.61-8.92-4-12.67s-6.84-6.57-11.22-5.75c-4.18.78-7.22,4.67-8.29,8.78S55,201,55.5,205.2a8.95,8.95,0,0,0-13.82,8,3.7,3.7,0,0,0-4.54,5.36l72.83-.41C109.42,213.68,107.88,208.51,104.44,205.62Z" style="fill:#e0e0e0"></path><path d="M335.68,82.85c-3.45-2.9-9.28-3.24-12.13.24a7.18,7.18,0,0,0-13.24-3.69c-.78-4.39-1.62-8.91-4-12.66s-6.84-6.58-11.23-5.75c-4.17.78-7.21,4.67-8.29,8.77s-.56,8.45,0,12.67a9,9,0,0,0-13.83,8,3.7,3.7,0,0,0-4.53,5.37l72.82-.41C340.65,90.91,339.12,85.74,335.68,82.85Z" style="fill:#e0e0e0"></path><path d="M457.89,329.64c-3.45-2.89-9.28-3.23-12.13.24a7.17,7.17,0,0,0-13.24-3.68c-.78-4.39-1.62-8.92-4-12.67s-6.84-6.57-11.22-5.75c-4.18.79-7.22,4.67-8.29,8.78s-.57,8.45,0,12.66a8.95,8.95,0,0,0-13.82,8,3.69,3.69,0,0,0-4.54,5.36l72.82-.41C462.86,337.7,461.33,332.53,457.89,329.64Z" style="fill:#e0e0e0"></path><rect x="39.18" y="68.54" width="104.86" height="77.35" transform="translate(-12.78 12.4) rotate(-7.24)" style="fill:#fff"></rect><path d="M148.49,139s-.07-.48-.19-1.4-.31-2.3-.54-4.08c-.46-3.57-1.14-8.8-2-15.49-1.72-13.36-4.18-32.52-7.17-55.74l.19.14-104,13.25h0l.18-.23c3.49,27.55,6.8,53.66,9.73,76.74l-.21-.16,75.06-9.44,21.35-2.66,5.67-.7L148,139l.5-.06-.48.08-1.44.19L141,140l-21.29,2.75L44.5,152.38l-.19,0,0-.18C41.35,129.14,38,103,34.52,75.48l0-.2.2,0h0l104-13.17.16,0,0,.16,7,55.88c.83,6.67,1.48,11.9,1.92,15.46.22,1.77.38,3.13.5,4.05S148.49,139,148.49,139Z" style="fill:#e0e0e0"></path><rect x="40.69" y="67.38" width="6.65" height="16.49" style="fill:#e0e0e0"></rect><rect x="139.18" y="126.91" width="6.65" height="16.49" transform="translate(150.62 -61.09) rotate(48.89)" style="fill:#e0e0e0"></rect><path d="M65.57,97.31a1.52,1.52,0,0,1,.31.29,6.29,6.29,0,0,1,.77,1,8.53,8.53,0,0,1,1.44,4.25,7.93,7.93,0,0,1-.42,3.12,7.53,7.53,0,0,1-2,3,7.88,7.88,0,0,1-3.5,1.92,6.52,6.52,0,0,1-4.25-.35,6.84,6.84,0,0,1-4.23-6.64,7,7,0,0,1,3.58-5.49,7.78,7.78,0,0,1,4.39-.92,7.67,7.67,0,0,1,1.21.2,2.29,2.29,0,0,1,.41.14s-.58-.13-1.63-.18a7.88,7.88,0,0,0-4.24,1,6.86,6.86,0,0,0-3.35,5.27,6.49,6.49,0,0,0,4,6.23,6.15,6.15,0,0,0,4,.33,7.47,7.47,0,0,0,5.69-7.63,8.78,8.78,0,0,0-1.29-4.19C66,97.75,65.54,97.33,65.57,97.31Z" style="fill:#e0e0e0"></path><path d="M59.62,96.29a54.59,54.59,0,0,1-6.06,2.76,53.84,53.84,0,0,1-6.22,2.37,55.75,55.75,0,0,1,6.06-2.75A52.92,52.92,0,0,1,59.62,96.29Z" style="fill:#e0e0e0"></path><path d="M58.5,97.53a11.56,11.56,0,0,1-1.71,1.2c-1.08.69-2.59,1.63-4.27,2.64s-3.21,1.9-4.33,2.53a10.48,10.48,0,0,1-1.86.95A10,10,0,0,1,48,103.66c1.08-.7,2.59-1.63,4.27-2.65s3.21-1.9,4.33-2.53A10.48,10.48,0,0,1,58.5,97.53Z" style="fill:#e0e0e0"></path><path d="M59.43,101.93a6.41,6.41,0,0,1,.14-2.26,6.48,6.48,0,0,1,.53-2.2A6,6,0,0,1,60,99.73,5.94,5.94,0,0,1,59.43,101.93Z" style="fill:#e0e0e0"></path><path d="M61.2,101.7a4.82,4.82,0,0,1-.06-2,4.94,4.94,0,0,1,.35-1.93,4.89,4.89,0,0,1,.06,2A4.61,4.61,0,0,1,61.2,101.7Z" style="fill:#e0e0e0"></path><path d="M62.69,101.45a5.28,5.28,0,0,1-.18-2,5,5,0,0,1,.24-2,9.73,9.73,0,0,1-.06,4Z" style="fill:#e0e0e0"></path><path d="M64.82,101.61a4.83,4.83,0,0,1-.47-1.94,5.17,5.17,0,0,1-.06-2,5,5,0,0,1,.47,1.94A5.17,5.17,0,0,1,64.82,101.61Z" style="fill:#e0e0e0"></path><path d="M73.92,108.22a12.58,12.58,0,0,1-1.17-1.63c-.7-1-1.69-2.42-2.86-3.89s-2.33-2.75-3.18-3.65a11.91,11.91,0,0,1-1.34-1.5,8.26,8.26,0,0,1,1.55,1.3A37,37,0,0,1,73,106.43,8,8,0,0,1,73.92,108.22Z" style="fill:#e0e0e0"></path><path d="M77.15,105.43a53.44,53.44,0,0,1-5.45-3.75,51.8,51.8,0,0,1-5.2-4.09,53.22,53.22,0,0,1,5.44,3.76A55.15,55.15,0,0,1,77.15,105.43Z" style="fill:#e0e0e0"></path><path d="M63.63,105.76s0,.46-.48,1a3,3,0,0,1-2.5,1,3,3,0,0,1-2.27-1.45c-.37-.61-.35-1.07-.31-1.07s.16.4.55.91a3,3,0,0,0,2.07,1.21,3.08,3.08,0,0,0,2.25-.82C63.41,106.13,63.57,105.73,63.63,105.76Z" style="fill:#e0e0e0"></path><path d="M58,102.69c0,.11-.06.24-.14.39s-.17.29-.28.3-.24-.24-.07-.52S57.94,102.58,58,102.69Z" style="fill:#e0e0e0"></path><path d="M63,102.69c.11,0,.19.2.17.44s-.12.41-.23.4-.2-.2-.18-.44S62.85,102.68,63,102.69Z" style="fill:#e0e0e0"></path><path d="M62.71,110.19s.07.09.18.29.28.52.48.87c.42.82,1,1.93,1.72,3.31L71,126.14l.13.25-.28,0-7.89.94-5.19.6-1.24.15a4.28,4.28,0,0,1-1.29,0,1.24,1.24,0,0,1-.63-.33,1,1,0,0,1-.3-.64,3.21,3.21,0,0,1,.2-1.23c.9-3,1.7-5.62,2.38-7.88l1.64-5.31c.19-.59.35-1.06.47-1.43a2.24,2.24,0,0,1,.19-.5,3.38,3.38,0,0,1-.11.52c-.1.38-.23.86-.4,1.46l-1.51,5.34L54.83,126a2.82,2.82,0,0,0-.19,1.07.71.71,0,0,0,.63.63,3.5,3.5,0,0,0,1.16,0l1.24-.15,5.19-.61,7.89-.92-.15.29c-2.3-4.65-4.29-8.66-5.73-11.55-.67-1.4-1.22-2.53-1.62-3.36l-.42-.9A1.46,1.46,0,0,1,62.71,110.19Z" style="fill:#e0e0e0"></path><path d="M60.28,135.15a16.81,16.81,0,0,1-.05-3.71,17.22,17.22,0,0,1,.35-3.7,17.15,17.15,0,0,1,.06,3.71A16,16,0,0,1,60.28,135.15Z" style="fill:#e0e0e0"></path><path d="M68.89,134.34a3.1,3.1,0,0,0-1.27-.25,3,3,0,0,1-1.5-.31,1.18,1.18,0,0,1-.57-.81,4,4,0,0,1,0-1,26.07,26.07,0,0,1,.46-4.58A26.49,26.49,0,0,1,66,132a3.6,3.6,0,0,0,0,.87.81.81,0,0,0,.37.57,3.08,3.08,0,0,0,1.32.34,2.4,2.4,0,0,1,1,.27C68.84,134.2,68.91,134.32,68.89,134.34Z" style="fill:#e0e0e0"></path><path d="M72.12,116a32.94,32.94,0,0,1-4.62-2.25,32.26,32.26,0,0,1-4.43-2.62,32.4,32.4,0,0,1,4.62,2.26A32.42,32.42,0,0,1,72.12,116Z" style="fill:#e0e0e0"></path><path d="M58.76,110.83a39,39,0,0,1-3.68,4.26,37.07,37.07,0,0,1-4,4,40.68,40.68,0,0,1,3.69-4.26A40.07,40.07,0,0,1,58.76,110.83Z" style="fill:#e0e0e0"></path><path d="M83.9,107.44s.14,0,.41,0a6.07,6.07,0,0,1,1.11.38,6.73,6.73,0,0,1,3.11,3,6,6,0,0,1,.72,2.92,6.64,6.64,0,0,1-.92,3.32,6.53,6.53,0,0,1-2.77,2.63,6.76,6.76,0,0,1-7.68-1.38,6.49,6.49,0,0,1-1.68-3.43,6.7,6.7,0,0,1,.29-3.44,6.09,6.09,0,0,1,1.7-2.48,6.69,6.69,0,0,1,3.94-1.69,5.17,5.17,0,0,1,1.17,0,1.84,1.84,0,0,1,.4.09,15.31,15.31,0,0,0-1.56,0,6.8,6.8,0,0,0-3.75,1.75,5.92,5.92,0,0,0-1.58,2.39,6.44,6.44,0,0,0-.24,3.26,6.23,6.23,0,0,0,12.34-1.09,5.94,5.94,0,0,0-.64-2.78A6.73,6.73,0,0,0,85.35,108,12,12,0,0,0,83.9,107.44Z" style="fill:#e0e0e0"></path><path d="M80.09,113.22c-.08.07-.33-.11-.39-.45s.12-.58.23-.54.14.25.18.48S80.19,113.15,80.09,113.22Z" style="fill:#e0e0e0"></path><path d="M84.62,112.94c-.07.09-.41-.1-.5-.54s.15-.75.24-.69.09.31.16.61S84.7,112.86,84.62,112.94Z" style="fill:#e0e0e0"></path><path d="M86.16,113.66s-.07.43-.48,1a4.29,4.29,0,0,1-2.11,1.5,4.4,4.4,0,0,1-2.59,0c-.64-.2-1-.46-1-.5a5.68,5.68,0,0,1,1,.22,5,5,0,0,0,2.39-.15,4.9,4.9,0,0,0,2-1.29C85.9,114,86.1,113.63,86.16,113.66Z" style="fill:#e0e0e0"></path><path d="M79.79,119a10,10,0,0,1-3.51-.32,10,10,0,0,1-3.34-1.12,31.22,31.22,0,0,1,3.43.72A32.12,32.12,0,0,1,79.79,119Z" style="fill:#e0e0e0"></path><path d="M79.46,104.53a4.12,4.12,0,0,1,.38,2,4,4,0,0,1-.24,2,7.29,7.29,0,0,1-.18-2A6.63,6.63,0,0,1,79.46,104.53Z" style="fill:#e0e0e0"></path><path d="M81.34,104.9a8.08,8.08,0,0,1,.1,3.66,4.47,4.47,0,0,1-.25-1.83A4.28,4.28,0,0,1,81.34,104.9Z" style="fill:#e0e0e0"></path><path d="M84.74,103.2a11.52,11.52,0,0,1-.66,2.14,12.67,12.67,0,0,1-.65,2.15,4.35,4.35,0,0,1,.26-2.27A4.4,4.4,0,0,1,84.74,103.2Z" style="fill:#e0e0e0"></path><path d="M88.23,117.62a2.87,2.87,0,0,1,.29.72c.16.47.37,1.15.63,2s.57,1.88.9,3a2.24,2.24,0,0,1,.14,1,.78.78,0,0,1-.27.52,1,1,0,0,1-.53.23c-.67.08-1.3.1-2,.15l-3.79.24-.85,0a1.54,1.54,0,0,1-.47,0,.57.57,0,0,1-.38-.4,3.55,3.55,0,0,1,0-.8c0-.24,0-.47,0-.69.06-.88.11-1.59.16-2.09a2.71,2.71,0,0,1,.12-.76,3.39,3.39,0,0,1,0,.77c0,.5,0,1.21,0,2.09l0,.7a3.13,3.13,0,0,0,0,.69c0,.18.19.18.49.15l.85-.07,3.79-.27c.67,0,1.35-.07,1.94-.14.29,0,.45-.17.48-.41a1.91,1.91,0,0,0-.12-.79c-.29-1.1-.57-2.11-.81-3s-.39-1.55-.51-2A2.63,2.63,0,0,1,88.23,117.62Z" style="fill:#e0e0e0"></path><path d="M85.75,127.41a6.68,6.68,0,0,1,0,1.82v.16h-.17c-.66,0-1.44-.07-2.29-.14l-.71-.06h-.2V129a15.66,15.66,0,0,1,.44-3.36,16.28,16.28,0,0,1,0,3.39l-.19-.22.71.05c.85.07,1.63.14,2.28.21l-.18.16A6.57,6.57,0,0,1,85.75,127.41Z" style="fill:#e0e0e0"></path><path d="M88.86,124.71a5,5,0,0,1,.46,1.33c.13.47.27,1,.4,1.47a2.54,2.54,0,0,1,.13,1,1.24,1.24,0,0,1-.6.93,2.73,2.73,0,0,1-1.93.21l-.13,0,0-.12c-.2-.77-.35-1.43-.46-1.93l.13.1a3.27,3.27,0,0,1-1-.09,2.5,2.5,0,0,1,1-.16h.09l0,.1c.16.48.36,1.13.58,1.89l-.16-.14A2.52,2.52,0,0,0,89,129a.86.86,0,0,0,.42-.62,2.63,2.63,0,0,0-.1-.82c-.1-.52-.21-1-.31-1.49A4.76,4.76,0,0,1,88.86,124.71Z" style="fill:#e0e0e0"></path><path d="M81.56,133.09s.2-.19.63-.24a2.18,2.18,0,0,1,1.66.55l-.33.12c0-.37,0-.74.08-1.12a14.53,14.53,0,0,1,.48-3.41,14.22,14.22,0,0,1-.07,3.44c0,.39-.07.76-.1,1.12l0,.41-.29-.28a2.17,2.17,0,0,0-1.38-.59A5.55,5.55,0,0,1,81.56,133.09Z" style="fill:#e0e0e0"></path><path d="M92.07,132.66a9.06,9.06,0,0,1-2.52.58l-.19,0,0-.19c0-.21-.09-.42-.13-.64a12.23,12.23,0,0,1-.44-3.22,12.89,12.89,0,0,1,.84,3.14c0,.22.09.43.13.64l-.23-.16A10.29,10.29,0,0,1,92.07,132.66Z" style="fill:#e0e0e0"></path><path d="M95.25,113.89a23.27,23.27,0,0,1-3.73,2.35,23.06,23.06,0,0,1-3.93,2,23.85,23.85,0,0,1,3.73-2.35A24,24,0,0,1,95.25,113.89Z" style="fill:#e0e0e0"></path><path d="M100.93,87.35a2.59,2.59,0,0,1,.49-.1,7.36,7.36,0,0,1,1.41,0A8.76,8.76,0,0,1,107.68,89a8.86,8.86,0,0,1,3.36,6.8,6.26,6.26,0,0,1-.39,2.24,4.49,4.49,0,0,1-1.41,1.94,9,9,0,0,1-2.14,1.19,24.09,24.09,0,0,1-2.35.83,8.09,8.09,0,0,1-4.91.13,6.16,6.16,0,0,1-3.38-3.09A7.29,7.29,0,0,1,95.77,95a9.72,9.72,0,0,1,1.09-3.45,7.8,7.8,0,0,1,3.61-3.69,3.41,3.41,0,0,1,1.39-.28,2,2,0,0,1,.49.06,4.32,4.32,0,0,0-1.82.37,7.92,7.92,0,0,0-3.41,3.67,9.53,9.53,0,0,0-1,3.35,7,7,0,0,0,.7,3.89,5.76,5.76,0,0,0,3.17,2.88,7.79,7.79,0,0,0,4.67-.14,24,24,0,0,0,2.3-.82,8.12,8.12,0,0,0,2-1.13,4.8,4.8,0,0,0,1.67-3.86,8.6,8.6,0,0,0-3.17-6.57,8.71,8.71,0,0,0-4.67-1.88A16.08,16.08,0,0,0,100.93,87.35Z" style="fill:#e0e0e0"></path><path d="M100.4,94c-.1,0-.09-.36,0-.72s.3-.63.41-.59.1.35,0,.72S100.51,94,100.4,94Z" style="fill:#e0e0e0"></path><path d="M105.14,93c-.11,0-.32-.17-.48-.49s-.22-.62-.12-.67.32.17.48.49S105.24,93,105.14,93Z" style="fill:#e0e0e0"></path><path d="M107.62,93.93a2.42,2.42,0,0,1-.52,1.25,5,5,0,0,1-2.62,2,5,5,0,0,1-3.27-.13,2.36,2.36,0,0,1-1.13-.74c0-.06.46.23,1.23.46A5.08,5.08,0,0,0,106.86,95C107.37,94.39,107.56,93.91,107.62,93.93Z" style="fill:#e0e0e0"></path><path d="M100,91.32c-.1,0-.39-.48-.47-1.2s.1-1.3.21-1.28.13.57.2,1.23S100.15,91.28,100,91.32Z" style="fill:#e0e0e0"></path><path d="M102,90.91c-.1,0-.51-.52-.73-1.34s-.17-1.52-.06-1.52.24.64.46,1.41S102.07,90.86,102,90.91Z" style="fill:#e0e0e0"></path><path d="M104.22,90.74c0,.09-.74-.19-1.29-.9s-.65-1.46-.54-1.48.37.59.87,1.23S104.28,90.63,104.22,90.74Z" style="fill:#e0e0e0"></path><path d="M89.35,103.23s0-.37.48-.8a4.66,4.66,0,0,1,.9-.63,4.29,4.29,0,0,0,1.11-.82,1.13,1.13,0,0,0,.23-1.39c-.29-.49-1-.76-1.4-1.42A1.45,1.45,0,0,1,90.5,97a2.29,2.29,0,0,1,.65-1,5.3,5.3,0,0,1,2.22-1,3.29,3.29,0,0,0,1.86-1.14,1.36,1.36,0,0,0,.23-.93,7.43,7.43,0,0,0-.31-1,2.66,2.66,0,0,1,.22-2.07,3.73,3.73,0,0,1,1.21-1.33A6.84,6.84,0,0,1,99,87.59a3.34,3.34,0,0,1,.92-.13,4.22,4.22,0,0,1-.88.28,7.74,7.74,0,0,0-2.24,1A3.59,3.59,0,0,0,95.67,90a2.3,2.3,0,0,0-.16,1.79,7.36,7.36,0,0,1,.34,1.06,1.75,1.75,0,0,1-.29,1.21,3.59,3.59,0,0,1-2.07,1.3,5,5,0,0,0-2.06.9A1.37,1.37,0,0,0,91,98c.33.54,1,.84,1.37,1.44a1.28,1.28,0,0,1,.15,1,1.75,1.75,0,0,1-.46.77,4.23,4.23,0,0,1-1.21.83,5,5,0,0,0-.91.55A2.58,2.58,0,0,0,89.35,103.23Z" style="fill:#e0e0e0"></path><path d="M111.68,94.84a3.22,3.22,0,0,1,.45-.62,4.53,4.53,0,0,0,.92-1.77,2.17,2.17,0,0,0-.15-1.29,1.35,1.35,0,0,0-1.13-.81,12.25,12.25,0,0,0-1.78.06,2,2,0,0,1-1-.22,1.46,1.46,0,0,1-.69-.87,10.8,10.8,0,0,1-.12-2,1.44,1.44,0,0,0-.87-1.25,3,3,0,0,0-1.52-.18,13.19,13.19,0,0,0-1.4.19,3.78,3.78,0,0,0-1.82.78,3.61,3.61,0,0,0-.46.58s0-.08,0-.2a1.72,1.72,0,0,1,.31-.49,3.52,3.52,0,0,1,1.87-1,11.14,11.14,0,0,1,1.43-.25,3.19,3.19,0,0,1,1.7.18,1.84,1.84,0,0,1,.77.59,2,2,0,0,1,.35,1,14.19,14.19,0,0,0,.11,1.9A1.21,1.21,0,0,0,110,90a12.36,12.36,0,0,1,1.83,0,1.73,1.73,0,0,1,1.39,1,2.45,2.45,0,0,1,.12,1.5,4.21,4.21,0,0,1-1.08,1.8C111.91,94.68,111.7,94.86,111.68,94.84Z" style="fill:#e0e0e0"></path><path d="M115.45,83.86a1.74,1.74,0,0,1,.39-.24,11.47,11.47,0,0,1,6-1.3,7.54,7.54,0,0,1,3.24,1,7,7,0,0,1,2.64,2.87,7.33,7.33,0,0,1,.76,4.25,7.07,7.07,0,0,1-2.14,4.1,7.32,7.32,0,0,1-4.17,2,7,7,0,0,1-4.22-.9,7.46,7.46,0,0,1-2.77-2.75,6.73,6.73,0,0,1-.85-3.29A7.27,7.27,0,0,1,116,85a4.91,4.91,0,0,1,1.34-1.2,12.8,12.8,0,0,0-1.21,1.29,7.29,7.29,0,0,0-1.45,4.47,6.5,6.5,0,0,0,.85,3.13,7.23,7.23,0,0,0,2.67,2.59,6.64,6.64,0,0,0,4,.83,7,7,0,0,0,3.94-1.88,6.65,6.65,0,0,0,2-3.86,7.08,7.08,0,0,0-.69-4,6.85,6.85,0,0,0-2.48-2.75,7.46,7.46,0,0,0-3.1-1,11.28,11.28,0,0,0-4.73.61C116,83.59,115.46,83.89,115.45,83.86Z" style="fill:#e0e0e0"></path><path d="M117.89,90c-.11,0-.22-.1-.23-.26s.06-.29.18-.3.21.1.23.26S118,90,117.89,90Z" style="fill:#e0e0e0"></path><path d="M122.87,88.2c-.11,0-.26-.11-.34-.34s0-.43.06-.46.26.11.33.33S123,88.16,122.87,88.2Z" style="fill:#e0e0e0"></path><path d="M124.73,88.56a2.22,2.22,0,0,1-.44,1.06,5.54,5.54,0,0,1-2.09,1.86,5.46,5.46,0,0,1-2.72.62,2.09,2.09,0,0,1-1.13-.26,9.19,9.19,0,0,1,1.13,0,6.52,6.52,0,0,0,2.53-.69,6.39,6.39,0,0,0,2-1.67C124.48,88.92,124.67,88.53,124.73,88.56Z" style="fill:#e0e0e0"></path><path d="M113.6,83.68c.08-.08.7.32,1.39.9s1.19,1.13,1.12,1.22-.69-.32-1.39-.9S113.53,83.77,113.6,83.68Z" style="fill:#e0e0e0"></path><path d="M115.05,83c.08-.09.61.25,1.2.75s1,1,.92,1.06-.6-.25-1.19-.75S115,83.06,115.05,83Z" style="fill:#e0e0e0"></path><path d="M117.3,81.53c.1,0,.51.59.91,1.42s.64,1.55.54,1.6-.51-.59-.91-1.42A3.62,3.62,0,0,1,117.3,81.53Z" style="fill:#e0e0e0"></path><path d="M108.59,99.82a2.21,2.21,0,0,1,.18.32l.44,1,1.62,3.59c1.36,3.13,3.25,7.46,5.44,12.47l.1.23-.24,0-7.69,1.27-8.66,1.42-.27,0,0-.27c.89-5.14,1.64-9.55,2.19-12.74.28-1.53.5-2.76.66-3.66l.2-1a1.15,1.15,0,0,1,.08-.33,1.09,1.09,0,0,1,0,.34c0,.26-.08.58-.13,1-.14.91-.32,2.15-.55,3.68-.51,3.19-1.22,7.62-2,12.77l-.23-.23,8.66-1.43,7.69-1.26-.15.27-5.31-12.52-1.51-3.64c-.15-.4-.28-.72-.38-1A1.35,1.35,0,0,1,108.59,99.82Z" style="fill:#e0e0e0"></path><path d="M106.45,128.67a20.17,20.17,0,0,1-.35-4.6,19.7,19.7,0,0,1,.32-4.59,36.56,36.56,0,0,1,.09,4.59A36.06,36.06,0,0,1,106.45,128.67Z" style="fill:#e0e0e0"></path><path d="M112.41,128.31a30.67,30.67,0,0,1-.77-4.93,31.08,31.08,0,0,1-.36-5,30.17,30.17,0,0,1,.77,4.93A31.08,31.08,0,0,1,112.41,128.31Z" style="fill:#e0e0e0"></path><path d="M102.13,103a23.75,23.75,0,0,1-2.46,4.72A23.49,23.49,0,0,1,96.54,112c-.1-.07,1.24-2,2.78-4.53S102,102.9,102.13,103Z" style="fill:#e0e0e0"></path><path d="M117.41,108a42.74,42.74,0,0,1-4.47-3.55,40.69,40.69,0,0,1-4.2-3.86,37.74,37.74,0,0,1,4.47,3.55A39.42,39.42,0,0,1,117.41,108Z" style="fill:#e0e0e0"></path><path d="M116.06,107.23a5.67,5.67,0,0,1,.26-1.67,30.7,30.7,0,0,1,1.19-3.89A33.75,33.75,0,0,1,119.19,98a6.48,6.48,0,0,1,.9-1.42c.11.06-1.08,2.32-2.19,5.27S116.18,107.25,116.06,107.23Z" style="fill:#e0e0e0"></path><path d="M131.36,108.44a3,3,0,0,1-.83.34c-.55.19-1.35.44-2.36.69s-2.21.52-3.56.74l-1,.16a5.15,5.15,0,0,1-1.14.08,1.55,1.55,0,0,1-.62-.22,1.16,1.16,0,0,1-.4-.54,4.93,4.93,0,0,1-.22-1.2c-.34-3.14-.62-6-.81-8-.08-1-.14-1.78-.2-2.44a4.4,4.4,0,0,1,0-.9,3.77,3.77,0,0,1,.18.88l.33,2.43c.26,2,.59,4.88.93,8a4.34,4.34,0,0,0,.19,1.09.77.77,0,0,0,.69.52,5.4,5.4,0,0,0,1-.07l1-.14c1.35-.2,2.55-.43,3.56-.65s1.81-.42,2.37-.56A4.18,4.18,0,0,1,131.36,108.44Z" style="fill:#e0e0e0"></path><path d="M130.41,107.55a10.79,10.79,0,0,1-.71-2c-.39-1.22-.91-2.92-1.45-4.8-.26-.94-.51-1.83-.75-2.66s-.44-1.55-.54-2.2a3.28,3.28,0,0,1,.09-1.56c.13-.35.28-.5.3-.48a3.43,3.43,0,0,0-.1,2c.29,1.21.88,2.91,1.4,4.79s1,3.6,1.33,4.84A9.68,9.68,0,0,1,130.41,107.55Z" style="fill:#e0e0e0"></path><path d="M133,99.74a12.44,12.44,0,0,1-3.13-2.35,12.84,12.84,0,0,1-2.58-2.94,34.94,34.94,0,0,1,2.86,2.64A34.81,34.81,0,0,1,133,99.74Z" style="fill:#e0e0e0"></path><path d="M123.76,126.8a16.11,16.11,0,0,1-.19-2.43c-.07-1.63-.16-3.64-.25-5.87s-.2-4.24-.27-5.87a15.45,15.45,0,0,1,0-2.44,13.38,13.38,0,0,1,.32,2.42c.14,1.5.28,3.58.39,5.87s.14,4.38.13,5.88A12.87,12.87,0,0,1,123.76,126.8Z" style="fill:#e0e0e0"></path><path d="M124.31,126.16c.06.09-.33.45-.94.61s-1.12,0-1.11-.07.47-.18,1-.33S124.25,126.06,124.31,126.16Z" style="fill:#e0e0e0"></path><path d="M132.8,126.41a3.84,3.84,0,0,1-.89.13c-.57,0-1.4.12-2.42.19h-.15v-.16c-.12-1.79-.29-4.21-.54-6.86-.27-2.81-.59-5.35-.83-7.18-.11-.84-.2-1.57-.28-2.17a3.28,3.28,0,0,1-.06-.81,2.78,2.78,0,0,1,.22.78c.11.51.25,1.24.41,2.16.31,1.82.67,4.36.94,7.18.26,2.66.39,5.09.44,6.89l-.16-.14c1,0,1.86-.06,2.44-.06A3.69,3.69,0,0,1,132.8,126.41Z" style="fill:#e0e0e0"></path><rect x="352.3" y="71.27" width="106.04" height="75.13" transform="translate(285.76 511.12) rotate(-88.48)" style="fill:#fff"></rect><path d="M441.46,162.83v-.52c0-.35,0-.85,0-1.5,0-1.33.06-3.27.12-5.79.12-5.07.29-12.45.5-21.79.47-18.67,1.13-45.13,1.9-76.41l.26.28-75.1-2h0l.31-.29c-1.08,39.72-2.08,76.45-2.88,106l-.23-.24L421,162.17l15.15.47,4,.13,1.38.06s-.44,0-1.33,0l-3.94-.08-15.1-.34-54.74-1.33h-.24v-.24c.77-29.55,1.72-66.28,2.76-106v-.3h.3l75.1,2h.26v.27c-.89,31.34-1.64,57.86-2.17,76.57-.28,9.31-.5,16.67-.65,21.72-.08,2.5-.14,4.43-.18,5.75,0,.63-.05,1.12-.06,1.46S441.46,162.83,441.46,162.83Z" style="fill:#e0e0e0"></path><rect x="375.96" y="43.65" width="7.42" height="18.4" transform="translate(699.62 263.98) rotate(-154.51)" style="fill:#e0e0e0"></rect><rect x="437.79" y="150.02" width="7.42" height="18.4" transform="translate(771.49 492.97) rotate(-154.51)" style="fill:#e0e0e0"></rect><path d="M386.55,114.39a112.69,112.69,0,0,1,0-11.32c.17-6.24.43-11.3.6-11.3a112.69,112.69,0,0,1,0,11.32C387,109.33,386.72,114.39,386.55,114.39Z" style="fill:#e0e0e0"></path><path d="M402.53,83.32c.08.13-4.93,3.31-11.19,7.09s-11.4,6.72-11.48,6.58,4.92-3.31,11.18-7.09S402.44,83.18,402.53,83.32Z" style="fill:#e0e0e0"></path><path d="M425.69,94c-.06.15-5.35-2-11.8-4.71S402.25,84.19,402.31,84s5.35,2,11.81,4.72S425.76,93.86,425.69,94Z" style="fill:#e0e0e0"></path><path d="M420.41,113.81a13.88,13.88,0,0,1-.23-2.93c-.05-1.81,0-4.31.07-7.08s.34-5.26.54-7.06a13.15,13.15,0,0,1,.49-2.9,16.51,16.51,0,0,1-.07,2.93c-.11,2-.23,4.41-.37,7.06s-.17,5-.24,7A15.43,15.43,0,0,1,420.41,113.81Z" style="fill:#e0e0e0"></path><path d="M429.47,114.06c0,.16-11.18,0-25-.37s-25-.8-24.95-1,11.18,0,25,.37S429.47,113.89,429.47,114.06Z" style="fill:#e0e0e0"></path><path d="M398.77,155.51a2.88,2.88,0,0,1,.55-.22l1.59-.53a25.57,25.57,0,0,0,5.56-2.51,11.65,11.65,0,0,0,3.09-2.79,9.35,9.35,0,0,0,1.86-4.32,6.55,6.55,0,0,0-1.28-4.88,14,14,0,0,0-4.39-3.54,54.46,54.46,0,0,1-5-3.05,14.21,14.21,0,0,1-3.66-4.07,13.89,13.89,0,0,1,.24-14.75,11.5,11.5,0,0,1,1-1.35c.26-.28.4-.42.42-.41s-.51.64-1.24,1.88a14.35,14.35,0,0,0-1.91,5.74,13.81,13.81,0,0,0,5.48,12.5,51.37,51.37,0,0,0,4.92,3,14.6,14.6,0,0,1,4.56,3.71,7,7,0,0,1,1.34,5.3,9.62,9.62,0,0,1-2,4.54,11.83,11.83,0,0,1-3.24,2.84A23.36,23.36,0,0,1,401,155c-.7.2-1.25.34-1.63.43A2.41,2.41,0,0,1,398.77,155.51Z" style="fill:#e0e0e0"></path><path d="M423.29,156.78c-.05,0,.43-.62,1.17-1.75a20.18,20.18,0,0,0,2.35-5.17,12.92,12.92,0,0,0-.19-8.22c-1.12-3-3.85-5.38-6.95-7.3s-6.34-3.53-8.78-5.71a13.8,13.8,0,0,1-3-3.53,9.48,9.48,0,0,1-1.2-3.86,7.69,7.69,0,0,1,1.44-5.54,4.46,4.46,0,0,1,1.65-1.34,10.59,10.59,0,0,0-1.47,1.47,7.69,7.69,0,0,0-1.2,5.37,9.12,9.12,0,0,0,1.2,3.65,13.79,13.79,0,0,0,2.91,3.37c2.39,2.1,5.58,3.65,8.74,5.62s6,4.46,7.15,7.6a13.18,13.18,0,0,1,.08,8.53,18.45,18.45,0,0,1-2.57,5.18,12.94,12.94,0,0,1-1,1.23A3,3,0,0,1,423.29,156.78Z" style="fill:#e0e0e0"></path><path d="M431.83,102.66A24.09,24.09,0,0,1,432,108a23.88,23.88,0,0,1-.43,5.28,24.09,24.09,0,0,1-.15-5.29A23.79,23.79,0,0,1,431.83,102.66Z" style="fill:#e0e0e0"></path><path d="M418,86.57s.06-.11.24-.27a2.32,2.32,0,0,1,1-.44,3,3,0,0,1,1.7.13,2.67,2.67,0,0,1,1.62,1.62h-.34a5.16,5.16,0,0,1,2-2.57,5.59,5.59,0,0,1,3.71-1c2.89.17,5.54,3.57,4.54,7l-.48-.29a2.77,2.77,0,0,1,1.89-.75,3.9,3.9,0,0,1,2,.58,4,4,0,0,1,1.5,1.57,4.78,4.78,0,0,1,.49,2,8.52,8.52,0,0,1-.91,3.8,6.84,6.84,0,0,1-2.19,2.93,2.56,2.56,0,0,1-3.29-.28l.41-.2a3.49,3.49,0,0,1-2.05,3.71,3.09,3.09,0,0,1-3.22-.54,3.25,3.25,0,0,1-1.12-1.78,2.16,2.16,0,0,1-.06-.56.52.52,0,0,1,0-.19s0,.26.17.71a3.24,3.24,0,0,0,1.15,1.61,2.8,2.8,0,0,0,2.89.4,3.09,3.09,0,0,0,1.75-3.27l-.17-.9.58.71a2.08,2.08,0,0,0,2.64.14,6.3,6.3,0,0,0,2-2.72,8,8,0,0,0,.84-3.55,4.15,4.15,0,0,0-.43-1.8,3.49,3.49,0,0,0-2.94-1.82,2.17,2.17,0,0,0-1.49.57l-.8.76.32-1a5,5,0,0,0-.72-4.23,4.57,4.57,0,0,0-3.32-2.08,5.21,5.21,0,0,0-3.42.9,4.87,4.87,0,0,0-1.87,2.32l-.19.51-.15-.51a2.36,2.36,0,0,0-1.39-1.47,3,3,0,0,0-1.56-.21A3.15,3.15,0,0,0,418,86.57Z" style="fill:#e0e0e0"></path><path d="M409.23,79.43a10,10,0,0,1,.2,3.38,10,10,0,0,1-.38,3.37,10,10,0,0,1-.2-3.38A10,10,0,0,1,409.23,79.43Z" style="fill:#e0e0e0"></path><path d="M413.92,79.85c0,.16-.86.27-1.91.24s-1.91-.18-1.91-.34.87-.27,1.92-.25S413.93,79.69,413.92,79.85Z" style="fill:#e0e0e0"></path><path d="M414,89.55a20.37,20.37,0,0,1-.17-4.86c.07-2.67.26-4.84.43-4.83a20.55,20.55,0,0,1,.16,4.85A20.52,20.52,0,0,1,414,89.55Z" style="fill:#e0e0e0"></path><path d="M412,79.07a1.39,1.39,0,0,1,.23-.42,2.89,2.89,0,0,1,1.07-.89,4.78,4.78,0,0,1,2.19-.46,8.14,8.14,0,0,1,2.92.66,23.57,23.57,0,0,0,3.39,1.17,8.1,8.1,0,0,0,7.78-2.84,4.14,4.14,0,0,0,1-2.13,1.61,1.61,0,0,0-1.05-1.77l-.84-.2.79-.34a6.05,6.05,0,0,0,3.14-3.12,5.15,5.15,0,0,0-.09-4.59,5,5,0,0,0-5.65-2.7,4.85,4.85,0,0,0-3.54,4.64l0,.83-.52-.64a2.35,2.35,0,0,0-2.4-.67,3.12,3.12,0,0,0-2,1.46,6.36,6.36,0,0,0-.4,4.65l.07.31-.3,0a6.35,6.35,0,0,0-4,.67,7.07,7.07,0,0,0-2.36,2A8.27,8.27,0,0,0,410.3,77a3,3,0,0,1,.12-.69,6.18,6.18,0,0,1,.87-1.84,7.22,7.22,0,0,1,2.4-2.15,6.66,6.66,0,0,1,4.19-.79l-.24.25a6.82,6.82,0,0,1,.38-5,3.65,3.65,0,0,1,2.32-1.71,2.88,2.88,0,0,1,2.94.83l-.48.18a5.38,5.38,0,0,1,3.92-5.22,5,5,0,0,1,3.63.35,6.21,6.21,0,0,1,2.7,2.62,5.75,5.75,0,0,1,.1,5.11,6.58,6.58,0,0,1-3.45,3.4l-.05-.53a2.17,2.17,0,0,1,1.48,2.38,4.72,4.72,0,0,1-1.14,2.4,8.46,8.46,0,0,1-4,2.7,8.21,8.21,0,0,1-4.29.22,22.57,22.57,0,0,1-3.43-1.25,8.05,8.05,0,0,0-2.79-.72,4.74,4.74,0,0,0-2.1.36A3.71,3.71,0,0,0,412,79.07Z" style="fill:#e0e0e0"></path><path d="M399,111.19a11.69,11.69,0,0,1-.19-3.68,11.62,11.62,0,0,1,.39-3.66,11.69,11.69,0,0,1,.19,3.68A11.74,11.74,0,0,1,399,111.19Z" style="fill:#e0e0e0"></path><path d="M408.3,103.5a35.94,35.94,0,0,1-9.11-.24,35.94,35.94,0,0,1,9.11.24Z" style="fill:#e0e0e0"></path><path d="M407.76,112.6a19.13,19.13,0,0,1-.17-4.71,19.27,19.27,0,0,1,.42-4.69,19.08,19.08,0,0,1,.17,4.71A19.27,19.27,0,0,1,407.76,112.6Z" style="fill:#e0e0e0"></path><path d="M413.32,94.06s.22,0,.52.21a2.28,2.28,0,0,1,.85,1.27,2.63,2.63,0,0,1-.38,2.26,2.61,2.61,0,0,1-4.52-1.35,2.61,2.61,0,0,1,.93-2.1,2.31,2.31,0,0,1,1.41-.59c.36,0,.55.08.54.11a3,3,0,0,0-1.67.78,2.3,2.3,0,0,0-.67,1.75,2.1,2.1,0,0,0,3.56,1.06,2.27,2.27,0,0,0,.4-1.83A3.08,3.08,0,0,0,413.32,94.06Z" style="fill:#e0e0e0"></path><path d="M392.3,95.09a2.59,2.59,0,0,0-.2,1.43,1.74,1.74,0,0,0,.82,1.17,1.46,1.46,0,0,0,1.62-.25,1.48,1.48,0,0,0,.54-1.55,1.72,1.72,0,0,0-1-1,2.68,2.68,0,0,0-1.44-.06s.08-.16.35-.28a1.73,1.73,0,0,1,1.22,0,2.07,2.07,0,0,1,1.39,1.23,2.09,2.09,0,0,1-2.93,2.45,2,2,0,0,1-1-1.58,1.83,1.83,0,0,1,.27-1.2C392.12,95.14,392.28,95.07,392.3,95.09Z" style="fill:#e0e0e0"></path><path d="M387.16,68.64s.1,0,.3-.06a3.43,3.43,0,0,1,.88,0,5,5,0,0,1,2.82,1.56,5.13,5.13,0,0,1,1.16,2,4.52,4.52,0,0,1,0,2.63,5.29,5.29,0,0,1-4.55,3.54,4.26,4.26,0,0,1-3-.93A5.25,5.25,0,0,1,383.12,75a4.9,4.9,0,0,1-.19-2.61,4.22,4.22,0,0,1,1.07-2,4.67,4.67,0,0,1,2.87-1.46,2.13,2.13,0,0,1,1.18.08s-.43,0-1.15.14a4.7,4.7,0,0,0-2.59,1.52,4.1,4.1,0,0,0-.68,4.18,4.18,4.18,0,0,0,4.11,2.9,4.79,4.79,0,0,0,4.07-3.13,4.28,4.28,0,0,0-1-4.14,4.91,4.91,0,0,0-2.56-1.61C387.58,68.66,387.16,68.7,387.16,68.64Z" style="fill:#e0e0e0"></path><path d="M387,84.13c-.16,0-.32-.91-.36-2s.06-2.06.22-2.07.32.91.36,2S387.15,84.13,387,84.13Z" style="fill:#e0e0e0"></path><path d="M382,77.53c.1.12-.42.73-1.16,1.36s-1.44,1-1.55.92.42-.74,1.17-1.37S381.85,77.4,382,77.53Z" style="fill:#e0e0e0"></path><path d="M381.2,72.51c.07.14-.78.68-2,.81s-2.16-.18-2.13-.33,1-.12,2.07-.25S381.13,72.36,381.2,72.51Z" style="fill:#e0e0e0"></path><path d="M384,68.46c0,.15-1.18-.1-2.14-1.11s-1.17-2.16-1-2.19.58.89,1.44,1.78S384,68.3,384,68.46Z" style="fill:#e0e0e0"></path><path d="M387.58,63c.16,0,.33.91.37,2.05s-.05,2.06-.21,2.07-.33-.91-.37-2S387.42,63,387.58,63Z" style="fill:#e0e0e0"></path><path d="M394.84,68.17c.11.12-.34.73-1,1.36s-1.29,1-1.41.93.34-.72,1-1.36S394.72,68.06,394.84,68.17Z" style="fill:#e0e0e0"></path><path d="M399.12,73a9.63,9.63,0,0,1-4.72.47,10,10,0,0,1,4.72-.47Z" style="fill:#e0e0e0"></path><path d="M395.12,79.64c-.1.13-.77-.25-1.48-.83s-1.21-1.17-1.11-1.29.77.24,1.48.83S395.22,79.52,395.12,79.64Z" style="fill:#e0e0e0"></path></g><g id="freepik--Floor--inject-5"><path d="M467,449.91c0,.14-97.15.26-217,.26s-217-.12-217-.26,97.13-.26,217-.26S467,449.77,467,449.91Z" style="fill:#263238"></path></g><g id="freepik--speech-bubble--inject-5"><path d="M286.73,160.65,286,152.6a25.73,25.73,0,1,1,8.31,4h0Z" style="fill:#fff"></path><path d="M286.73,160.65l.48-.24,1.45-.74,5.76-3a.11.11,0,0,0,0-.15.1.1,0,0,0,0,0h0l-.09.21A25.69,25.69,0,0,0,307,157a25.15,25.15,0,0,0,7.64-3.16,25.56,25.56,0,0,0,7-6.22,25.87,25.87,0,0,0-9-39,25.62,25.62,0,0,0-12.17-2.67,26.26,26.26,0,0,0-11.51,3,25.7,25.7,0,0,0-8.49,7.31A25.88,25.88,0,0,0,277.82,143a25.45,25.45,0,0,0,8.16,9.7l-.05-.07c.25,2.61.45,4.63.58,6,.07.65.12,1.16.16,1.52s.06.5.06.5l0-.55c0-.37-.06-.89-.11-1.55-.1-1.38-.25-3.38-.44-6a.09.09,0,0,0,0-.08,25.54,25.54,0,0,1-5.28-36,25.32,25.32,0,0,1,8.35-7.16,25.93,25.93,0,0,1,11.29-3,25.1,25.1,0,0,1,11.92,2.63,25.44,25.44,0,0,1,2.1,44.44,25.09,25.09,0,0,1-7.52,3.16,25.67,25.67,0,0,1-12.58-.18.11.11,0,0,0-.14.08.13.13,0,0,0,.05.13h0v-.19l-5.62,3.06-1.46.81C286.9,160.54,286.73,160.65,286.73,160.65Z" style="fill:#263238"></path><path d="M303.79,119.73l-.88,13a2.17,2.17,0,0,1-2.1,2h0a2.21,2.21,0,0,1-2.37-1.88l-1.53-13.11a1.7,1.7,0,0,1,1.77-1.85l3.38,0A1.71,1.71,0,0,1,303.79,119.73Z" style="fill:#582F71"></path><path d="M298,143a3.42,3.42,0,0,0,4.26,2,3.15,3.15,0,0,0,2.14-4,3.42,3.42,0,0,0-4.26-2A3.15,3.15,0,0,0,298,143Z" style="fill:#582F71"></path></g><g id="freepik--height-meter--inject-5"><path d="M379.24,258.64c13.56-4.47,24.66-15.37,30.18-28.53s5.62-28.35,1.11-41.9-13.48-25.42-24.7-34.24a69.56,69.56,0,0,0-15.74,42.69l15.39,6.44a34.46,34.46,0,0,1-13.73,4,253.36,253.36,0,0,0-.07,32.37l13.65,3-12.12,3.69,4.42,12.42,1.46-.81" style="fill:#455a64"></path><path d="M392.93,178.27a4.6,4.6,0,0,1,.32.77l.84,2.24c.18.49.38,1,.59,1.62s.37,1.26.58,2c.38,1.42.91,3,1.24,4.85l.6,2.85c.2,1,.3,2,.46,3.12.37,2.16.49,4.49.67,6.94A79.78,79.78,0,0,1,393.42,234c-.91,2.29-1.72,4.48-2.71,6.42-.48,1-.9,2-1.38,2.84s-1,1.74-1.43,2.55c-.86,1.64-1.84,3-2.64,4.25-.41.61-.77,1.19-1.14,1.71l-1.05,1.37L381.61,255a4.84,4.84,0,0,1-.54.63,4.41,4.41,0,0,1,.45-.7l1.39-1.93,1-1.4c.35-.51.7-1.1,1.1-1.72.77-1.25,1.73-2.62,2.56-4.27l1.39-2.55c.48-.89.88-1.86,1.35-2.84,1-1.94,1.76-4.13,2.64-6.4a88.73,88.73,0,0,0,3.92-15.36,90.19,90.19,0,0,0,.87-15.83c-.17-2.44-.27-4.76-.61-6.9-.16-1.08-.25-2.12-.44-3.11s-.38-1.94-.56-2.85c-.3-1.82-.8-3.42-1.16-4.84-.2-.71-.35-1.38-.54-2s-.38-1.13-.54-1.63c-.31-1-.56-1.7-.74-2.26A4.18,4.18,0,0,1,392.93,178.27Z" style="fill:#263238"></path><g style="opacity:0.2"><path d="M379.24,258.64c13.56-4.47,24.66-15.37,30.18-28.53s5.62-28.35,1.11-41.9-13.48-25.42-24.7-34.24a69.56,69.56,0,0,0-15.74,42.69l15.39,6.44a34.46,34.46,0,0,1-13.73,4,253.36,253.36,0,0,0-.07,32.37l13.65,3-12.12,3.69,4.42,12.42,1.46-.81"></path></g><path d="M387.51,256.69c1.05-14.24,8.94-27.65,20.37-36.19s26.15-12.32,40.38-11.22,27.93,6.91,39.21,15.67a69.58,69.58,0,0,1-37.61,25.61l-10-13.37a34.43,34.43,0,0,0-.56,14.29,252.89,252.89,0,0,1-31.39,7.9q-3.12-6.25-6.25-12.5L401,259.53l-13.11-1.29c.14-.53.29-1.07.43-1.61" style="fill:#455a64"></path><path d="M462.17,223.94a4.87,4.87,0,0,1-.84,0l-2.37-.17-1.72-.14c-.63,0-1.31,0-2,0-1.47,0-3.14-.11-5,0l-2.89.14c-1,.06-2.05.22-3.13.34-2.16.18-4.44.65-6.84,1.08a81.25,81.25,0,0,0-29.1,12.19c-2,1.41-3.92,2.71-5.57,4.12-.84.69-1.69,1.32-2.43,2l-2.14,2c-1.39,1.22-2.49,2.48-3.52,3.53-.5.53-1,1-1.41,1.48l-1.1,1.32-1.55,1.81a4.65,4.65,0,0,1-.57.61,6.61,6.61,0,0,1,.49-.67c.36-.47.85-1.1,1.47-1.88l1.07-1.35c.41-.48.89-1,1.39-1.52,1-1.07,2.09-2.36,3.48-3.59l2.12-2c.75-.69,1.59-1.32,2.42-2,1.65-1.43,3.58-2.75,5.58-4.18a79.75,79.75,0,0,1,29.28-12.26c2.42-.42,4.71-.87,6.89-1,1.08-.11,2.13-.26,3.14-.31l2.91-.11c1.85-.12,3.53,0,5,0,.73,0,1.42,0,2.05.09l1.71.18,2.38.27A6.07,6.07,0,0,1,462.17,223.94Z" style="fill:#263238"></path><path d="M387.83,259.37c-21.94,34.46-23.11,81.09-2.93,116.6a170.09,170.09,0,0,1-33.69-.37,152.58,152.58,0,0,1,24-122.19" style="fill:#ae7461"></path><path d="M381.11,261.93c6.74-12.58,7.26-28.13,2.19-41.47s-15.49-24.41-28.1-31.1-27.29-9.12-41.5-7.77a69.57,69.57,0,0,0,18,41.77l15.59-6a34.56,34.56,0,0,1-7.18,12.37,252,252,0,0,0,22.27,23.48l12-7.21q-3.11,5.52-6.23,11L379.93,263l.49-1.59" style="fill:#455a64"></path><path d="M335.61,194.3a4,4,0,0,1,.76.33l2.15,1,1.54.77c.56.29,1.14.66,1.78,1,1.26.76,2.74,1.55,4.24,2.65l2.4,1.65c.83.58,1.63,1.27,2.49,1.94,1.75,1.31,3.45,2.92,5.26,4.57a86.31,86.31,0,0,1,10.39,12.11,87.24,87.24,0,0,1,7.77,13.93c.92,2.28,1.84,4.42,2.47,6.52.32,1,.7,2,.95,3s.5,1.92.73,2.82c.51,1.78.74,3.45,1,4.9.12.72.26,1.4.35,2l.18,1.72.24,2.37a4.71,4.71,0,0,1,.05.83,4.64,4.64,0,0,1-.15-.82c-.09-.58-.2-1.37-.34-2.36-.07-.51-.14-1.08-.23-1.7s-.25-1.29-.39-2c-.31-1.43-.56-3.09-1.09-4.86l-.75-2.8c-.27-1-.65-2-1-3-.64-2.08-1.58-4.21-2.5-6.47a81.53,81.53,0,0,0-18.05-25.88c-1.8-1.65-3.47-3.26-5.2-4.58-.85-.67-1.64-1.37-2.46-2l-2.36-1.68c-1.48-1.11-2.95-1.92-4.19-2.7-.63-.38-1.2-.76-1.75-1.07l-1.52-.8-2.1-1.13A5.9,5.9,0,0,1,335.61,194.3Z" style="fill:#263238"></path><path d="M379.6,259.46c10.45-9.73,25.35-14.21,39.54-12.71s27.56,8.74,37.25,19.22,15.79,24,18.11,38.14a69.61,69.61,0,0,1-45-6.77l1.77-16.59a34.55,34.55,0,0,0-10.12,10.1,251.18,251.18,0,0,1-28.4-15.53q2-6.7,3.91-13.42-4.53,4.43-9.07,8.84l-8.75-9.86,1.42-.88" style="fill:#455a64"></path><path d="M456.62,286.17a5.2,5.2,0,0,1-.59-.58l-1.63-1.74-1.16-1.27c-.44-.45-.95-.9-1.48-1.41-1.07-1-2.23-2.21-3.68-3.36L445.85,276c-.77-.64-1.65-1.23-2.51-1.88-1.72-1.33-3.7-2.54-5.76-3.86a81.47,81.47,0,0,0-29.64-10.83c-2.42-.32-4.71-.68-6.88-.76-1.08-.06-2.13-.18-3.14-.19H395c-1.84-.06-3.51.12-5,.19-.74.05-1.42.07-2.05.13l-1.7.21-2.37.29a5.69,5.69,0,0,1-.83.06,4.35,4.35,0,0,1,.81-.17l2.36-.38,1.71-.26c.62-.07,1.31-.11,2-.17,1.47-.1,3.14-.31,5-.27l2.91,0c1,0,2.07.1,3.16.16,2.18.07,4.49.41,6.93.72a79.92,79.92,0,0,1,29.81,10.89c2.06,1.34,4.05,2.57,5.76,3.92.87.67,1.74,1.26,2.52,1.92s1.5,1.29,2.21,1.89c1.44,1.17,2.59,2.41,3.65,3.43.52.52,1,1,1.45,1.45l1.13,1.3,1.56,1.81A4.5,4.5,0,0,1,456.62,286.17Z" style="fill:#263238"></path><path d="M264.93,272.18c-1.39-1.21-3.15-2.35-4.95-2-1.64.33-2.77,1.8-3.58,3.26-2,3.7-2.88,9.36-2.57,13.58l18.77-4.92A31.81,31.81,0,0,0,264.93,272.18Z" style="fill:#582F71"></path><g style="opacity:0.30000000000000004"><path d="M264.93,272.18c-1.39-1.21-3.15-2.35-4.95-2-1.64.33-2.77,1.8-3.58,3.26-2,3.7-2.88,9.36-2.57,13.58l18.77-4.92A31.81,31.81,0,0,0,264.93,272.18Z"></path></g><path d="M293.76,268.18c-1.14-1.46-2.63-2.92-4.48-2.9-1.67,0-3.06,1.24-4.13,2.52-2.72,3.23-4.63,8.63-5.13,12.83l19.36-1.23A31.53,31.53,0,0,0,293.76,268.18Z" style="fill:#582F71"></path><g style="opacity:0.30000000000000004"><path d="M293.76,268.18c-1.14-1.46-2.63-2.92-4.48-2.9-1.67,0-3.06,1.24-4.13,2.52-2.72,3.23-4.63,8.63-5.13,12.83l19.36-1.23A31.53,31.53,0,0,0,293.76,268.18Z"></path></g><path d="M323.23,273.26c-.67-1.72-1.68-3.56-3.45-4.07-1.6-.46-3.29.31-4.68,1.22-3.54,2.32-6.92,6.94-8.61,10.81l18.9,4.4A31.82,31.82,0,0,0,323.23,273.26Z" style="fill:#582F71"></path><g style="opacity:0.30000000000000004"><path d="M323.23,273.26c-.67-1.72-1.68-3.56-3.45-4.07-1.6-.46-3.29.31-4.68,1.22-3.54,2.32-6.92,6.94-8.61,10.81l18.9,4.4A31.82,31.82,0,0,0,323.23,273.26Z"></path></g><path d="M349,290.88c.18-1.84.11-3.93-1.24-5.19s-3.07-1.22-4.73-1c-4.2.46-9.31,3.05-12.57,5.74l14.86,12.48A31.65,31.65,0,0,0,349,290.88Z" style="fill:#582F71"></path><g style="opacity:0.30000000000000004"><path d="M349,290.88c.18-1.84.11-3.93-1.24-5.19s-3.07-1.22-4.73-1c-4.2.46-9.31,3.05-12.57,5.74l14.86,12.48A31.65,31.65,0,0,0,349,290.88Z"></path></g><path d="M366.62,312.73c.73-1.69,1.3-3.71.4-5.32s-2.55-2.09-4.18-2.43c-4.14-.84-9.8.07-13.73,1.63L359.45,323A31.7,31.7,0,0,0,366.62,312.73Z" style="fill:#582F71"></path><g style="opacity:0.30000000000000004"><path d="M366.62,312.73c.73-1.69,1.3-3.71.4-5.32s-2.55-2.09-4.18-2.43c-4.14-.84-9.8.07-13.73,1.63L359.45,323A31.7,31.7,0,0,0,366.62,312.73Z"></path></g><path d="M378.27,341.12c1.18-1.42,2.29-3.2,1.88-5-.37-1.62-1.86-2.72-3.34-3.5-3.73-2-9.42-2.69-13.62-2.29l5.3,18.66A31.75,31.75,0,0,0,378.27,341.12Z" style="fill:#582F71"></path><g style="opacity:0.30000000000000004"><path d="M378.27,341.12c1.18-1.42,2.29-3.2,1.88-5-.37-1.62-1.86-2.72-3.34-3.5-3.73-2-9.42-2.69-13.62-2.29l5.3,18.66A31.75,31.75,0,0,0,378.27,341.12Z"></path></g><path d="M389.16,363.27c.57-1.75.95-3.81-.1-5.34-.94-1.37-2.73-1.84-4.39-2-4.2-.46-9.75,1-13.51,2.89L383,374.19A31.84,31.84,0,0,0,389.16,363.27Z" style="fill:#582F71"></path><g style="opacity:0.30000000000000004"><path d="M389.16,363.27c.57-1.75.95-3.81-.1-5.34-.94-1.37-2.73-1.84-4.39-2-4.2-.46-9.75,1-13.51,2.89L383,374.19A31.84,31.84,0,0,0,389.16,363.27Z"></path></g><path d="M409.77,383.4c-.08-1.84-.46-3.9-2-5-1.36-.95-3.21-.75-4.82-.33-4.09,1.06-8.77,4.37-11.61,7.5l16.51,10.19A31.72,31.72,0,0,0,409.77,383.4Z" style="fill:#582F71"></path><g style="opacity:0.30000000000000004"><path d="M409.77,383.4c-.08-1.84-.46-3.9-2-5-1.36-.95-3.21-.75-4.82-.33-4.09,1.06-8.77,4.37-11.61,7.5l16.51,10.19A31.72,31.72,0,0,0,409.77,383.4Z"></path></g><path d="M438.72,386.62c-1.34-1.27-3-2.51-4.85-2.22-1.65.25-2.85,1.67-3.73,3.08-2.23,3.59-3.34,9.21-3.24,13.44l19-4A32,32,0,0,0,438.72,386.62Z" style="fill:#582F71"></path><g style="opacity:0.30000000000000004"><path d="M438.72,386.62c-1.34-1.27-3-2.51-4.85-2.22-1.65.25-2.85,1.67-3.73,3.08-2.23,3.59-3.34,9.21-3.24,13.44l19-4A32,32,0,0,0,438.72,386.62Z"></path></g><path d="M469.29,379.06c-1.33-1.28-3-2.51-4.85-2.23-1.65.26-2.85,1.67-3.73,3.09-2.23,3.59-3.34,9.21-3.24,13.43l19-4A31.76,31.76,0,0,0,469.29,379.06Z" style="fill:#582F71"></path><g style="opacity:0.30000000000000004"><path d="M469.29,379.06c-1.33-1.28-3-2.51-4.85-2.23-1.65.26-2.85,1.67-3.73,3.09-2.23,3.59-3.34,9.21-3.24,13.43l19-4A31.76,31.76,0,0,0,469.29,379.06Z"></path></g><path d="M208.4,24.66c-.72-1.7-1.78-3.5-3.56-4-1.61-.43-3.28.39-4.65,1.34-3.48,2.4-6.74,7.11-8.33,11l19,3.92A31.93,31.93,0,0,0,208.4,24.66Z" style="fill:#582F71"></path><g style="opacity:0.30000000000000004"><path d="M208.4,24.66c-.72-1.7-1.78-3.5-3.56-4-1.61-.43-3.28.39-4.65,1.34-3.48,2.4-6.74,7.11-8.33,11l19,3.92A31.93,31.93,0,0,0,208.4,24.66Z"></path></g><path d="M233.69,46.11c.71-1.7,1.26-3.72.35-5.32-.82-1.45-2.57-2.07-4.2-2.39-4.15-.81-9.8.15-13.71,1.75l10.48,16.33A31.94,31.94,0,0,0,233.69,46.11Z" style="fill:#582F71"></path><g style="opacity:0.30000000000000004"><path d="M233.69,46.11c.71-1.7,1.26-3.72.35-5.32-.82-1.45-2.57-2.07-4.2-2.39-4.15-.81-9.8.15-13.71,1.75l10.48,16.33A31.94,31.94,0,0,0,233.69,46.11Z"></path></g><path d="M240.61,73.41c1.37-1.23,2.72-2.83,2.58-4.67-.13-1.66-1.45-3-2.8-3.94-3.42-2.49-8.94-4-13.16-4.24L229.8,79.8A31.75,31.75,0,0,0,240.61,73.41Z" style="fill:#582F71"></path><g style="opacity:0.30000000000000004"><path d="M240.61,73.41c1.37-1.23,2.72-2.83,2.58-4.67-.13-1.66-1.45-3-2.8-3.94-3.42-2.49-8.94-4-13.16-4.24L229.8,79.8A31.75,31.75,0,0,0,240.61,73.41Z"></path></g><path d="M230.3,101.16c1.84.08,3.92-.1,5.11-1.51s1.05-3.14.78-4.78c-.69-4.17-3.55-9.13-6.41-12.25L218.12,98.13A31.56,31.56,0,0,0,230.3,101.16Z" style="fill:#582F71"></path><g style="opacity:0.30000000000000004"><path d="M230.3,101.16c1.84.08,3.92-.1,5.11-1.51s1.05-3.14.78-4.78c-.69-4.17-3.55-9.13-6.41-12.25L218.12,98.13A31.56,31.56,0,0,0,230.3,101.16Z"></path></g><path d="M232.47,120.64c1.39-1.21,2.77-2.78,2.66-4.62-.1-1.66-1.4-3-2.72-4-3.37-2.55-8.86-4.18-13.08-4.47l2.22,19.28A31.84,31.84,0,0,0,232.47,120.64Z" style="fill:#582F71"></path><g style="opacity:0.30000000000000004"><path d="M232.47,120.64c1.39-1.21,2.77-2.78,2.66-4.62-.1-1.66-1.4-3-2.72-4-3.37-2.55-8.86-4.18-13.08-4.47l2.22,19.28A31.84,31.84,0,0,0,232.47,120.64Z"></path></g><path d="M233,148.65c1.39-1.21,2.77-2.78,2.66-4.63-.1-1.66-1.4-3-2.72-4-3.37-2.56-8.86-4.19-13.08-4.47l2.22,19.27A31.65,31.65,0,0,0,233,148.65Z" style="fill:#582F71"></path><g style="opacity:0.30000000000000004"><path d="M233,148.65c1.39-1.21,2.77-2.78,2.66-4.63-.1-1.66-1.4-3-2.72-4-3.37-2.56-8.86-4.19-13.08-4.47l2.22,19.27A31.65,31.65,0,0,0,233,148.65Z"></path></g><path d="M233.61,176.65c1.39-1.21,2.77-2.78,2.66-4.62-.1-1.66-1.4-3-2.72-4-3.37-2.55-8.86-4.18-13.08-4.47l2.22,19.28A31.84,31.84,0,0,0,233.61,176.65Z" style="fill:#582F71"></path><g style="opacity:0.30000000000000004"><path d="M233.61,176.65c1.39-1.21,2.77-2.78,2.66-4.62-.1-1.66-1.4-3-2.72-4-3.37-2.55-8.86-4.18-13.08-4.47l2.22,19.28A31.84,31.84,0,0,0,233.61,176.65Z"></path></g><path d="M234.18,204.66c1.39-1.21,2.77-2.78,2.66-4.62-.1-1.67-1.4-3-2.72-4-3.37-2.56-8.86-4.18-13.08-4.47l2.22,19.27A31.65,31.65,0,0,0,234.18,204.66Z" style="fill:#582F71"></path><g style="opacity:0.30000000000000004"><path d="M234.18,204.66c1.39-1.21,2.77-2.78,2.66-4.62-.1-1.67-1.4-3-2.72-4-3.37-2.56-8.86-4.18-13.08-4.47l2.22,19.27A31.65,31.65,0,0,0,234.18,204.66Z"></path></g><path d="M234.75,232.66c1.39-1.21,2.77-2.78,2.66-4.62-.1-1.66-1.4-3-2.72-4-3.37-2.55-8.86-4.18-13.08-4.47l2.22,19.28A31.84,31.84,0,0,0,234.75,232.66Z" style="fill:#582F71"></path><g style="opacity:0.30000000000000004"><path d="M234.75,232.66c1.39-1.21,2.77-2.78,2.66-4.62-.1-1.66-1.4-3-2.72-4-3.37-2.55-8.86-4.18-13.08-4.47l2.22,19.28A31.84,31.84,0,0,0,234.75,232.66Z"></path></g><path d="M235.32,260.67c1.39-1.21,2.77-2.78,2.66-4.62-.1-1.67-1.4-3-2.72-4-3.37-2.55-8.86-4.18-13.08-4.47l2.22,19.27A31.65,31.65,0,0,0,235.32,260.67Z" style="fill:#582F71"></path><g style="opacity:0.30000000000000004"><path d="M235.32,260.67c1.39-1.21,2.77-2.78,2.66-4.62-.1-1.67-1.4-3-2.72-4-3.37-2.55-8.86-4.18-13.08-4.47l2.22,19.27A31.65,31.65,0,0,0,235.32,260.67Z"></path></g><path d="M235.89,288.67c1.39-1.21,2.77-2.78,2.66-4.62-.1-1.66-1.39-3-2.72-4-3.37-2.55-8.86-4.18-13.08-4.47L225,294.86A31.68,31.68,0,0,0,235.89,288.67Z" style="fill:#582F71"></path><g style="opacity:0.30000000000000004"><path d="M235.89,288.67c1.39-1.21,2.77-2.78,2.66-4.62-.1-1.66-1.39-3-2.72-4-3.37-2.55-8.86-4.18-13.08-4.47L225,294.86A31.68,31.68,0,0,0,235.89,288.67Z"></path></g><path d="M165.34,51.34a10.57,10.57,0,0,1-8.79,7.41C147,60.06,132.28,65,133,83.28c1.09,27,38.25,24.41,44.08,24s41.17-9.83,41.17-9.83,18.21-9.84,10.93-35.7S202.5,31,187,33.31C176.9,34.81,168,42.09,165.34,51.34Z" style="fill:#582F71"></path><polygon points="177.1 107.33 170.58 327.03 230.92 336.21 220.53 87.32 177.1 107.33" style="fill:#582F71"></polygon><path d="M280.32,387.73l-17.66,49.92s30.12,16.51,43.17,13l33.81-58.72S299.9,353.91,280.32,387.73Z" style="fill:#582F71"></path><g style="opacity:0.30000000000000004"><path d="M280.32,387.73l-17.66,49.92s30.12,16.51,43.17,13l33.81-58.72S299.9,353.91,280.32,387.73Z"></path></g><path d="M257.55,435.51a12.26,12.26,0,0,1,6-3.72,5.75,5.75,0,0,1,3.48,0,5,5,0,0,1,2.69,2.81,15.15,15.15,0,0,1,.88,3.89,4,4,0,0,1,0,1.57,1.36,1.36,0,0,1-1.05,1.05,1.91,1.91,0,0,1-.88-.15,58.88,58.88,0,0,1-11.08-5.41" style="fill:#263238"></path><path d="M268.33,440.69a12.33,12.33,0,0,1,6-3.73,5.7,5.7,0,0,1,3.49,0,5,5,0,0,1,2.69,2.81,15,15,0,0,1,.88,3.88,4.36,4.36,0,0,1,0,1.57,1.39,1.39,0,0,1-1.05,1.06,2,2,0,0,1-.88-.15,60.22,60.22,0,0,1-11.09-5.41" style="fill:#263238"></path><path d="M170.58,327c.8,2.42-11.31,95.29,90.44,84s112.25-34.72,112.25-34.72,0-91.07-74.8-97.83c0,0-59.31-4.15-70.62,31.38Z" style="fill:#582F71"></path><path d="M418.07,397.37c-16.6-3.16-29.71-16.12-38.82-30.35s-15.3-30.17-24.51-44.34l-16.55,64a92.85,92.85,0,0,0,143.24,1.64C460,388.82,439.17,401.38,418.07,397.37Z" style="fill:#582F71"></path><path d="M218,387.73l-17.67,49.92s30.12,16.51,43.18,13l33.81-58.72S237.57,353.91,218,387.73Z" style="fill:#582F71"></path><path d="M291,391.28c.44,1.73,8.31,56.8,54,59.84L355,407.89,330.11,372S280.88,351.54,291,391.28Z" style="fill:#582F71"></path><path d="M195.22,435.51a12.31,12.31,0,0,1,6-3.72,5.78,5.78,0,0,1,3.49,0,4.94,4.94,0,0,1,2.68,2.81,14.36,14.36,0,0,1,.88,3.89,4.15,4.15,0,0,1,0,1.57,1.37,1.37,0,0,1-1.06,1.05,2,2,0,0,1-.88-.15,59.18,59.18,0,0,1-11.08-5.41" style="fill:#263238"></path><path d="M206,440.69a12.23,12.23,0,0,1,6-3.73,5.67,5.67,0,0,1,3.48,0,5,5,0,0,1,2.69,2.81,15,15,0,0,1,.88,3.88,4,4,0,0,1,0,1.57,1.37,1.37,0,0,1-1.05,1.06,2,2,0,0,1-.88-.15A60.13,60.13,0,0,1,206,440.69" style="fill:#263238"></path><circle cx="193.27" cy="68.61" r="15.58" style="fill:#fff"></circle><rect x="187.47" y="176.04" width="11.19" height="0.75" style="fill:#fff"></rect><rect x="187.34" y="179.94" width="4.42" height="0.75" style="fill:#fff"></rect><rect x="187.34" y="183.26" width="4.42" height="0.75" style="fill:#fff"></rect><rect x="187.34" y="186.58" width="4.42" height="0.75" style="fill:#fff"></rect><rect x="187.34" y="189.9" width="4.42" height="0.75" style="fill:#fff"></rect><rect x="187.34" y="193.22" width="7.2" height="0.75" style="fill:#fff"></rect><rect x="187.34" y="196.54" width="4.42" height="0.75" style="fill:#fff"></rect><rect x="187.34" y="199.86" width="4.42" height="0.75" style="fill:#fff"></rect><rect x="187.34" y="203.18" width="4.42" height="0.75" style="fill:#fff"></rect><rect x="187.34" y="206.5" width="4.42" height="0.75" style="fill:#fff"></rect><rect x="187.34" y="209.82" width="11.86" height="0.75" style="fill:#fff"></rect><rect x="187.34" y="213.12" width="4.42" height="0.75" style="fill:#fff"></rect><rect x="187.34" y="216.44" width="4.42" height="0.75" style="fill:#fff"></rect><rect x="187.34" y="219.76" width="4.42" height="0.75" style="fill:#fff"></rect><rect x="187.34" y="223.08" width="4.42" height="0.75" style="fill:#fff"></rect><rect x="187.34" y="226.4" width="7.2" height="0.75" style="fill:#fff"></rect><rect x="187.34" y="229.72" width="4.42" height="0.75" style="fill:#fff"></rect><rect x="187.34" y="233.04" width="4.42" height="0.75" style="fill:#fff"></rect><rect x="187.34" y="236.36" width="4.42" height="0.75" style="fill:#fff"></rect><rect x="187.34" y="239.68" width="4.42" height="0.75" style="fill:#fff"></rect><rect x="187.34" y="243.01" width="11.86" height="0.75" style="fill:#fff"></rect><rect x="187.34" y="246.42" width="4.42" height="0.75" style="fill:#fff"></rect><rect x="187.34" y="249.74" width="4.42" height="0.75" style="fill:#fff"></rect><rect x="187.34" y="253.06" width="4.42" height="0.75" style="fill:#fff"></rect><rect x="187.34" y="256.38" width="4.42" height="0.75" style="fill:#fff"></rect><rect x="187.34" y="259.7" width="7.2" height="0.75" style="fill:#fff"></rect><rect x="187.34" y="263.02" width="4.42" height="0.75" style="fill:#fff"></rect><rect x="187.34" y="266.34" width="4.42" height="0.75" style="fill:#fff"></rect><rect x="187.34" y="269.67" width="4.42" height="0.75" style="fill:#fff"></rect><rect x="187.34" y="272.99" width="4.42" height="0.75" style="fill:#fff"></rect><rect x="187.34" y="276.31" width="11.86" height="0.75" style="fill:#fff"></rect><rect x="187.34" y="279.6" width="4.42" height="0.75" style="fill:#fff"></rect><rect x="187.34" y="282.92" width="4.42" height="0.75" style="fill:#fff"></rect><rect x="187.34" y="286.24" width="4.42" height="0.75" style="fill:#fff"></rect><rect x="187.34" y="289.57" width="4.42" height="0.75" style="fill:#fff"></rect><rect x="187.34" y="292.89" width="7.2" height="0.75" style="fill:#fff"></rect><rect x="187.34" y="296.21" width="4.42" height="0.75" style="fill:#fff"></rect><rect x="187.34" y="299.53" width="4.42" height="0.75" style="fill:#fff"></rect><rect x="187.34" y="302.85" width="4.42" height="0.75" style="fill:#fff"></rect><rect x="187.34" y="306.17" width="4.42" height="0.75" style="fill:#fff"></rect><rect x="187.34" y="309.49" width="11.86" height="0.75" style="fill:#fff"></rect><rect x="187.47" y="108.43" width="11.19" height="0.75" style="fill:#fff"></rect><rect x="187.34" y="112.32" width="4.42" height="0.75" style="fill:#fff"></rect><rect x="187.34" y="115.64" width="4.42" height="0.75" style="fill:#fff"></rect><rect x="187.34" y="118.97" width="4.42" height="0.75" style="fill:#fff"></rect><rect x="187.34" y="122.29" width="4.42" height="0.75" style="fill:#fff"></rect><rect x="187.34" y="125.61" width="7.2" height="0.75" style="fill:#fff"></rect><rect x="187.34" y="128.93" width="4.42" height="0.75" style="fill:#fff"></rect><rect x="187.34" y="132.25" width="4.42" height="0.75" style="fill:#fff"></rect><rect x="187.34" y="135.57" width="4.42" height="0.75" style="fill:#fff"></rect><rect x="187.34" y="138.89" width="4.42" height="0.75" style="fill:#fff"></rect><rect x="187.34" y="142.21" width="11.86" height="0.75" style="fill:#fff"></rect><rect x="187.34" y="145.51" width="4.42" height="0.75" style="fill:#fff"></rect><rect x="187.34" y="148.83" width="4.42" height="0.75" style="fill:#fff"></rect><rect x="187.34" y="152.15" width="4.42" height="0.75" style="fill:#fff"></rect><rect x="187.34" y="155.47" width="4.42" height="0.75" style="fill:#fff"></rect><rect x="187.34" y="158.79" width="7.2" height="0.75" style="fill:#fff"></rect><rect x="187.34" y="162.11" width="4.42" height="0.75" style="fill:#fff"></rect><rect x="187.34" y="165.43" width="4.42" height="0.75" style="fill:#fff"></rect><rect x="187.34" y="168.75" width="4.42" height="0.75" style="fill:#fff"></rect><rect x="187.34" y="172.07" width="4.42" height="0.75" style="fill:#fff"></rect><path d="M186.91,82.9a14.46,14.46,0,0,0-1.64-27.57,15.56,15.56,0,0,0,1.64,27.57Z" style="fill:#263238"></path><path d="M294,406.07a2.73,2.73,0,0,1-.53-.19c-.33-.15-.84-.34-1.46-.66a37.8,37.8,0,0,1-5.07-3A40.28,40.28,0,0,1,269.62,369a38.22,38.22,0,0,1,.46-5.87c.1-.69.23-1.22.3-1.58a2.28,2.28,0,0,1,.15-.54s-.08.77-.25,2.14A44.26,44.26,0,0,0,270,369a41.15,41.15,0,0,0,17.15,33,44.92,44.92,0,0,0,5,3.11A20.57,20.57,0,0,1,294,406.07Z" style="fill:#263238"></path><path d="M355,407.89s-.08-.07-.21-.23l-.55-.7-2-2.74-7.19-9.88-.09-.12.09-.13a68,68,0,0,0,10.89-52.27c-.19-.89-.35-1.59-.46-2.13a4.08,4.08,0,0,1-.13-.75,5,5,0,0,1,.23.73c.14.53.32,1.23.56,2.1a61.64,61.64,0,0,1,1.28,7.93,66.82,66.82,0,0,1-.06,11.9,69.44,69.44,0,0,1-12,32.74v-.25l7,10,1.94,2.8c.2.3.36.54.49.75Z" style="fill:#263238"></path><path d="M208.94,411.75a1.41,1.41,0,0,1,.1-.37c.09-.28.21-.62.36-1,.32-.9.83-2.2,1.52-3.81a92.44,92.44,0,0,1,6.68-12.6v.27c-1.77-2.55-3.73-5.35-5.49-8.45a34.72,34.72,0,0,1-4.19-10.87,22.16,22.16,0,0,1,.33-9.51,15.84,15.84,0,0,1,2.82-5.76,10.24,10.24,0,0,1,1.18-1.29,2.68,2.68,0,0,1,.46-.4,2.61,2.61,0,0,1-.39.47c-.27.29-.64.74-1.09,1.34a16.72,16.72,0,0,0-2.63,5.73,22.31,22.31,0,0,0-.21,9.33,34.85,34.85,0,0,0,4.18,10.7c1.74,3.07,3.68,5.87,5.43,8.43l.09.14-.09.13a101.89,101.89,0,0,0-6.81,12.46c-.73,1.59-1.28,2.87-1.65,3.75A12.06,12.06,0,0,1,208.94,411.75Z" style="fill:#263238"></path><path d="M345.55,446.87a10.32,10.32,0,0,0-5.56-2.29c-2-.05-4.23,1.22-4.58,3.23s1.18,3.91,2.72,5.32a45.72,45.72,0,0,0,5.2,4.1.71.71,0,0,0,1.28-.53c.45-3.17.9-6.33,1.34-9.5" style="fill:#263238"></path><path d="M347.29,437.21a10.4,10.4,0,0,0-5.57-2.3c-2-.05-4.22,1.23-4.58,3.23s1.19,3.91,2.72,5.32a44,44,0,0,0,5.21,4.11c.27.18.62.37.91.21s.32-.46.36-.75c.45-3.16.9-6.33,1.34-9.49" style="fill:#263238"></path><path d="M151.16,72.25v-.2a1.88,1.88,0,0,0-.21-1,1.85,1.85,0,0,0-.52-.8,1.82,1.82,0,0,0-.8-.52,1.9,1.9,0,0,0-1-.22l-.66.09a2.55,2.55,0,0,0-1.11.65l-.39.5a2.53,2.53,0,0,0-.34,1.26v.2a1.86,1.86,0,0,0,.22,1,2.16,2.16,0,0,0,1.32,1.32,1.88,1.88,0,0,0,1,.22l.67-.09a2.5,2.5,0,0,0,1.1-.64l.39-.51a2.43,2.43,0,0,0,.34-1.26Z" style="fill:#263238"></path><path d="M140.14,75.12c3.21,0,3.22-5,0-5s-3.23,5,0,5Z" style="fill:#263238"></path><g style="opacity:0.30000000000000004"><path d="M148.66,87.61a67.62,67.62,0,0,1,17.7-8.85,12.57,12.57,0,0,1-.05,10.94c-1.74,3.35-5.47,4.46-9.24,4.49s-7.19-3-8.41-6.58"></path></g><g style="opacity:0.30000000000000004"><path d="M203.75,40.21c-1.28-1.75-4.41-3-6.79-3.49a8.73,8.73,0,0,0-6,.4,3.74,3.74,0,0,0-2.38,2.55,3,3,0,0,0,.87,2.47,6.7,6.7,0,0,0,2.27,1.46,17.42,17.42,0,0,0,10.16,1.1,3.32,3.32,0,0,0,2.55-1.52A3.06,3.06,0,0,0,203.75,40.21Z" style="fill:#fff"></path></g><g style="opacity:0.30000000000000004"><path d="M208.51,47.1a4.75,4.75,0,0,0-2.7-1.39,3.42,3.42,0,0,0-2.4.16,1.51,1.51,0,0,0-.95,1,1.18,1.18,0,0,0,.35,1,2.58,2.58,0,0,0,.9.58,7,7,0,0,0,4,.44,1.32,1.32,0,0,0,1-.61A1.22,1.22,0,0,0,208.51,47.1Z" style="fill:#fff"></path></g><g style="opacity:0.30000000000000004"><path d="M212.45,42.19a3,3,0,0,0-2.16-1.09l-.81-.28a1.71,1.71,0,0,0-1.62,1.31,2.22,2.22,0,0,0,.64,2,3.23,3.23,0,0,0,2,.89,2.28,2.28,0,0,0,1.92-.59A1.86,1.86,0,0,0,212.45,42.19Z" style="fill:#fff"></path></g><g style="opacity:0.30000000000000004"><path d="M316,293.48c-3-4-10.19-7-15.71-8.08a20.2,20.2,0,0,0-13.93.93c-2.56,1.15-5.05,3.13-5.5,5.9a7,7,0,0,0,2,5.72,15.35,15.35,0,0,0,5.25,3.37,40.14,40.14,0,0,0,23.48,2.54c2.34-.46,4.92-1.35,5.92-3.52S317.47,295.47,316,293.48Z" style="fill:#fff"></path></g><g style="opacity:0.30000000000000004"><path d="M327,309.42c-1.17-1.61-4.06-2.8-6.25-3.22a8.07,8.07,0,0,0-5.56.37,3.47,3.47,0,0,0-2.19,2.35,2.8,2.8,0,0,0,.8,2.28,6.18,6.18,0,0,0,2.1,1.34,15.89,15.89,0,0,0,9.36,1,3.07,3.07,0,0,0,2.36-1.4A2.83,2.83,0,0,0,327,309.42Z" style="fill:#fff"></path></g><g style="opacity:0.30000000000000004"><path d="M336.13,298.05c-1.14-1.54-4.95-3-6.86-3.15a4,4,0,0,0-3.75,3,5.2,5.2,0,0,0,1.47,4.76,7.65,7.65,0,0,0,4.68,2.05,5.3,5.3,0,0,0,4.46-1.37A4.32,4.32,0,0,0,336.13,298.05Z" style="fill:#fff"></path></g><g style="opacity:0.30000000000000004"><path d="M285.15,306.09c-.83-1.12-3.61-2.17-5-2.3a2.89,2.89,0,0,0-2.74,2.21,3.77,3.77,0,0,0,1.07,3.47A5.54,5.54,0,0,0,281.9,311a3.83,3.83,0,0,0,3.25-1A3.15,3.15,0,0,0,285.15,306.09Z" style="fill:#fff"></path></g><g style="opacity:0.30000000000000004"><path d="M321.63,421.3c-.72-2.26-3.52-4.69-5.84-6a9.6,9.6,0,0,0-6.41-1.69,4.13,4.13,0,0,0-3.35,1.82,3.31,3.31,0,0,0,0,2.88,7.13,7.13,0,0,0,1.85,2.31,19,19,0,0,0,10.17,4.69,3.66,3.66,0,0,0,3.19-.69A3.36,3.36,0,0,0,321.63,421.3Z" style="fill:#fff"></path></g><g style="opacity:0.30000000000000004"><path d="M324.18,430.13a5.31,5.31,0,0,0-2.33-2.39,3.81,3.81,0,0,0-2.55-.67,1.64,1.64,0,0,0-1.34.72,1.33,1.33,0,0,0,0,1.15,3,3,0,0,0,.74.92,7.65,7.65,0,0,0,4.06,1.87,1.48,1.48,0,0,0,1.27-.27A1.36,1.36,0,0,0,324.18,430.13Z" style="fill:#fff"></path></g><g style="opacity:0.30000000000000004"><path d="M330,426.4a5.9,5.9,0,0,0-2.6-2.46,1.89,1.89,0,0,0-2.14.79,2.42,2.42,0,0,0-.06,2.36,3.6,3.6,0,0,0,1.79,1.63,2.49,2.49,0,0,0,2.21.06A2,2,0,0,0,330,426.4Z" style="fill:#fff"></path></g><g style="opacity:0.30000000000000004"><path d="M216.58,423.16c2.28-.68,4.76-3.44,6.12-5.73a9.6,9.6,0,0,0,1.81-6.37,4.11,4.11,0,0,0-1.76-3.39,3.34,3.34,0,0,0-2.88,0,7.34,7.34,0,0,0-2.34,1.81,19,19,0,0,0-4.88,10.08,3.64,3.64,0,0,0,.62,3.2A3.37,3.37,0,0,0,216.58,423.16Z" style="fill:#fff"></path></g><g style="opacity:0.30000000000000004"><path d="M227.25,421.88a5.39,5.39,0,0,0,2.44-2.28,3.86,3.86,0,0,0,.72-2.54,1.66,1.66,0,0,0-.7-1.35,1.29,1.29,0,0,0-1.15,0,3,3,0,0,0-.93.72,7.46,7.46,0,0,0-1.95,4,1.47,1.47,0,0,0,.25,1.28A1.36,1.36,0,0,0,227.25,421.88Z" style="fill:#fff"></path></g><g style="opacity:0.30000000000000004"><path d="M221.7,427a6.06,6.06,0,0,0,2.5-2.56,1.87,1.87,0,0,0-.75-2.16,2.47,2.47,0,0,0-2.36-.1,3.64,3.64,0,0,0-1.66,1.76,2.5,2.5,0,0,0-.1,2.21A2.06,2.06,0,0,0,221.7,427Z" style="fill:#fff"></path></g><path d="M197.36,44.9a5.23,5.23,0,0,1-3,3.23A14.92,14.92,0,0,1,189,49.6a15.18,15.18,0,0,1-5.5-.36A5.24,5.24,0,0,1,180,46.68c-.59-1.3-.17-3,1.26-4.43a11.91,11.91,0,0,1,14-1.43C196.93,42,197.67,43.51,197.36,44.9Z" style="fill:#263238"></path><path d="M207.94,310.14c0,1.09-.8,2-2.56,2a4.29,4.29,0,0,1-2.35-.66l.57-1.09a2.94,2.94,0,0,0,1.74.56c.72,0,1.16-.3,1.16-.8s-.32-.8-1.44-.8h-1.57l.32-3.47h3.75v1.15H205l-.09,1.16h.5C207.22,308.23,207.94,309.05,207.94,310.14Z" style="fill:#fff"></path><path d="M208.52,309c0-2,1.12-3.18,2.63-3.18s2.64,1.15,2.64,3.18-1.12,3.18-2.64,3.18S208.52,311,208.52,309Zm3.84,0c0-1.4-.49-2-1.21-2s-1.19.58-1.19,2,.49,2,1.19,2S212.36,310.4,212.36,309Z" style="fill:#fff"></path><path d="M208.37,277.11a2.12,2.12,0,0,1-2.33,2.05c-1.7,0-2.75-1.06-2.75-3.05a3,3,0,0,1,3.14-3.31,3.33,3.33,0,0,1,1.71.42l-.53,1a2,2,0,0,0-1.15-.31,1.63,1.63,0,0,0-1.73,1.78,2.08,2.08,0,0,1,1.52-.54A2,2,0,0,1,208.37,277.11Zm-1.38.07a.93.93,0,0,0-1.05-.92,1,1,0,0,0-1.06.92c0,.53.39.92,1.08.92A.92.92,0,0,0,207,277.18Z" style="fill:#fff"></path><path d="M208.89,276c0-2,1.12-3.18,2.63-3.18s2.64,1.15,2.64,3.18-1.12,3.18-2.64,3.18S208.89,278,208.89,276Zm3.84,0c0-1.4-.5-2-1.21-2s-1.19.58-1.19,2,.49,2,1.19,2S212.73,277.38,212.73,276Z" style="fill:#fff"></path><path d="M208.1,239.5v.93l-2.28,5.23h-1.55l2.21-5h-2v1h-1.27V239.5Z" style="fill:#fff"></path><path d="M208.56,242.58c0-2,1.13-3.18,2.64-3.18s2.63,1.15,2.63,3.18-1.11,3.18-2.63,3.18S208.56,244.61,208.56,242.58Zm3.84,0c0-1.4-.49-2-1.2-2s-1.2.58-1.2,2,.49,2,1.2,2S212.4,244,212.4,242.58Z" style="fill:#fff"></path><path d="M208.44,209.93c0,1.16-1,1.89-2.6,1.89s-2.59-.73-2.59-1.89a1.58,1.58,0,0,1,.93-1.45,1.43,1.43,0,0,1-.71-1.27c0-1.08,1-1.76,2.37-1.76s2.38.68,2.38,1.76a1.44,1.44,0,0,1-.72,1.27A1.55,1.55,0,0,1,208.44,209.93Zm-1.44-.05c0-.54-.45-.87-1.16-.87s-1.15.33-1.15.87.44.89,1.15.89S207,210.43,207,209.88Zm-2.11-2.61c0,.47.37.76,1,.76s1-.29,1-.76-.38-.77-1-.77S204.89,206.79,204.89,207.27Z" style="fill:#fff"></path><path d="M209.09,208.64c0-2,1.12-3.19,2.63-3.19s2.64,1.16,2.64,3.19-1.11,3.18-2.64,3.18S209.09,210.67,209.09,208.64Zm3.84,0c0-1.4-.49-2-1.21-2s-1.19.58-1.19,2,.49,2,1.19,2S212.93,210,212.93,208.64Z" style="fill:#fff"></path><path d="M207.86,176.42a3,3,0,0,1-3.14,3.32,3.2,3.2,0,0,1-1.7-.43l.53-1a2,2,0,0,0,1.15.31,1.64,1.64,0,0,0,1.73-1.8,2.11,2.11,0,0,1-1.53.56,2,2,0,0,1-2.12-1.92,2.12,2.12,0,0,1,2.33-2C206.82,173.37,207.86,174.44,207.86,176.42Zm-1.59-1.07c0-.53-.39-.91-1.07-.91a.92.92,0,1,0,0,1.83A1,1,0,0,0,206.27,175.35Z" style="fill:#fff"></path><path d="M208.55,176.56c0-2,1.12-3.19,2.63-3.19s2.64,1.15,2.64,3.19-1.12,3.18-2.64,3.18S208.55,178.59,208.55,176.56Zm3.84,0c0-1.4-.49-2-1.21-2s-1.19.58-1.19,2,.49,2,1.19,2S212.39,178,212.39,176.56Z" style="fill:#fff"></path><path d="M205.32,139.6v6.15H203.9v-5h-1.23V139.6Z" style="fill:#fff"></path><path d="M206.39,142.67c0-2,1.13-3.18,2.64-3.18s2.64,1.15,2.64,3.18-1.12,3.18-2.64,3.18S206.39,144.7,206.39,142.67Zm3.85,0c0-1.39-.5-2-1.21-2s-1.19.58-1.19,2,.49,2,1.19,2S210.24,144.07,210.24,142.67Z" style="fill:#fff"></path><path d="M212.36,142.67c0-2,1.13-3.18,2.64-3.18s2.64,1.15,2.64,3.18-1.12,3.18-2.64,3.18S212.36,144.7,212.36,142.67Zm3.84,0c0-1.39-.49-2-1.2-2s-1.2.58-1.2,2,.5,2,1.2,2S216.2,144.07,216.2,142.67Z" style="fill:#fff"></path><path d="M205.66,104.47v6.15h-1.42v-5H203v-1.14Z" style="fill:#fff"></path><path d="M209.11,104.47v6.15h-1.43v-5h-1.23v-1.14Z" style="fill:#fff"></path><path d="M210.18,107.54c0-2,1.12-3.18,2.63-3.18s2.64,1.15,2.64,3.18-1.11,3.18-2.64,3.18S210.18,109.57,210.18,107.54Zm3.84,0c0-1.39-.49-2-1.21-2s-1.19.58-1.19,2,.49,2,1.19,2S214,108.94,214,107.54Z" style="fill:#fff"></path></g><g id="freepik--character-2--inject-5"><path d="M217.83,239.06l3,17.86,8.49-10.44,12,8.35S226,279,220.48,279.42,209.57,280,208,271s-.2-31.49-.2-31.49Z" style="fill:#ffbf9d"></path><path d="M216.66,226.57s3.64,1,4.37,2.16-.1,5.55-.34,6.22c-.86,2.37-4,5.45-4,5.45s-3.39-3.37-1.45-6.31,2.86-2.62,2.86-2.62l.31-1.15s-1.8-.37-2.13-1.8S216.66,226.57,216.66,226.57Z" style="fill:#ffbf9d"></path><path d="M215,217.54s1.64-.51,2.29,3.18,1.7,8.45,1.7,8.45l-.54,3.64s-2.37,4.08-2.29,4,.55,3.61.55,3.61l-8.5,0s-1.68-3.91-1.76-6.12-.18-7.05-.18-7.05.21-1.58,1.22-1.94,2.61.59,2.61.59.38-1.46,1.4-1.38a2.47,2.47,0,0,1,1.52.57,1.67,1.67,0,0,1,1.53-1.47s-.45-4.37-.51-4.56A1.29,1.29,0,0,1,215,217.54Z" style="fill:#ffbf9d"></path><path d="M213.17,225.15a1.73,1.73,0,0,0,.09.38c.08.27.19.61.31,1,.29.92.69,2.15,1.14,3.57v0l0,0a3.06,3.06,0,0,0,1,.35,1.35,1.35,0,0,0,1.11-.34,1.73,1.73,0,0,0,.42-.66v-.07c0-.07-.05-.21-.07-.32l-.06-.33c0-.23-.09-.44-.13-.66-.09-.43-.18-.84-.29-1.23a8.19,8.19,0,0,0-.35-1.09,4,4,0,0,0-.48-.87,6,6,0,0,0-1-1,1.45,1.45,0,0,0-.42-.3l.38.35a6.88,6.88,0,0,1,.9,1.06,5.72,5.72,0,0,1,.78,1.93c.09.39.18.8.27,1.22l.12.66.07.34a2.27,2.27,0,0,0,.08.37v-.07a1.38,1.38,0,0,1-.36.57,1.17,1.17,0,0,1-1,.3,2.72,2.72,0,0,1-1-.33l0,0c-.47-1.41-.89-2.63-1.19-3.54q-.23-.61-.36-1A2.11,2.11,0,0,0,213.17,225.15Z" style="fill:#ff9a6c"></path><path d="M210.09,225.9a2.06,2.06,0,0,0,.21.33c.14.2.35.49.57.87a8.05,8.05,0,0,1,.69,1.38c.22.53.32,1.17.54,1.82a5.52,5.52,0,0,0,.39.93,1.73,1.73,0,0,0,.65.69,1.05,1.05,0,0,0,.87,0,1.5,1.5,0,0,0,.62-.43,1.29,1.29,0,0,0,.28-1,.82.82,0,0,0-.12-.37s0,.13.05.38a1.31,1.31,0,0,1-.3.93,1.53,1.53,0,0,1-.58.37.91.91,0,0,1-.74,0,1.49,1.49,0,0,1-.58-.63,5.64,5.64,0,0,1-.37-.9c-.21-.63-.32-1.27-.55-1.82A8.06,8.06,0,0,0,211,227a10.21,10.21,0,0,0-.62-.85A1.66,1.66,0,0,0,210.09,225.9Z" style="fill:#ff9a6c"></path><path d="M210.21,226.05a8.46,8.46,0,0,0,.53.89c.17.27.37.6.58,1a1.43,1.43,0,0,1,.21.61.62.62,0,0,1-.24.57l0,0v0a.44.44,0,0,1-.41.23,2.38,2.38,0,0,1-1.39-.7,8,8,0,0,1-.92-1l-.11-.14v.18a.49.49,0,0,1-.23.37.81.81,0,0,1-.33.13c-.21,0-.33,0-.33,0a.74.74,0,0,0,.33,0,.93.93,0,0,0,.39-.11.59.59,0,0,0,.29-.46l-.11,0a6.25,6.25,0,0,0,.91,1,2.48,2.48,0,0,0,1.5.75.59.59,0,0,0,.58-.36l0,.05a.77.77,0,0,0,.32-.73,1.62,1.62,0,0,0-.24-.68c-.22-.38-.44-.7-.62-1A5.58,5.58,0,0,0,210.21,226.05Z" style="fill:#ff9a6c"></path><path d="M216.5,226.42a10.67,10.67,0,0,0,1.74.79,10.44,10.44,0,0,0,1.82.63,10.55,10.55,0,0,0-1.75-.8A9.66,9.66,0,0,0,216.5,226.42Z" style="fill:#ff9a6c"></path><path d="M214.82,237.1a1.73,1.73,0,0,0,0-.39,9.28,9.28,0,0,1,.11-1.06,7.55,7.55,0,0,1,.36-1.53,3.11,3.11,0,0,1,.43-.8,6.49,6.49,0,0,1,.69-.7,6.58,6.58,0,0,1,2-1.24l.06,0v-.05c0-.53-.1-1-.11-1.34v-.06h-.05a1.57,1.57,0,0,1-.84-.32c-.17-.12-.25-.22-.26-.21s.05.12.22.26a1.53,1.53,0,0,0,.86.39l-.05-.06c0,.39.06.84.07,1.34l.05-.07a6.47,6.47,0,0,0-2.06,1.25,6.1,6.1,0,0,0-.71.73,2.92,2.92,0,0,0-.44.86,7,7,0,0,0-.34,1.56,7.6,7.6,0,0,0,0,1.08A1.19,1.19,0,0,0,214.82,237.1Z" style="fill:#ff9a6c"></path><path d="M219.49,268.23A24.28,24.28,0,0,1,220.9,257c.15,0-.47,2.5-.85,5.6S219.65,268.23,219.49,268.23Z" style="fill:#ff9a6c"></path><path d="M251.9,417.78l1,22.26-4.29,17.82a2.29,2.29,0,0,0,1.84,2.79h0a2.28,2.28,0,0,0,2-.63c3.33-3.34,15.18-15.82,15.23-17,.08-1.89.63-23.82.63-23.82Z" style="fill:#455a64"></path><path d="M250.44,460.65l17.3-19.42,0,.95a3.66,3.66,0,0,1-.77,2.24c-1.38,1.69-5.29,6.28-14.5,15.6a2.28,2.28,0,0,1-2.06.63Z" style="fill:#263238"></path><g style="opacity:0.6000000000000001"><path d="M263,434.15a1.37,1.37,0,0,0-.34,1.81,1.32,1.32,0,0,0,1.79.35,1.45,1.45,0,0,0,.35-1.92,1.37,1.37,0,0,0-1.9-.16" style="fill:#fff"></path></g><path d="M255.32,450.81a7,7,0,0,0-2-1.69,7.07,7.07,0,0,0-2.58-.44c0-.05.26-.23.78-.32a3.65,3.65,0,0,1,2,.31,3.58,3.58,0,0,1,1.52,1.34C255.33,450.46,255.37,450.79,255.32,450.81Z" style="fill:#fff"></path><path d="M253.8,453.82c-.11.1-.84-.61-2-.91a16.57,16.57,0,0,0-2.18-.23,2.51,2.51,0,0,1,2.31-.24C253.25,452.79,253.91,453.76,253.8,453.82Z" style="fill:#fff"></path><path d="M258.19,446.92a22.6,22.6,0,0,0-3-1.62,23.06,23.06,0,0,0-3.32-.7,6.23,6.23,0,0,1,6.3,2.32Z" style="fill:#fff"></path><path d="M258.45,440.13c-.05.14-1.3-.35-2.9-.37s-2.86.38-2.91.25a4.36,4.36,0,0,1,2.92-.74A4.47,4.47,0,0,1,258.45,440.13Z" style="fill:#fff"></path><path d="M258.33,433.59a11.4,11.4,0,0,0-3-.47,11.2,11.2,0,0,0-2.94.81c0-.05.2-.33.71-.64a4.81,4.81,0,0,1,2.2-.66,4.86,4.86,0,0,1,2.26.41C258.09,433.29,258.36,433.54,258.33,433.59Z" style="fill:#fff"></path><path d="M255.33,431.87a1.94,1.94,0,0,1-.05-.84,6,6,0,0,1,.62-2.22,2.63,2.63,0,0,1,1.09-1.26.91.91,0,0,1,1,.18,1.46,1.46,0,0,1,.37,1,3.21,3.21,0,0,1-2.76,3,3.76,3.76,0,0,1-3.72-1.87,1.3,1.3,0,0,1-.08-1.08.9.9,0,0,1,.93-.5,3.27,3.27,0,0,1,1.48.73,6.58,6.58,0,0,1,1.56,1.7,2.1,2.1,0,0,1,.36.76,10.66,10.66,0,0,0-2.12-2.18,3,3,0,0,0-1.31-.6.49.49,0,0,0-.51.26.89.89,0,0,0,.1.71,3.33,3.33,0,0,0,3.24,1.59,2.79,2.79,0,0,0,2.38-2.55,1.06,1.06,0,0,0-.23-.71.49.49,0,0,0-.57-.11,2.37,2.37,0,0,0-.94,1.06A8.8,8.8,0,0,0,255.33,431.87Z" style="fill:#fff"></path><path d="M289.9,418.26l-1,22.25,4.29,17.83a2.28,2.28,0,0,1-1.84,2.78h0a2.28,2.28,0,0,1-2-.63c-3.33-3.33-15.18-15.82-15.23-17-.08-1.89-.63-23.81-.63-23.81Z" style="fill:#455a64"></path><path d="M291.36,461.12l-17.3-19.41,0,.94a3.6,3.6,0,0,0,.76,2.24c1.38,1.7,5.29,6.29,14.5,15.6a2.28,2.28,0,0,0,2.06.63Z" style="fill:#263238"></path><g style="opacity:0.6000000000000001"><path d="M278.78,434.62a1.38,1.38,0,0,1,.34,1.81,1.32,1.32,0,0,1-1.79.35,1.45,1.45,0,0,1-.35-1.92,1.38,1.38,0,0,1,1.91-.16" style="fill:#fff"></path></g><path d="M286.48,451.28a7,7,0,0,1,2-1.69,6.73,6.73,0,0,1,2.58-.43c0-.06-.26-.24-.78-.32a3.52,3.52,0,0,0-2,.31,3.48,3.48,0,0,0-1.53,1.33C286.47,450.93,286.43,451.26,286.48,451.28Z" style="fill:#fff"></path><path d="M288,454.3c.11.1.84-.61,2-.92a18.85,18.85,0,0,1,2.18-.23,2.55,2.55,0,0,0-2.31-.24C288.55,453.27,287.89,454.23,288,454.3Z" style="fill:#fff"></path><path d="M283.61,447.39a24.05,24.05,0,0,1,3-1.62,21,21,0,0,1,3.32-.69,5,5,0,0,0-3.49.24A5.12,5.12,0,0,0,283.61,447.39Z" style="fill:#fff"></path><path d="M283.35,440.6c0,.14,1.3-.35,2.9-.37s2.86.39,2.91.25a4.34,4.34,0,0,0-2.92-.74A4.47,4.47,0,0,0,283.35,440.6Z" style="fill:#fff"></path><path d="M283.47,434.06a11.4,11.4,0,0,1,3-.47,11.2,11.2,0,0,1,2.94.81s-.2-.33-.71-.64a4.94,4.94,0,0,0-2.2-.66,4.86,4.86,0,0,0-2.26.41C283.71,433.76,283.44,434,283.47,434.06Z" style="fill:#fff"></path><path d="M286.47,432.35a1.82,1.82,0,0,0,0-.84,6,6,0,0,0-.62-2.23,2.62,2.62,0,0,0-1.09-1.26.93.93,0,0,0-1,.18,1.51,1.51,0,0,0-.37,1,3.23,3.23,0,0,0,2.76,3.05,3.75,3.75,0,0,0,3.72-1.88,1.3,1.3,0,0,0,.08-1.08.92.92,0,0,0-.93-.5,3.27,3.27,0,0,0-1.48.73,6.75,6.75,0,0,0-1.56,1.7,2.1,2.1,0,0,0-.36.76,10.66,10.66,0,0,1,2.12-2.18,3,3,0,0,1,1.31-.6.48.48,0,0,1,.51.27.87.87,0,0,1-.1.7,3.33,3.33,0,0,1-3.24,1.59,2.78,2.78,0,0,1-2.38-2.55,1.08,1.08,0,0,1,.23-.71.52.52,0,0,1,.57-.11,2.37,2.37,0,0,1,.94,1.06A8.75,8.75,0,0,1,286.47,432.35Z" style="fill:#fff"></path><path d="M273.36,191.18a26.38,26.38,0,0,1,13-14.37l-.47-.4a11,11,0,0,1,12.72,7.84c.54,2.2.35,4.51.47,6.77s.62,4.66,2.22,6.28c.85.85,1.95,1.42,2.85,2.23a3.43,3.43,0,0,1,1.31,3.19c-.39,1.5-2.19,2.14-3.73,2.17s-3.17-.3-4.61.28a4.84,4.84,0,1,1-7,6.7c.63,2.64-1.21,5.49-3.75,6.46a8.41,8.41,0,0,1-7.72-1.32,15.28,15.28,0,0,1-4.8-6.47A26.38,26.38,0,0,1,273.36,191.18Z" style="fill:#263238"></path><path d="M241.75,175.2A4.91,4.91,0,0,1,246,172a14.43,14.43,0,0,1,5.51.76,18.69,18.69,0,0,1-.12-7.41c.61-2.42,2.48-4.69,4.95-5,2.13-.26,4.15,1,5.76,2.39s3,3.12,4.87,4.16c4.87,2.72,11.09.21,16.47,1.68s9.78,8.28,8.57,13.87c-9.42,2.83-18.92,5.69-27.48,10.52-4.63,2.61-9.64,5.91-14.81,4.7a9.22,9.22,0,0,1-4.25-15.65C243.33,180.29,241,177.85,241.75,175.2Z" style="fill:#263238"></path><path d="M250,188.6c1.09-7.34,9.68-14,17-12.63l20.1,6.1.4,3.66L281.6,236h.61s-1.3,15.29-14.61,13.24c-12-1.84-8.79-14.31-8.79-14.31l1.43-10.54s-11.42-.76-12.33-13.24C247.46,205,248.73,196.77,250,188.6Z" style="fill:#ffbf9d"></path><path d="M252.27,199.63a1.59,1.59,0,0,0,1.38,1.73,1.52,1.52,0,0,0,1.75-1.29,1.58,1.58,0,0,0-1.38-1.72A1.51,1.51,0,0,0,252.27,199.63Z" style="fill:#263238"></path><path d="M251.56,195.34c.18.22,1.45-.56,3.15-.41s2.87,1.1,3.07.91-.07-.47-.57-.91a4.4,4.4,0,0,0-2.44-1,4.16,4.16,0,0,0-2.53.59C251.68,194.88,251.47,195.24,251.56,195.34Z" style="fill:#263238"></path><path d="M266.06,201a1.58,1.58,0,0,0,1.38,1.72,1.51,1.51,0,0,0,1.75-1.29,1.58,1.58,0,0,0-1.38-1.72A1.51,1.51,0,0,0,266.06,201Z" style="fill:#263238"></path><path d="M267.17,196.94c.18.22,1.46-.56,3.15-.41s2.88,1.1,3.08.91-.07-.47-.58-.91a4.37,4.37,0,0,0-2.44-1,4.18,4.18,0,0,0-2.53.59C267.3,196.48,267.09,196.84,267.17,196.94Z" style="fill:#263238"></path><path d="M260.18,207.88c0-.07-.1-.15-1.8-.48-.43-.08-.83-.18-.89-.42s.13-.6.36-1l1.47-2.44a28.5,28.5,0,0,0,2.14-4.23c-.19-.07-.77.48-2.81,4l-1.42,2.47a1.58,1.58,0,0,0-.32,1.3,1.09,1.09,0,0,0,.68.56,4,4,0,0,0,.73.15C260,208,260.18,207.88,260.18,207.88Z" style="fill:#263238"></path><path d="M260.24,224.4s6.59,1.08,15.22-3.15c0,0-3.47,8.87-15.7,6.67Z" style="fill:#ff9a6c"></path><path d="M268.22,191.32c.15.54,1.65.27,3.41.55s3.19.9,3.42.41c.1-.23-.15-.74-.73-1.26a4.89,4.89,0,0,0-2.53-1.17,4.49,4.49,0,0,0-2.67.43C268.48,190.63,268.16,191.06,268.22,191.32Z" style="fill:#263238"></path><path d="M252,189.49c.24.51,1.53.23,3,.44s2.66.74,3,.31c.16-.21,0-.69-.43-1.21a4,4,0,0,0-4.85-.6C252.15,188.81,251.9,189.25,252,189.49Z" style="fill:#263238"></path><path d="M251.61,181.71a18,18,0,0,1,11.74-7.52,29.85,29.85,0,0,1,14.15,1.09,89.59,89.59,0,0,1,13.18,5.57,3.56,3.56,0,0,1,2.68,4.52q-1.32,9.84-2.63,19.7l-2.1,3.91c-2.13-.14-3.82-1.85-5.09-3.58a29.58,29.58,0,0,1-5.39-21.23,10,10,0,0,0-1.39,2.77,3.27,3.27,0,0,1-2.13,2.11c-1.71.32-3-1.68-3.09-3.41s.31-3.58-.41-5.16a20,20,0,0,1-7,5.47c-1.28.6-2.94,1-4,0a2.7,2.7,0,0,1-.52-2.79,8.1,8.1,0,0,1,1.62-2.49,15.54,15.54,0,0,1-8,4,2.15,2.15,0,0,1-1.88-.31C250.68,183.69,251.09,182.52,251.61,181.71Z" style="fill:#263238"></path><path d="M285.19,201.86c.2-.07,7.76-1.54,6.83,5.95s-8.27,5-8.25,4.79S285.19,201.86,285.19,201.86Z" style="fill:#ffbf9d"></path><path d="M289.48,208.15c0-.14.06-.28.08-.43a4.21,4.21,0,0,0-.13-1.92,1.52,1.52,0,0,0-.85-1.12.68.68,0,0,0-.82.26c-.13.2-.1.35-.14.36s-.14-.14,0-.45a.81.81,0,0,1,.35-.43,1,1,0,0,1,.74-.1,1.83,1.83,0,0,1,1.22,1.33,4.36,4.36,0,0,1,.19,2.15c-.23,1.5-1.18,2.82-2.3,3a1.39,1.39,0,0,1-1.17-.34c-.21-.22-.23-.39-.2-.4s.12.11.33.24a1.32,1.32,0,0,0,1,.14,3,3,0,0,0,1.77-2.28" style="fill:#ff9a6c"></path><path d="M260.24,211l5.27-2.41a.58.58,0,0,1,.46-.06.52.52,0,0,1,.21.25,3.53,3.53,0,0,1-.29,3.61,3.11,3.11,0,0,1-3.17,1.18,3.45,3.45,0,0,1-2.48-2.57Z" style="fill:#ff9a6c"></path><path d="M280.47,179a.25.25,0,0,0,0,.09l-.08.26c-.08.24-.17.58-.28,1a21.81,21.81,0,0,0-.53,3.89,14.78,14.78,0,0,0,.86,5.76,6.79,6.79,0,0,0,1.89,2.89,4.05,4.05,0,0,0,1.67.8,3,3,0,0,0,1.9-.23,4.39,4.39,0,0,0,1.61-1.53,11.15,11.15,0,0,0,.95-1.89l-.17,0c.71.7,1.25,1.52,1.86,2.23a5.55,5.55,0,0,0,2.12,1.67,2.78,2.78,0,0,0,2.38-.06,3.3,3.3,0,0,0,1.44-1.48,3.94,3.94,0,0,0,.4-1.65,5.6,5.6,0,0,0-.12-1.26,6.92,6.92,0,0,0-.22-.75l-.11-.26a1.15,1.15,0,0,0,.07.27c.05.17.12.42.19.76a5.12,5.12,0,0,1,.08,1.24,3.72,3.72,0,0,1-.41,1.59,3.18,3.18,0,0,1-1.39,1.4,2.61,2.61,0,0,1-2.24,0,5.63,5.63,0,0,1-2-1.63,28.07,28.07,0,0,0-1.86-2.26.11.11,0,0,0-.15,0l0,0a10.73,10.73,0,0,1-.94,1.85,4,4,0,0,1-1.53,1.45,2.73,2.73,0,0,1-1.75.22,3.64,3.64,0,0,1-1.58-.76A6.47,6.47,0,0,1,280.6,190a14.82,14.82,0,0,1-.9-5.68,23,23,0,0,1,.47-3.89c.09-.45.17-.8.23-1l.06-.27A.62.62,0,0,0,280.47,179Z" style="fill:#455a64"></path><path d="M260.35,172.57s0,.11,0,.3a1.28,1.28,0,0,1-.31.77c-.21.31-.56.62-.88,1.06a1.84,1.84,0,0,0-.36.8,1.29,1.29,0,0,0,.26.95,1.87,1.87,0,0,0,.88.65,3.65,3.65,0,0,0,1.15.19,16,16,0,0,0,2.54-.14,17,17,0,0,0,5.54-1.73,17.34,17.34,0,0,0,2.09-1.27l-.17-.07a12.76,12.76,0,0,0,.55,2.53,4.46,4.46,0,0,0,1.33,2,2.85,2.85,0,0,0,2,.7,3.34,3.34,0,0,0,1.72-.69,5,5,0,0,0,1-1.1,9.74,9.74,0,0,0,.59-1c.14-.27.24-.48.31-.63s.1-.22.1-.22-.05.06-.13.2l-.35.62a6.64,6.64,0,0,1-1.64,2,3.18,3.18,0,0,1-1.65.63,2.65,2.65,0,0,1-1.88-.67,4.19,4.19,0,0,1-1.26-1.91,13.54,13.54,0,0,1-.53-2.49.12.12,0,0,0-.12-.09l-.05,0a15.45,15.45,0,0,1-2.06,1.25,17,17,0,0,1-5.47,1.72,15.63,15.63,0,0,1-2.5.16,3.52,3.52,0,0,1-1.1-.17,1.76,1.76,0,0,1-.82-.58,1.11,1.11,0,0,1-.24-.84,1.59,1.59,0,0,1,.32-.75c.3-.43.64-.76.85-1.08a1.33,1.33,0,0,0,.29-.82.87.87,0,0,0,0-.22Z" style="fill:#455a64"></path><path d="M295.44,303l-27.74,5-29.25-5-2.12,21.15c.62,1.55,14,117.19,14,117.19l21-2.46L269.09,424l-3-85.38a1.77,1.77,0,0,1,2.56-1.64l.44.22,2.79,73.16v28.74l18,1.58s3.37-18.54,4.61-35,3.66-72.56,4.05-78.43S295.44,303,295.44,303Z" style="fill:#263238"></path><path d="M306.71,265.43s2.74,20.56,2.54,28.74-1.05,25.52-1.05,25.52l-7.5-1.47-5.07-55.84Z" style="fill:#ffbf9d"></path><path d="M308.2,319.69s1.21,14.39,1,16.54-6.26,7.38-7.85,7.29-1.87-.38-1.5-1.87a1.42,1.42,0,0,1-1-1.87c.39-1.59,3.19-3.46,3.19-3.46l2-1.31.73-6.54s-1.36,6.74-2.85,7.12-2.26-.07-2.12-2.72c.12-2.34.77-8.23.77-11.31a36.76,36.76,0,0,1,.46-5.7h7.11Z" style="fill:#ffbf9d"></path><path d="M240.78,246.22l-4.45,66.07s16.16,13.79,35.31,10.92,27.14-9.85,27.14-9.85-1.65-34.67-1.45-46.35,3.22-30.74,3.22-30.74l-17.74-6.06s-5.2,7.25-12.86,6.11A13.64,13.64,0,0,1,259.62,229l-15.77.89Z" style="fill:#e0e0e0"></path><path d="M243.85,229.85s-4.22.93-8.64,6.47c-2.27,2.85-11.43,13.12-11.43,13.12s13.48,15.32,13.48,14.91,6.94-11.59,6.94-11.59Z" style="fill:#e0e0e0"></path><path d="M300.55,236.27a9.7,9.7,0,0,1,6.07,6.95c.59,2.6,3.52,23.49,3.52,23.49l-15.07,1.57V245.49Z" style="fill:#e0e0e0"></path><path d="M297.58,272.58l-1.95-27.35" style="fill:#582F71"></path><path d="M295.63,245.23c.14,0,.7,6.1,1.23,13.66s.86,13.68.72,13.69-.7-6.1-1.24-13.66S295.49,245.24,295.63,245.23Z" style="fill:#263238"></path><path d="M240.78,241.35c.14,0,0,4.9-.29,10.93s-.67,10.9-.81,10.9,0-4.9.29-10.93S240.63,241.34,240.78,241.35Z" style="fill:#263238"></path><rect x="259.76" y="255.37" width="19.86" height="19.86" style="fill:#fff"></rect></g><g id="freepik--character-1--inject-5"><path d="M152.4,168.81a72.64,72.64,0,0,1,11.72-1.87c4.91-.18,34.37,2.08,34.37,2.08v1.13h2.15s1.25,2.84-3.66,3.59-18.13,1.32-18.13,1.32-8.12,3.4-10.76,3.21a89.89,89.89,0,0,1-9.07-1.7l-3.42,2.77Z" style="fill:#ffbf9d"></path><path d="M166.36,170.4l15.45-.75c1.43-.07,3.15,0,3.9,1.07s0,2.43-1.14,3.08-6.33.88-8.14,1.54c0,0-5.66,3.73-11,0" style="fill:#ffbf9d"></path><path d="M165.43,175.34a16.09,16.09,0,0,0,2.94,1.22,9.67,9.67,0,0,0,3.59.15,11.64,11.64,0,0,0,4.35-1.56l0,0h0a30.67,30.67,0,0,1,4.72-.85c.83-.11,1.68-.23,2.52-.41a2.8,2.8,0,0,0,1.12-.46,2.83,2.83,0,0,0,.8-.92,1.53,1.53,0,0,0-.14-1.78,2.83,2.83,0,0,0-1.77-.75,29.84,29.84,0,0,0-4,.05l-6.87.28-4.64.14a11.92,11.92,0,0,1-1.71,0,10.35,10.35,0,0,1,1.7-.19l4.63-.3,6.87-.39,2-.11a12.46,12.46,0,0,1,2.11,0,3.29,3.29,0,0,1,2.09.92,1.85,1.85,0,0,1,.49,1.15,2.39,2.39,0,0,1-.27,1.21,3.37,3.37,0,0,1-.95,1.1,2.14,2.14,0,0,1-.65.35,6.19,6.19,0,0,1-.67.19c-.88.19-1.73.3-2.56.41a30.92,30.92,0,0,0-4.63.79l.05,0a11.76,11.76,0,0,1-4.55,1.56,9.84,9.84,0,0,1-3.71-.26,8.5,8.5,0,0,1-2.19-1A3.55,3.55,0,0,1,165.43,175.34Z" style="fill:#ff9a6c"></path><path d="M58.72,236.36s5-8.06,20.19-21.16,61.71-43.75,76.3-49.24l6.55,12.68-6.34,4.44-23.25,22s-29.16,23.67-31.49,34-4.87,14.4-4.87,14.4Z" style="fill:#455a64"></path><path d="M71.77,441.68l-28.36-9.44s-18.47,25.69-23.88,24.45L35.21,401,80,413.91Z" style="fill:#455a64"></path><path d="M50.66,416.09a2.38,2.38,0,0,0-2.15-2.35,2.3,2.3,0,0,0-2.35,2.11,2.52,2.52,0,0,0,2.29,2.47c1.17-.06,2.44-1.32,2.2-2.46" style="fill:#e0e0e0"></path><path d="M35.21,401l3.57,1L22.47,455.78a4.37,4.37,0,0,1-3.32,1.1Z" style="fill:#263238"></path><path d="M43.08,432.69c-.27-.08,0-1.49-.48-3.09s-1.42-2.66-1.24-2.88,1.64.65,2.2,2.6S43.31,432.83,43.08,432.69Z" style="fill:#263238"></path><path d="M38.93,437.86c-.29,0-.41-1.34-1.29-2.61s-2-1.89-1.94-2.16,1.69,0,2.76,1.61S39.19,437.93,38.93,437.86Z" style="fill:#263238"></path><path d="M30.91,439.13c0-.26,1.5-.24,2.79.9s1.51,2.6,1.25,2.65-.83-1-1.91-1.9S30.86,439.41,30.91,439.13Z" style="fill:#263238"></path><path d="M49.83,434.14c-.22-.19.53-1.33.88-2.91s.21-2.93.49-3,.91,1.37.48,3.22S50,434.34,49.83,434.14Z" style="fill:#263238"></path><path d="M55.71,437c-.11,0,0-1.16.84-2.8a13.3,13.3,0,0,1,1.76-2.68,14.12,14.12,0,0,1,1.33-1.36,3.62,3.62,0,0,1,.91-.65,1.24,1.24,0,0,1,1.49.3,1.55,1.55,0,0,1,.27,1.38,3.38,3.38,0,0,1-.45,1,9.77,9.77,0,0,1-1.11,1.57,10.11,10.11,0,0,1-2.46,2.09c-1.58.95-2.74,1.09-2.76,1s1-.53,2.37-1.56A11.27,11.27,0,0,0,60,433.14a10.28,10.28,0,0,0,1-1.46c.33-.55.49-1.06.27-1.29-.09-.08-.13-.1-.34,0a3,3,0,0,0-.66.49A13.69,13.69,0,0,0,59,432.08a16,16,0,0,0-1.84,2.41A20.09,20.09,0,0,1,55.71,437Z" style="fill:#263238"></path><path d="M158.87,365.56a19,19,0,0,1,12.52,8,18.58,18.58,0,0,1,3,8c1.48,11.08-3.07,18.95-9.84,22.89-2.6,1.51-81.23,33.23-81.23,33.23l-17.23-62s31.05-9.42,50.46-11.07C138.09,362.65,152.31,364.37,158.87,365.56Z" style="fill:#263238"></path><path d="M94.37,367.45s56.39,41.07,65.12,50.58c15.15,16.53,11.43,43.2-8.26,43.69S61,440.84,61,440.84L67.54,414S41,408.54,32.83,396.74c-5.35-7.75-5.12-25.54,1-35l8.22-20.1,48.18,10.83Z" style="fill:#263238"></path><path d="M146,442.22a6.21,6.21,0,0,1-.72-.47c-.46-.32-1.11-.83-2-1.41a76.49,76.49,0,0,0-7.72-4.62,99.93,99.93,0,0,0-12.24-5.32c-4.72-1.71-10-3.29-15.64-4.76s-11-2.74-15.89-4-9.26-2.45-12.89-3.6-6.53-2.22-8.51-3c-1-.39-1.74-.73-2.26-.95a6.83,6.83,0,0,1-.77-.37,3.93,3.93,0,0,1,.81.27c.53.19,1.29.51,2.3.86,2,.75,4.9,1.75,8.54,2.85s8,2.28,12.9,3.5,10.28,2.48,15.91,3.94,10.94,3.08,15.67,4.82a94,94,0,0,1,12.24,5.45,65.72,65.72,0,0,1,7.66,4.77c.88.61,1.51,1.15,2,1.49A5.09,5.09,0,0,1,146,442.22Z" style="fill:#455a64"></path><path d="M153.81,390.65c0,.08-1.49-.06-3.9-.19s-5.74-.21-9.41,0-7,.55-9.36.9-3.86.62-3.87.54a4,4,0,0,1,1-.31c.66-.17,1.62-.37,2.81-.59a70.4,70.4,0,0,1,18.86-.85c1.2.11,2.17.23,2.84.34A4.21,4.21,0,0,1,153.81,390.65Z" style="fill:#455a64"></path><path d="M161.32,419.88a6.22,6.22,0,0,1-.61-.62c-.38-.42-1-1-1.7-1.8-1.49-1.56-3.71-3.74-6.62-6.26s-6.48-5.39-10.56-8.44-8.64-6.3-13.39-9.77L115,383.23c-4.1-3-7.7-5.88-10.75-8.24l-7.22-5.58c-.86-.65-1.53-1.15-2-1.47s-.73-.46-.71-.49a3.55,3.55,0,0,1,.77.4c.48.29,1.17.77,2,1.4,1.76,1.25,4.25,3.12,7.32,5.45s6.71,5.14,10.81,8.14l13.43,9.73c4.75,3.47,9.3,6.73,13.37,9.81s7.64,6,10.52,8.54a88.21,88.21,0,0,1,6.52,6.4c.73.79,1.27,1.43,1.63,1.87A6.11,6.11,0,0,1,161.32,419.88Z" style="fill:#455a64"></path><path d="M136.69,313.22a10.86,10.86,0,0,1-.68,1C136.5,314.22,136.74,313.69,136.69,313.22Z" style="fill:#263238"></path><path d="M136.77,294.92c-2.76-6.17-7.33-11.31-11.06-16.95a79.43,79.43,0,0,1-11-26.25l-.41-3.69c-.48-21.51-.67-40.23-3.44-47.21C105.76,187.92,88,186.54,88,186.54,64.41,184.6,57.39,203.47,54.84,220c-1.59,10.26-5.38,33.86-5.38,33.86l4.64,14,45.09,51.58L121.32,326a22.46,22.46,0,0,0,9.59-9.56l.15,2.15,5.1-6a.67.67,0,0,1,.53.65C140,307.92,139.36,300.72,136.77,294.92Z" style="fill:#263238"></path><path d="M91.07,193.24l-1.46-1.42-16,6.27a4.45,4.45,0,0,0-4.25,4.27l-.4,52a14.6,14.6,0,0,0,2.72,9.42l2.21,3c5,6.8,15.56,6.35,19.68-1a5.52,5.52,0,0,0,.58-1.34,10.19,10.19,0,0,0,.25-1.16c.52-4.17.58-7.8.58-7.8.33-4.59.45-6.47.45-6.43s9.78-1,12.56-13.54c1.37-6.23,1.21-14.81.93-23.27C108.5,200.48,100.47,193.33,91.07,193.24Z" style="fill:#ffbf9d"></path><path d="M89.83,220a1.62,1.62,0,0,1-1.66,1.54A1.54,1.54,0,0,1,86.59,220a1.61,1.61,0,0,1,1.66-1.54A1.55,1.55,0,0,1,89.83,220Z" style="fill:#263238"></path><path d="M106.32,220.3a1.62,1.62,0,0,1-1.66,1.54,1.55,1.55,0,0,1-1.59-1.56,1.63,1.63,0,0,1,1.66-1.54A1.55,1.55,0,0,1,106.32,220.3Z" style="fill:#263238"></path><path d="M107.19,215.5c-.21.2-1.39-.79-3.13-.89s-3.08.7-3.25.47.14-.47.72-.84a4.45,4.45,0,0,1,2.62-.64,4.27,4.27,0,0,1,2.47,1C107.14,215,107.29,215.41,107.19,215.5Z" style="fill:#263238"></path><path d="M89.48,215.5c-.24.17-1.31-.93-3-1.21s-3.13.38-3.28.14.18-.46.8-.77a4.48,4.48,0,0,1,2.67-.36A4.25,4.25,0,0,1,89,214.52C89.47,215,89.59,215.42,89.48,215.5Z" style="fill:#263238"></path><path d="M95.44,228.26a11.75,11.75,0,0,1,2.87-.34c.44,0,.87-.08,1-.38a2.26,2.26,0,0,0-.21-1.34c-.36-1.1-.73-2.26-1.11-3.47-1.54-4.94-2.63-9-2.43-9s1.61,3.9,3.15,8.84q.56,1.81,1,3.48a2.58,2.58,0,0,1,.13,1.77,1.12,1.12,0,0,1-.77.6,3.05,3.05,0,0,1-.77.06A11.23,11.23,0,0,1,95.44,228.26Z" style="fill:#263238"></path><path d="M95.4,249a32.27,32.27,0,0,1-16.66-5.54s3.73,9,16.45,8.59Z" style="fill:#ff9a6c"></path><path d="M94.45,232.42a3.18,3.18,0,0,0-2.75-1.34,2.87,2.87,0,0,0-2,.95,1.82,1.82,0,0,0-.27,2.07,2.13,2.13,0,0,0,2.25.72,6.71,6.71,0,0,0,2.31-1.2,1.91,1.91,0,0,0,.53-.49.58.58,0,0,0,0-.65" style="fill:#ff9a6c"></path><path d="M90.24,229.16c.28,0,.17,1.89,1.71,3.34s3.57,1.35,3.56,1.62c0,.12-.47.34-1.32.31a4.71,4.71,0,0,1-3-1.25,4.12,4.12,0,0,1-1.32-2.79C89.87,229.6,90.11,229.14,90.24,229.16Z" style="fill:#263238"></path><path d="M91.22,208.71c-.25.44-1.94-.06-4-.15s-3.79.19-4-.27c-.08-.22.27-.62,1-1a6.48,6.48,0,0,1,3.07-.54,6.59,6.59,0,0,1,3,.86C91,208.07,91.33,208.5,91.22,208.71Z" style="fill:#263238"></path><path d="M107,208c-.33.37-1.51-.11-3-.22s-2.68.11-2.94-.32c-.11-.21.11-.6.67-.94a4.3,4.3,0,0,1,4.74.43C107,207.39,107.16,207.81,107,208Z" style="fill:#263238"></path><path d="M69.42,224.55s8.91,2.87,14.2-19.14c1.8-7.52,8.86-13.56,8.86-13.56L89.65,191s-17.68,4.78-18,5S67.13,205,67.13,205Z" style="fill:#263238"></path><path d="M132.66,305.07a16.22,16.22,0,0,0,2.88-3.68,17,17,0,0,0,1.76-5.16,20.32,20.32,0,0,0-.14-7.22,28.82,28.82,0,0,0-3.15-8.18,67,67,0,0,0-5.7-8.39c-2.18-2.84-4.56-5.76-6.72-9a35.28,35.28,0,0,1-5-11,40.29,40.29,0,0,1-1.12-6.06c-.24-2-.35-4-.39-6-.09-3.92.08-7.69.21-11.27s.24-7,.11-10.16a57.06,57.06,0,0,0-1-8.78,32.09,32.09,0,0,0-4.58-11.85,18.18,18.18,0,0,0-1.17-1.62,11.93,11.93,0,0,0-.94-1.14l-.59-.68c-.14-.16-.2-.24-.19-.25a1.38,1.38,0,0,1,.23.21c.16.17.38.38.64.64a10.88,10.88,0,0,1,1,1.11,16.32,16.32,0,0,1,1.23,1.61,31.45,31.45,0,0,1,4.79,11.89,57.51,57.51,0,0,1,1,8.84c.15,3.19.07,6.61-.06,10.2s-.27,7.34-.17,11.23c0,1.95.16,3.92.39,5.91a40.4,40.4,0,0,0,1.11,6,34.87,34.87,0,0,0,4.94,10.86c2.14,3.24,4.51,6.17,6.68,9a68.43,68.43,0,0,1,5.7,8.48,28.67,28.67,0,0,1,3.12,8.34,20.16,20.16,0,0,1,.06,7.34,16.39,16.39,0,0,1-1.88,5.22,13.53,13.53,0,0,1-2.14,2.78c-.29.27-.53.47-.68.6Z" style="fill:#263238"></path><path d="M108.88,293.43,96.55,261l-.74-2.62a26.71,26.71,0,0,1-5.53-.4,33.9,33.9,0,0,1-11.41-4.27l-7.8-4.61-1.15,8.12s-19,5.59-20.46,21.1c-1.94,20.34-9.35,57.89-9.35,57.89l-5.78,13.06c-1.45,4.71-4.48,11-5.32,17.28,14.75,9.29,53.74,17.81,75.69-.42L98.91,343.5l11.33-30.28C112.4,306,110.7,302.09,108.88,293.43Z" style="fill:#455a64"></path><g style="opacity:0.30000000000000004"><path d="M102.65,320.3c-10-4.87-19.3-11.14-28.42-17.51l-6.14-5.26c1.4,6.3,5.44,11.78,10.41,15.9s10.84,7,16.78,9.51a8.55,8.55,0,0,0,4.84,1C101.76,323.59,103.23,321.87,102.65,320.3Z"></path></g><path d="M97.65,363.57a2.7,2.7,0,0,1-.58.28l-1.72.7c-.75.31-1.67.66-2.76,1s-2.32.81-3.71,1.17l-2.18.61c-.76.21-1.57.37-2.39.56-1.65.41-3.44.7-5.32,1A93.14,93.14,0,0,1,66.62,370a92.07,92.07,0,0,1-12.39-.78c-1.89-.29-3.68-.54-5.34-.92-.83-.17-1.64-.31-2.4-.51l-2.2-.56c-1.4-.33-2.64-.75-3.74-1.09s-2-.65-2.78-.95L36,364.52a3.18,3.18,0,0,1-.59-.26,2.9,2.9,0,0,1,.63.16l1.76.57c.76.26,1.7.57,2.8.87s2.34.7,3.74,1l2.2.52c.76.18,1.56.31,2.39.48,1.65.35,3.44.59,5.32.87a96.65,96.65,0,0,0,12.32.73,95.63,95.63,0,0,0,12.3-1c1.87-.32,3.66-.59,5.3-1,.83-.18,1.63-.33,2.39-.53l2.18-.57c1.4-.34,2.62-.77,3.72-1.1s2-.64,2.78-.92l1.75-.61A3.24,3.24,0,0,1,97.65,363.57Z" style="fill:#263238"></path><path d="M170.37,229c-1.51-.65-15.13,14.4-15.13,14.4a9,9,0,0,0,1-5.58c-.57-2.86-3.59-2.32-3.59-2.32a40.12,40.12,0,0,1-2.71,8.49c-1.65,3.23-4.09,9-4.09,9s-.31,6-.16,6.37l-2.33,3,13.26,8.78,2.82-5.76c.87-2.42,8.05-5.07,8.79-7.41s-1-4.7-1-4.7c.27-2.14-1.8-4.47-1.8-4.47.14-2.64-2.49-4.3-2.49-4.3s7.49-11,8.63-12.57S171.87,229.69,170.37,229Z" style="fill:#ffbf9d"></path><path d="M65.19,294.75c11.84,11.74,47.4,33.74,53.69,31.82,11.26-3.43,42.44-53.21,42.44-53.21L143,260.08,113.44,295s-10.5-5.15-14.27-8.91S81.36,256.84,66,263.72" style="fill:#455a64"></path><path d="M66,263.72l1-.42a7.11,7.11,0,0,1,1.29-.4,12.29,12.29,0,0,1,1.82-.35,14,14,0,0,1,5.14.48,20.71,20.71,0,0,1,6.28,3.09c4.36,3,8.7,7.8,13.07,13.68,2.26,2.87,4.15,6.41,7.73,8.57a97.06,97.06,0,0,0,11.22,6.44l-.27.05c8.75-10.36,18.77-22.22,29.5-34.95l.16-.18.19.14,18.35,13.28.2.14-.13.21c-.28.43-.57.9-.87,1.38-4.84,7.57-9.72,14.86-14.61,21.79s-9.78,13.48-14.85,19.4a66.83,66.83,0,0,1-8,8.12,10.07,10.07,0,0,1-1.1.85,9.61,9.61,0,0,1-1.15.77,7.92,7.92,0,0,1-1.22.65,4.37,4.37,0,0,1-1.34.42,8.4,8.4,0,0,1-2.71-.31,23.74,23.74,0,0,1-2.52-.78,80.79,80.79,0,0,1-9.13-4.17c-2.85-1.49-5.53-3-8.07-4.52a223.25,223.25,0,0,1-23.09-15.62c-2.59-2-4.53-3.71-5.8-4.88s-1.89-1.85-1.89-1.85l.5.45c.32.3.81.75,1.46,1.32,1.29,1.15,3.25,2.8,5.86,4.8a233.22,233.22,0,0,0,23.15,15.47c2.54,1.48,5.22,3,8.07,4.47a78.15,78.15,0,0,0,9.09,4.12,22.29,22.29,0,0,0,2.48.76,7.64,7.64,0,0,0,2.55.29,3.7,3.7,0,0,0,1.21-.38,8.22,8.22,0,0,0,1.17-.62,13,13,0,0,0,1.12-.76,10.57,10.57,0,0,0,1.07-.83,67.38,67.38,0,0,0,7.92-8.08c5-5.91,9.92-12.48,14.8-19.39s9.76-14.21,14.59-21.77l.87-1.38.07.35-18.35-13.28.34-.05c-10.75,12.71-20.78,24.55-29.55,34.91l-.11.13-.15-.08a95,95,0,0,1-11.26-6.51,16.76,16.76,0,0,1-4.43-4.11L94.3,280c-4.33-5.89-8.62-10.69-12.92-13.68a20.76,20.76,0,0,0-6.19-3.11,14,14,0,0,0-5.07-.54A17.53,17.53,0,0,0,66,263.72Z" style="fill:#263238"></path><path d="M114.83,307.52a12.28,12.28,0,0,1-2-6.11,13.15,13.15,0,0,1,.63-6.41,36.33,36.33,0,0,0-.11,6.36A31.1,31.1,0,0,0,114.83,307.52Z" style="fill:#263238"></path><path d="M90.38,192.13c1.81,4-.21,8.62-2.43,12.4-3.1,5.27-6.67,10.27-9.47,15.72s-4.8,11.48-4.44,17.58c.17,2.91,1.94,12.57,1.57,15.46-1.17,9.2-14,3.55-23.85,17.24A21.51,21.51,0,0,1,49,256.8c1.21-7.53.34-2.11.34-2.11L61.08,206Z" style="fill:#263238"></path><path d="M54.78,279.54a5.1,5.1,0,0,1-.61-2A13.89,13.89,0,0,1,55.94,268a5.57,5.57,0,0,1,1.27-1.61,22.11,22.11,0,0,0-2.51,6.33A21.82,21.82,0,0,0,54.78,279.54Z" style="fill:#263238"></path></g></svg>
