<svg xmlns="http://www.w3.org/2000/svg" viewBox="0 0 500 500"><g id="freepik--background-complete--inject-8"><rect y="382.4" width="500" height="0.25" style="fill:#ebebeb"></rect><rect x="416.78" y="398.49" width="33.12" height="0.25" style="fill:#ebebeb"></rect><rect x="322.53" y="401.21" width="8.69" height="0.25" style="fill:#ebebeb"></rect><rect x="396.59" y="389.21" width="19.19" height="0.25" style="fill:#ebebeb"></rect><rect x="52.46" y="390.89" width="43.19" height="0.25" style="fill:#ebebeb"></rect><rect x="104.56" y="390.89" width="6.33" height="0.25" style="fill:#ebebeb"></rect><rect x="131.47" y="395.11" width="93.68" height="0.25" style="fill:#ebebeb"></rect><path d="M237,337.8H43.91a5.71,5.71,0,0,1-5.7-5.71V60.66A5.71,5.71,0,0,1,43.91,55H237a5.71,5.71,0,0,1,5.71,5.71V332.09A5.71,5.71,0,0,1,237,337.8ZM43.91,55.2a5.46,5.46,0,0,0-5.45,5.46V332.09a5.46,5.46,0,0,0,5.45,5.46H237a5.47,5.47,0,0,0,5.46-5.46V60.66A5.47,5.47,0,0,0,237,55.2Z" style="fill:#ebebeb"></path><path d="M453.31,337.8H260.21a5.72,5.72,0,0,1-5.71-5.71V60.66A5.72,5.72,0,0,1,260.21,55h193.1A5.71,5.71,0,0,1,459,60.66V332.09A5.71,5.71,0,0,1,453.31,337.8ZM260.21,55.2a5.47,5.47,0,0,0-5.46,5.46V332.09a5.47,5.47,0,0,0,5.46,5.46h193.1a5.47,5.47,0,0,0,5.46-5.46V60.66a5.47,5.47,0,0,0-5.46-5.46Z" style="fill:#ebebeb"></path><rect x="86.17" y="326.58" width="78.35" height="54.91" style="fill:#e0e0e0"></rect><rect x="86.17" y="326.58" width="54.91" height="54.91" style="fill:#f0f0f0"></rect><path d="M127.61,360.13c0,6-4.79,12-16,12A29.64,29.64,0,0,1,97.9,369l4-8.67a19.14,19.14,0,0,0,9.37,2.54c2.64,0,4.53-.9,4.53-2.69,0-1.5-1.14-2.39-4.13-2.39H107v-7.23l5.14-5.23H99.7v-8.87h26v7.22l-6.48,6.58C124.71,351.56,127.61,355.29,127.61,360.13Z" style="fill:#e0e0e0"></path><rect x="94.37" y="217.66" width="78.35" height="54.91" style="fill:#e0e0e0"></rect><rect x="94.37" y="217.66" width="54.91" height="54.91" style="fill:#f0f0f0"></rect><path d="M129.4,227.49v34.88H117.64v-26h-6v-8.87Z" style="fill:#e0e0e0"></path><rect x="105.76" y="272.12" width="78.35" height="54.91" transform="translate(289.86 599.15) rotate(180)" style="fill:#e0e0e0"></rect><rect x="129.19" y="272.12" width="54.91" height="54.91" transform="translate(313.3 599.15) rotate(180)" style="fill:#ebebeb"></rect><path d="M171.09,308.71v9.12h-28v-7.22L155.74,299c2.39-2.24,2.74-3.59,2.74-4.79,0-1.69-1.15-2.74-3.39-2.74a5.7,5.7,0,0,0-5.13,3.24l-8.87-4.43c2.54-4.79,7.57-8.08,15.1-8.08,8.27,0,14.1,4.29,14.1,10.92,0,3.44-.9,6.53-6,11.11l-5,4.53Z" style="fill:#fafafa"></path><path d="M409.16,368.5H328.5l2.88-4.59c9.88-15.77,21.75-34.8,32.61-52.34l-33.15-49.74,5-3.33L367.47,306c15.21-24.58,27.69-45,28.65-47.35a2.39,2.39,0,0,0-.16.91h6c0,1.24,0,2.15-30.84,51.93Zm-69.83-6H398l-30.3-45.45C356,335.79,344.53,354.2,339.33,362.5Z" style="fill:#e0e0e0"></path><path d="M303.19,221.54c50.14-1.76,55.16,41.81,55.16,41.81l23.5-3S368,321.27,340.64,325.49s-54.73-8.81-65.57-59.94C274.24,261.66,274.11,222.56,303.19,221.54Z" style="fill:#f0f0f0"></path><path d="M279.65,267.69s11.7,53,34.8,53.29,26.19-55.43,26.19-55.43Z" style="fill:#e6e6e6"></path><path d="M404.74,271.66H251.94a12.16,12.16,0,0,1-12.16-12.17h0a12.16,12.16,0,0,1,12.16-12.16h152.8a12.17,12.17,0,0,1,12.17,12.16h0A12.17,12.17,0,0,1,404.74,271.66Z" style="fill:#e0e0e0"></path><path d="M405.14,369.25H251.54a4.75,4.75,0,0,1-4.75-4.75h0a4.75,4.75,0,0,1,4.75-4.75h153.6a4.74,4.74,0,0,1,4.75,4.75h0A4.75,4.75,0,0,1,405.14,369.25Z" style="fill:#e0e0e0"></path><path d="M329.1,368.5H248.45l2.87-4.59c9.89-15.77,21.76-34.8,32.62-52.34l-33.15-49.74,5-3.33L287.42,306c15.21-24.58,27.69-45,28.65-47.35a2.39,2.39,0,0,0-.16.91h6c0,1.24,0,2.15-30.84,51.93Zm-69.82-6H317.9l-30.3-45.45C276,335.79,264.48,354.2,259.28,362.5Z" style="fill:#e0e0e0"></path><ellipse cx="252.4" cy="376" rx="8.24" ry="8.74" style="fill:#e0e0e0"></ellipse><ellipse cx="250.14" cy="376" rx="4.87" ry="5.16" style="fill:#ebebeb"></ellipse><ellipse cx="319.44" cy="376" rx="8.24" ry="8.74" style="fill:#e0e0e0"></ellipse><ellipse cx="317.19" cy="376" rx="4.87" ry="5.16" style="fill:#ebebeb"></ellipse><ellipse cx="404.49" cy="376" rx="8.24" ry="8.74" style="fill:#e0e0e0"></ellipse><path d="M407.11,376a4.87,4.87,0,1,1-4.87-5.16A5,5,0,0,1,407.11,376Z" style="fill:#ebebeb"></path><ellipse cx="337.45" cy="376" rx="8.24" ry="8.74" style="fill:#e0e0e0"></ellipse><path d="M340.06,376a4.87,4.87,0,1,1-4.86-5.16A5,5,0,0,1,340.06,376Z" style="fill:#ebebeb"></path><rect x="120.46" y="69.27" width="1.4" height="77.79" style="fill:#e0e0e0"></rect><rect x="192.28" y="69.27" width="1.4" height="70.91" style="fill:#e0e0e0"></rect><rect x="255" y="69.27" width="1.4" height="86.54" style="fill:#e0e0e0"></rect><rect x="319.23" y="69.27" width="1.4" height="77.79" style="fill:#e0e0e0"></rect><rect x="381.93" y="69.27" width="1.4" height="82.6" style="fill:#e0e0e0"></rect><rect x="93.52" y="137.02" width="54.44" height="54.44" transform="translate(-48.29 50.3) rotate(-19.7)" style="fill:#e0e0e0"></rect><path d="M129.69,144l10.81,30.18L132,177.24l-4.21-11.77-11.64,4.17,4.21,11.77-8.54,3.06L101,154.29l8.53-3.06,4.06,11.34,11.65-4.17-4.06-11.34Z" style="fill:#f5f5f5"></path><rect x="164.42" y="116.15" width="54.44" height="54.44" transform="translate(34.18 -36.87) rotate(12.06)" style="fill:#f5f5f5"></rect><path d="M196.13,154.35l-13.26-2.83-3.76,5.56-9.05-1.93,20.54-28.39,8.73,1.86,7.19,34.32-9.23-2Zm-1.2-7.09L193,136.36l-6.17,9.17Z" style="fill:#e0e0e0"></path><rect x="228.52" y="134.03" width="54.44" height="54.44" transform="translate(-26.77 53.57) rotate(-11.37)" style="fill:#e0e0e0"></rect><path d="M269.08,154.32c1.44,7.14-3.06,12.67-11.64,14.39l-5.47,1.1,1.65,8.22-8.89,1.78-6.32-31.43,14.37-2.88C261.35,143.77,267.64,147.13,269.08,154.32Zm-9,1.8c-.59-2.92-2.77-4.25-6.45-3.51l-4.94,1,1.85,9.21,4.94-1C259.18,161.07,260.68,159,260.1,156.12Z" style="fill:#f5f5f5"></path><rect x="294.71" y="116.03" width="54.44" height="54.44" transform="translate(6.77 -14.35) rotate(2.58)" style="fill:#f5f5f5"></rect><path d="M336.55,139.74c-.33,7.27-6,11.56-14.76,11.16l-5.59-.25-.37,8.37-9.06-.4,1.44-32,14.64.66C331.59,127.64,336.88,132.42,336.55,139.74Zm-9.15-.41c.13-3-1.67-4.8-5.42-5l-5-.23-.42,9.38,5,.23C325.31,143.91,327.26,142.26,327.4,139.33Z" style="fill:#e0e0e0"></path><rect x="357.03" y="136.39" width="54.44" height="54.44" transform="translate(-14.5 39.44) rotate(-5.77)" style="fill:#e0e0e0"></rect><path d="M389.19,167.66l1.16,11.44-9,.91-1.17-11.57-14.21-19.09,9.52-1,8.84,11.91,6.29-13.43,8.75-.89Z" style="fill:#f5f5f5"></path></g><g id="freepik--Shadow--inject-8"><ellipse id="freepik--path--inject-8" cx="250" cy="416.24" rx="193.89" ry="11.32" style="fill:#f5f5f5"></ellipse></g><g id="freepik--toy-2--inject-8"><rect x="383.07" y="343.06" width="35.45" height="49.73" rx="2.09" transform="translate(909.6 175.23) rotate(116.71)" style="fill:#582F71"></rect><rect x="383.07" y="343.06" width="35.45" height="49.73" rx="2.09" transform="translate(909.6 175.23) rotate(116.71)" style="fill:#fff;opacity:0.2"></rect><rect x="394.85" y="335.8" width="19.19" height="49.73" rx="2.09" transform="translate(908.4 161.45) rotate(116.71)" style="fill:#fff;opacity:0.2"></rect><path d="M423.41,362.07c.26-.52,1.95-3.87,2.21-4.4.82-1.61-1.65-4.5-5.5-6.44s-7.64-2.2-8.45-.58l-2.21,4.4c-.82,1.62,1.65,4.5,5.5,6.44S422.6,363.69,423.41,362.07Z" style="fill:#582F71"></path><path d="M423.41,362.07c.26-.52,1.95-3.87,2.21-4.4.82-1.61-1.65-4.5-5.5-6.44s-7.64-2.2-8.45-.58l-2.21,4.4c-.82,1.62,1.65,4.5,5.5,6.44S422.6,363.69,423.41,362.07Z" style="fill:#fff;opacity:0.1"></path><path d="M417.17,357.09c-3.85-1.94-6.32-4.82-5.5-6.44s4.6-1.35,8.45.58,6.32,4.83,5.5,6.44S421,359,417.17,357.09Z" style="fill:#fff;opacity:0.2"></path><path d="M406,353.3c.27-.53,1.95-3.88,2.22-4.4.81-1.62-1.66-4.5-5.51-6.44s-7.64-2.2-8.45-.58c-.26.52-2,3.87-2.21,4.4-.82,1.61,1.65,4.5,5.5,6.44S405.16,354.91,406,353.3Z" style="fill:#582F71"></path><path d="M406,353.3c.27-.53,1.95-3.88,2.22-4.4.81-1.62-1.66-4.5-5.51-6.44s-7.64-2.2-8.45-.58c-.26.52-2,3.87-2.21,4.4-.82,1.61,1.65,4.5,5.5,6.44S405.16,354.91,406,353.3Z" style="fill:#fff;opacity:0.1"></path><path d="M399.73,348.32c-3.85-1.94-6.31-4.82-5.5-6.44s4.6-1.36,8.45.58,6.32,4.82,5.51,6.44S403.59,350.26,399.73,348.32Z" style="fill:#fff;opacity:0.2"></path><path d="M418.3,372.23c.26-.53,1.95-3.88,2.21-4.4.82-1.62-1.65-4.5-5.5-6.44s-7.64-2.2-8.45-.58c-.27.52-1.95,3.87-2.21,4.4-.82,1.62,1.65,4.5,5.5,6.44S417.49,373.85,418.3,372.23Z" style="fill:#582F71"></path><path d="M418.3,372.23c.26-.53,1.95-3.88,2.21-4.4.82-1.62-1.65-4.5-5.5-6.44s-7.64-2.2-8.45-.58c-.27.52-1.95,3.87-2.21,4.4-.82,1.62,1.65,4.5,5.5,6.44S417.49,373.85,418.3,372.23Z" style="fill:#fff;opacity:0.1"></path><path d="M412.06,367.25c-3.85-1.94-6.32-4.82-5.5-6.44s4.59-1.36,8.45.58,6.32,4.82,5.5,6.44S415.92,369.19,412.06,367.25Z" style="fill:#fff;opacity:0.2"></path><path d="M400.86,363.46l2.21-4.4c.82-1.62-1.65-4.5-5.5-6.44s-7.64-2.2-8.45-.58c-.26.52-1.95,3.87-2.21,4.4-.82,1.61,1.65,4.49,5.5,6.43S400.05,365.07,400.86,363.46Z" style="fill:#582F71"></path><path d="M400.86,363.46l2.21-4.4c.82-1.62-1.65-4.5-5.5-6.44s-7.64-2.2-8.45-.58c-.26.52-1.95,3.87-2.21,4.4-.82,1.61,1.65,4.49,5.5,6.43S400.05,365.07,400.86,363.46Z" style="fill:#fff;opacity:0.1"></path><path d="M394.62,358.48c-3.85-1.94-6.31-4.83-5.5-6.44s4.6-1.36,8.45.58,6.32,4.82,5.5,6.44S398.48,360.41,394.62,358.48Z" style="fill:#fff;opacity:0.2"></path><rect x="337.84" y="366.81" width="49.73" height="49.73" rx="2.83" style="fill:#263238"></rect><rect x="337.84" y="366.81" width="49.73" height="49.73" rx="2.83" style="fill:#fff;opacity:0.30000000000000004"></rect><rect x="337.84" y="366.81" width="35.42" height="49.73" rx="2.83" style="fill:#fff;opacity:0.2"></rect><path d="M345.28,374.1h-5.95c-3.34,0-6.05,3.5-6.05,7.81s2.71,7.81,6.05,7.81h5.95c3.34,0,6.05-3.49,6.05-7.81S348.62,374.1,345.28,374.1Z" style="fill:#263238"></path><path d="M345.28,374.1h-5.95c-3.34,0-6.05,3.5-6.05,7.81s2.71,7.81,6.05,7.81h5.95c3.34,0,6.05-3.49,6.05-7.81S348.62,374.1,345.28,374.1Z" style="fill:#fff;opacity:0.2"></path><ellipse cx="339.33" cy="381.91" rx="6.05" ry="7.81" style="fill:#fff;opacity:0.2"></ellipse><path d="M345.28,393.62h-5.95c-3.34,0-6.05,3.5-6.05,7.81s2.71,7.81,6.05,7.81h5.95c3.34,0,6.05-3.49,6.05-7.81S348.62,393.62,345.28,393.62Z" style="fill:#263238"></path><path d="M345.28,393.62h-5.95c-3.34,0-6.05,3.5-6.05,7.81s2.71,7.81,6.05,7.81h5.95c3.34,0,6.05-3.49,6.05-7.81S348.62,393.62,345.28,393.62Z" style="fill:#fff;opacity:0.2"></path><ellipse cx="339.33" cy="401.43" rx="6.05" ry="7.81" style="fill:#fff;opacity:0.2"></ellipse><path d="M363.13,374.1h-5.95c-3.34,0-6.05,3.5-6.05,7.81s2.71,7.81,6.05,7.81h5.95c3.34,0,6.05-3.49,6.05-7.81S366.47,374.1,363.13,374.1Z" style="fill:#263238"></path><path d="M363.13,374.1h-5.95c-3.34,0-6.05,3.5-6.05,7.81s2.71,7.81,6.05,7.81h5.95c3.34,0,6.05-3.49,6.05-7.81S366.47,374.1,363.13,374.1Z" style="fill:#fff;opacity:0.2"></path><ellipse cx="357.18" cy="381.91" rx="6.05" ry="7.81" style="fill:#fff;opacity:0.2"></ellipse><path d="M363.13,393.62h-5.95c-3.34,0-6.05,3.5-6.05,7.81s2.71,7.81,6.05,7.81h5.95c3.34,0,6.05-3.49,6.05-7.81S366.47,393.62,363.13,393.62Z" style="fill:#263238"></path><path d="M363.13,393.62h-5.95c-3.34,0-6.05,3.5-6.05,7.81s2.71,7.81,6.05,7.81h5.95c3.34,0,6.05-3.49,6.05-7.81S366.47,393.62,363.13,393.62Z" style="fill:#fff;opacity:0.2"></path><ellipse cx="357.18" cy="401.43" rx="6.05" ry="7.81" style="fill:#fff;opacity:0.2"></ellipse><rect x="388.53" y="373.95" width="35.45" height="49.73" rx="2.09" transform="translate(805.06 -7.44) rotate(90)" style="fill:#582F71"></rect><rect x="388.53" y="373.95" width="35.45" height="49.73" rx="2.09" transform="translate(805.06 -7.44) rotate(90)" style="fill:#fff;opacity:0.6000000000000001"></rect><rect x="396.65" y="365.82" width="19.19" height="49.73" rx="2.09" transform="translate(796.94 -15.57) rotate(90)" style="fill:#fff;opacity:0.2"></rect><path d="M423.82,383.42V378.5c0-1.81-3.49-3.28-7.81-3.28s-7.81,1.47-7.81,3.28v4.92c0,1.81,3.5,3.28,7.81,3.28S423.82,385.23,423.82,383.42Z" style="fill:#582F71"></path><path d="M423.82,383.42V378.5c0-1.81-3.49-3.28-7.81-3.28s-7.81,1.47-7.81,3.28v4.92c0,1.81,3.5,3.28,7.81,3.28S423.82,385.23,423.82,383.42Z" style="fill:#fff;opacity:0.5"></path><path d="M416,381.78c-4.31,0-7.81-1.47-7.81-3.28s3.5-3.28,7.81-3.28,7.81,1.47,7.81,3.28S420.33,381.78,416,381.78Z" style="fill:#fff;opacity:0.2"></path><path d="M404.3,383.42V378.5c0-1.81-3.5-3.28-7.81-3.28s-7.81,1.47-7.81,3.28v4.92c0,1.81,3.5,3.28,7.81,3.28S404.3,385.23,404.3,383.42Z" style="fill:#582F71"></path><path d="M404.3,383.42V378.5c0-1.81-3.5-3.28-7.81-3.28s-7.81,1.47-7.81,3.28v4.92c0,1.81,3.5,3.28,7.81,3.28S404.3,385.23,404.3,383.42Z" style="fill:#fff;opacity:0.5"></path><path d="M396.49,381.78c-4.31,0-7.81-1.47-7.81-3.28s3.5-3.28,7.81-3.28,7.81,1.47,7.81,3.28S400.8,381.78,396.49,381.78Z" style="fill:#fff;opacity:0.2"></path><path d="M423.82,394.79v-4.92c0-1.81-3.49-3.28-7.81-3.28s-7.81,1.47-7.81,3.28v4.92c0,1.81,3.5,3.28,7.81,3.28S423.82,396.6,423.82,394.79Z" style="fill:#582F71"></path><path d="M423.82,394.79v-4.92c0-1.81-3.49-3.28-7.81-3.28s-7.81,1.47-7.81,3.28v4.92c0,1.81,3.5,3.28,7.81,3.28S423.82,396.6,423.82,394.79Z" style="fill:#fff;opacity:0.5"></path><path d="M416,393.15c-4.31,0-7.81-1.47-7.81-3.28s3.5-3.28,7.81-3.28,7.81,1.47,7.81,3.28S420.33,393.15,416,393.15Z" style="fill:#fff;opacity:0.2"></path><path d="M404.3,394.79v-4.92c0-1.81-3.5-3.28-7.81-3.28s-7.81,1.47-7.81,3.28v4.92c0,1.81,3.5,3.28,7.81,3.28S404.3,396.6,404.3,394.79Z" style="fill:#582F71"></path><path d="M404.3,394.79v-4.92c0-1.81-3.5-3.28-7.81-3.28s-7.81,1.47-7.81,3.28v4.92c0,1.81,3.5,3.28,7.81,3.28S404.3,396.6,404.3,394.79Z" style="fill:#fff;opacity:0.5"></path><path d="M396.49,393.15c-4.31,0-7.81-1.47-7.81-3.28s3.5-3.28,7.81-3.28,7.81,1.47,7.81,3.28S400.8,393.15,396.49,393.15Z" style="fill:#fff;opacity:0.2"></path></g><g id="freepik--toy-1--inject-8"><polygon points="143.22 410.45 143.22 416.54 66.91 416.54 66.91 410.45 86.26 402.79 123.87 402.79 143.22 410.45" style="fill:#263238"></polygon><polygon points="143.22 410.45 143.22 410.51 66.91 410.51 66.91 410.45 86.26 402.79 123.87 402.79 143.22 410.45" style="fill:#fff;opacity:0.2"></polygon><path d="M103.51,321.19c5.7-.58,3.75-5.34,6.13-8.51s8.31-3.36,9.49,3.17,0,23.2-14.25,23.77-15.65-21-15.65-21S93.81,322.18,103.51,321.19Z" style="fill:#582F71"></path><path d="M103.51,321.19c5.7-.58,3.75-5.34,6.13-8.51s8.31-3.36,9.49,3.17,0,23.2-14.25,23.77-15.65-21-15.65-21S93.81,322.18,103.51,321.19Z" style="fill:#fff;opacity:0.5"></path><path d="M118.89,314.82s4,.83,4.2,2-4.2,2.14-4.2,2.14-3.12-1.43-3.12-2.08S118.89,314.82,118.89,314.82Z" style="fill:#582F71"></path><path d="M114.24,315.28a.92.92,0,1,1-.92-.92A.92.92,0,0,1,114.24,315.28Z" style="fill:#582F71"></path><path d="M130.84,406.92H78.94a5.72,5.72,0,0,1-5.7-5.7h0a5.72,5.72,0,0,1,5.7-5.7h51.9a5.72,5.72,0,0,1,5.7,5.7h0A5.72,5.72,0,0,1,130.84,406.92Z" style="fill:#582F71"></path><path d="M126.83,395.54H82.94a5.72,5.72,0,0,1-5.7-5.7h0a5.71,5.71,0,0,1,5.7-5.7h43.89a5.71,5.71,0,0,1,5.7,5.7h0A5.72,5.72,0,0,1,126.83,395.54Z" style="fill:#263238"></path><path d="M122.82,384.15H86.94a5.71,5.71,0,0,1-5.7-5.69h0a5.71,5.71,0,0,1,5.7-5.7h35.88a5.71,5.71,0,0,1,5.7,5.7h0A5.71,5.71,0,0,1,122.82,384.15Z" style="fill:#582F71"></path><path d="M118.82,372.77H90.93a5.71,5.71,0,0,1-5.7-5.69h0a5.72,5.72,0,0,1,5.7-5.7h27.89a5.72,5.72,0,0,1,5.7,5.7h0A5.71,5.71,0,0,1,118.82,372.77Z" style="fill:#263238"></path><path d="M114.81,361.39H94.93a5.72,5.72,0,0,1-5.7-5.7h0a5.71,5.71,0,0,1,5.7-5.69h19.88a5.71,5.71,0,0,1,5.7,5.69h0A5.72,5.72,0,0,1,114.81,361.39Z" style="fill:#582F71"></path><path d="M110.8,350H98.93a5.71,5.71,0,0,1-5.7-5.7h0a5.72,5.72,0,0,1,5.7-5.7H110.8a5.72,5.72,0,0,1,5.7,5.7h0A5.71,5.71,0,0,1,110.8,350Z" style="fill:#263238"></path><path d="M126.83,395.54H82.94a5.72,5.72,0,0,1-5.7-5.7h0a5.71,5.71,0,0,1,5.7-5.7h43.89a5.71,5.71,0,0,1,5.7,5.7h0A5.72,5.72,0,0,1,126.83,395.54Z" style="fill:#fff;opacity:0.2"></path><path d="M122.82,384.15H86.94a5.71,5.71,0,0,1-5.7-5.69h0a5.71,5.71,0,0,1,5.7-5.7h35.88a5.71,5.71,0,0,1,5.7,5.7h0A5.71,5.71,0,0,1,122.82,384.15Z" style="fill:#fff;opacity:0.2"></path><path d="M118.82,372.77H90.93a5.71,5.71,0,0,1-5.7-5.69h0a5.72,5.72,0,0,1,5.7-5.7h27.89a5.72,5.72,0,0,1,5.7,5.7h0A5.71,5.71,0,0,1,118.82,372.77Z" style="fill:#fff;opacity:0.4"></path><path d="M114.81,361.39H94.93a5.72,5.72,0,0,1-5.7-5.7h0a5.71,5.71,0,0,1,5.7-5.69h19.88a5.71,5.71,0,0,1,5.7,5.69h0A5.72,5.72,0,0,1,114.81,361.39Z" style="fill:#fff;opacity:0.4"></path><path d="M110.8,350H98.93a5.71,5.71,0,0,1-5.7-5.7h0a5.72,5.72,0,0,1,5.7-5.7H110.8a5.72,5.72,0,0,1,5.7,5.7h0A5.71,5.71,0,0,1,110.8,350Z" style="fill:#fff;opacity:0.6000000000000001"></path></g><g id="freepik--speech-bubble--inject-8"><path d="M155.1,138.54l37-8a11.64,11.64,0,0,1,13.85,8.91l7,32.17A11.64,11.64,0,0,1,204,185.43l-5.6,1.22,3.49,9.88-11.22-8.2-23.63,5.14a11.65,11.65,0,0,1-13.86-8.91l-7-32.16A11.65,11.65,0,0,1,155.1,138.54Z" style="fill:#582F71"></path><path d="M155.1,138.54l37-8a11.64,11.64,0,0,1,13.85,8.91l7,32.17A11.64,11.64,0,0,1,204,185.43l-5.6,1.22,3.49,9.88-11.22-8.2-23.63,5.14a11.65,11.65,0,0,1-13.86-8.91l-7-32.16A11.65,11.65,0,0,1,155.1,138.54Z" style="fill:#fff;opacity:0.7000000000000001"></path><path d="M178.14,155.47c-9.1-6.11-16.73-1.12-15.1,6.4s19.65,14.5,19.65,14.5,13.48-13.83,11.85-21.35S183.89,146.13,178.14,155.47Z" style="fill:#582F71"></path></g><g id="freepik--Character--inject-8"><g id="freepik--group--inject-8"><path d="M232.69,252.94c-.9.61-1.66,1.08-2.5,1.58s-1.66,1-2.5,1.42c-1.68.92-3.4,1.77-5.18,2.58s-3.6,1.58-5.54,2.28a52.19,52.19,0,0,1-6.36,1.87,28.66,28.66,0,0,1-4.2.62c-.72,0-1.42,0-2.11,0l-1.86-.17a36.36,36.36,0,0,1-6.35-1.46,49.79,49.79,0,0,1-5.58-2.2,41.1,41.1,0,0,1-5.24-2.89,5.43,5.43,0,0,1,2.29-9.94l.43,0c3.5-.42,7.09-.49,10.31-.79a40.57,40.57,0,0,0,4.4-.53l.83-.2.58-.22a6,6,0,0,1,1.06-.55c1.05-.5,2.38-1.19,3.73-1.93s2.78-1.53,4.2-2.36l4.34-2.5,2.19-1.24c.72-.4,1.51-.83,2.15-1.16l.3-.15a10.46,10.46,0,0,1,10.61,18Z" style="fill:#e4897b"></path><path d="M232.69,252.94c-.9.61-1.66,1.08-2.5,1.58s-1.66,1-2.5,1.42c-1.68.92-3.4,1.77-5.18,2.58s-3.6,1.58-5.54,2.28a52.19,52.19,0,0,1-6.36,1.87,28.66,28.66,0,0,1-4.2.62c-.72,0-1.42,0-2.11,0l-1.86-.17a36.36,36.36,0,0,1-6.35-1.46,49.79,49.79,0,0,1-5.58-2.2,41.1,41.1,0,0,1-5.24-2.89,5.43,5.43,0,0,1,2.29-9.94l.43,0c3.5-.42,7.09-.49,10.31-.79a40.57,40.57,0,0,0,4.4-.53l.83-.2.58-.22a6,6,0,0,1,1.06-.55c1.05-.5,2.38-1.19,3.73-1.93s2.78-1.53,4.2-2.36l4.34-2.5,2.19-1.24c.72-.4,1.51-.83,2.15-1.16l.3-.15a10.46,10.46,0,0,1,10.61,18Z" style="opacity:0.1"></path><path d="M184.53,235.68l1.63,2.25s6.51,7.19,7.53,14.54l-1.67,1a9.67,9.67,0,0,1-8.86.56l-2.71-1.18-4.47-2a5.22,5.22,0,0,1-3-3.69l-.91-4.37a5,5,0,0,1,1.9-5.09l4.13-2.9.39-.27A4.32,4.32,0,0,1,184.53,235.68Z" style="fill:#e4897b"></path><path d="M220.11,257.51,207,239.41s20.65-12,28.73-2.75S220.11,257.51,220.11,257.51Z" style="fill:#582F71"></path><path d="M228.74,252.28a65.53,65.53,0,0,1-8.63,5.23l-3.82-5.29L207,239.41s20.65-12,28.74-2.75C240.41,242,234.56,248.07,228.74,252.28Z" style="fill:#fff;opacity:0.5"></path><path d="M228.74,252.28a65.53,65.53,0,0,1-8.63,5.23l-3.82-5.29a36.62,36.62,0,0,1,8.59-9.75A21.33,21.33,0,0,1,228.74,252.28Z" style="opacity:0.1"></path><path d="M184.53,235.68l1.63,2.25s6.51,7.19,7.53,14.54l-1.67,1a9.67,9.67,0,0,1-8.86.56l-2.71-1.18-4.47-2a5.22,5.22,0,0,1-3-3.69l-.91-4.37a5,5,0,0,1,1.9-5.09l4.13-2.9.39-.27A4.32,4.32,0,0,1,184.53,235.68Z" style="opacity:0.1"></path><path d="M175.36,359.09s-11.5-35,6.46-53.18,112.94-4.56,112.94-4.56l-6.18,41.74S214,329.17,208.1,332.4s-10.69,34.74-10.69,34.74Z" style="fill:#e4897b"></path><path d="M193.85,299.91s9.1,22.94,14.25,32.49c3.16,5.87,36.84,8.46,62.33,9.58a27.47,27.47,0,0,0,27.41-35.64,55.77,55.77,0,0,0-6-13S216,294.27,193.85,299.91Z" style="fill:#263238"></path><path d="M191.34,362.86s1.33,11-4.4,14.45-13-3.26-19.51-6.66-14.76-5.37-13.22-12.35,7.39,4.83,20.07-.74Z" style="fill:#e4897b"></path><path d="M161.73,386.23s-5.18,18.61,0,25.17c2.32,2.94,16,3.83,19.35,1.63,6.59-4.31,4.75-23.24,4.75-23.24Z" style="fill:#263238"></path><path d="M329.29,395.59s-115.77,12.11-181,0c0,0,1.83-15.34,5.74-24.2h0a21.45,21.45,0,0,1,1.8-3.33,16.15,16.15,0,0,1,6-4.76c.58-.3,1.17-.58,1.78-.84a73.93,73.93,0,0,1,17-4.65h0s6.76-21.3,13-29.52a12.52,12.52,0,0,1,2-2.16c6.72-5.53,89-1.78,100.28,6.14,2.64,1.85,5.54,5.67,8.21,9.89a162.1,162.1,0,0,1,9.4,17.6s13,.09,16,9.37S329.29,395.59,329.29,395.59Z" style="fill:#582F71"></path><path d="M183.85,358A632.35,632.35,0,0,1,254,360s1.24-16.43.93-18.63-33.14-7.61-33.14-7.61-5.53-4.49-7.91-6.46-19,3.95-19,3.95S186.62,345.93,183.85,358Z" style="fill:#fff"></path><path d="M234.27,351.18a2.38,2.38,0,1,1-2.32-2.9A2.66,2.66,0,0,1,234.27,351.18Z" style="fill:#263238"></path><path d="M201.6,350a2.38,2.38,0,1,1-2.32-2.9A2.66,2.66,0,0,1,201.6,350Z" style="fill:#263238"></path><path d="M223.24,376.27a13.89,13.89,0,0,1-.89,1.79,25.61,25.61,0,0,1-3,4.19c-4.4,5.1-13.15,11.58-29.06,11.25-6.7-.14-11.68-1.34-15.38-3.05-10.73-4.95-10.73-14.18-10.73-14.18s1.22.38,3.44.89A120.51,120.51,0,0,0,223.24,376.27Z" style="fill:#263238"></path><path d="M219.37,382.25c-4.4,5.1-13.15,11.58-29.06,11.25-6.7-.14-11.68-1.34-15.38-3.05A84.64,84.64,0,0,1,219.37,382.25Z" style="fill:#de5753"></path><path d="M223.24,376.27a13.89,13.89,0,0,1-.89,1.79c-27.52,7.62-54.71,1.12-54.71,1.12v-2A120.51,120.51,0,0,0,223.24,376.27Z" style="fill:#fff"></path><ellipse cx="256.79" cy="400.12" rx="11.86" ry="16.03" style="fill:#263238"></ellipse><ellipse cx="259.34" cy="399.49" rx="7.18" ry="9.7" style="fill:#fff;opacity:0.2"></ellipse><path d="M245.06,397.76c-1.55,3-10.79,3.16-10.79,3.16s.47,9.07,6.14,13,16.38,2.21,16.38,2.21Z" style="fill:#263238"></path><ellipse cx="311.64" cy="397.57" rx="11.86" ry="16.03" style="fill:#263238"></ellipse><ellipse cx="314.19" cy="396.94" rx="7.18" ry="9.7" style="fill:#fff;opacity:0.2"></ellipse><path d="M299.92,395.21c-1.56,3-10.79,3.15-10.79,3.15s.47,9.07,6.14,13,16.37,2.21,16.37,2.21Z" style="fill:#263238"></path><path d="M149.39,388.23l-3.39,3s1.23,14.05,3.39,14.73,67.48,5.45,73.85,4.65,14.41-3,16.32-4.4,0-12.74,0-12.74-21,3.76-35.8,3.45-48.53-.54-50.9-3.45A28.3,28.3,0,0,1,149.39,388.23Z" style="fill:#582F71"></path><path d="M240.41,364.4c-.58-.1-12.45,2.8-14.23,4.71s3.45,11.13,3.45,11.13,2.16,1.3,2.32,0,5.88-10.6,8.46-12.38S240.41,364.4,240.41,364.4Z" style="fill:#fff;opacity:0.7000000000000001"></path><path d="M159.43,377.44h-2.77L154,371.39h0a21.45,21.45,0,0,1,1.8-3.33,16.15,16.15,0,0,1,6-4.76S158.74,372.79,159.43,377.44Z" style="fill:#fff;opacity:0.7000000000000001"></path><path d="M253.87,361c-24.13,1.11-34.5,11.47-34.5,11.47s-55.89-.11-56.68-3.4c-.53-2.18.3-5,.92-6.66a73.93,73.93,0,0,1,17-4.65c-8.08,2.6-8.84,5.49-8.84,5.49,2.21-2.58,9.66-4.14,9.66-4.14C202,357.76,253.87,361,253.87,361Z" style="fill:#fff;opacity:0.2"></path><path d="M304.21,342.14a54.93,54.93,0,0,0-16.71-4.95c-14.44-1.58-27.5,1.58-29.28,1.19s-35-7.52-35-7.52-6-6.13-8.14-6.72-17.6,2.77-21.38,4.13a12.52,12.52,0,0,1,2-2.16c6.72-5.53,89-1.78,100.28,6.14C298.64,334.1,301.54,337.92,304.21,342.14Z" style="fill:#fff;opacity:0.2"></path><path d="M259.34,359s.07-15.47,1.26-16.53,16.17-1.61,18-1S283.74,359,283.74,359Z" style="fill:#fff"></path><path d="M287.5,359,283,341.38s17.6-.16,19,2.08,9.7,16.55,9.7,16.55Z" style="fill:#fff"></path><path d="M149.39,388.23l-3.39,3s1.23,14.05,3.39,14.73,67.48,5.45,73.85,4.65,14.41-3,16.32-4.4,0-12.74,0-12.74-21,3.76-35.8,3.45-48.53-.54-50.9-3.45A28.3,28.3,0,0,1,149.39,388.23Z" style="fill:#fff;opacity:0.7000000000000001"></path><polygon points="216.49 400.98 217.87 407.15 205.61 406.64 205.61 402.88 216.49 400.98" style="opacity:0.2"></polygon><polygon points="151.59 396.94 159.91 400.12 159.91 404.06 151.59 402.88 151.59 396.94" style="opacity:0.2"></polygon><circle cx="214.33" cy="404.08" r="1.85" style="fill:#fff;opacity:0.2"></circle><circle cx="153.99" cy="400.24" r="1.85" style="fill:#fff;opacity:0.2"></circle><path d="M209.78,404.08a1.59,1.59,0,1,1-1.59-1.58A1.59,1.59,0,0,1,209.78,404.08Z" style="fill:#fff;opacity:0.2"></path><path d="M159.49,401.7a1.59,1.59,0,1,1-1.58-1.58A1.59,1.59,0,0,1,159.49,401.7Z" style="fill:#fff;opacity:0.2"></path><circle cx="231.34" cy="372.39" r="3.28" style="fill:#fff"></circle><path d="M159.55,372.37c-.52,1.73-1.73,2.9-2.7,2.61s-1.34-1.93-.82-3.67,1.73-2.9,2.7-2.61S160.07,370.63,159.55,372.37Z" style="fill:#fff"></path><path d="M238,368.53a1.84,1.84,0,1,1-1.84-1.84A1.84,1.84,0,0,1,238,368.53Z" style="fill:#fff"></path><path d="M160.26,366.89c-.54.86-1.37,1.31-1.85,1s-.43-1.24.11-2.1,1.37-1.31,1.85-1S160.8,366,160.26,366.89Z" style="fill:#fff"></path><path d="M274.69,336.85c-7.17-.36-20.82-5.05-24-15.87-6-20.59,41.42-28.19,46.58-16.29C304.62,321.61,297.81,338,274.69,336.85Z" style="fill:#263238"></path><path d="M296.84,360.66s8.85,6.67,7.35,13.19-11.38,7.11-18.33,9.42-14.1,6.91-18.07,1,8.61-2,13.4-15Z" style="fill:#e4897b"></path><path d="M281.15,370.08s-45.26-45.36-25.4-59.82c21.06-15.35,37.14,33.18,43.55,55.92Z" style="fill:#e4897b"></path><path d="M216.29,244.31c-2.84-10.55-12.1-15.17-23.49-14.1-4.78.45-20.52,7.61-19.18,25.72,1.15,15.44,18.26,23.25,30.69,17.45S219.13,254.87,216.29,244.31ZM204.93,253a12.22,12.22,0,0,1-10.61,11.37c-5.21.51-12.45-8.13-5.72-18.45,2.26-3.47,7.32-4.31,10.32-3.41S205.23,246.82,204.93,253Z" style="fill:#263238"></path><path d="M216.29,244.31c-2.84-10.55-12.1-15.17-23.49-14.1-4.78.45-20.52,7.61-19.18,25.72,1.15,15.44,18.26,23.25,30.69,17.45S219.13,254.87,216.29,244.31ZM204.93,253a12.22,12.22,0,0,1-10.61,11.37c-5.21.51-12.45-8.13-5.72-18.45,2.26-3.47,7.32-4.31,10.32-3.41S205.23,246.82,204.93,253Z" style="fill:#fff;opacity:0.2"></path><path d="M214.39,256.74a11.29,11.29,0,0,1-.22-1.92c.07-1,.75-1.92.63-2.92a16.5,16.5,0,0,0-.67-1.9,5.25,5.25,0,0,1,0-2.64,4.44,4.44,0,0,0,.36-1.67,2.38,2.38,0,0,0-1-1.55c-.79-.64-1.36-.81-1.51-2-.07-.5-.07-1-.15-1.5a1.84,1.84,0,0,0-.2-.64c-.44-.76-1.31-.88-1.58-1.78-.17-.52-.2-1.06-.4-1.55a19.9,19.9,0,0,0-12-6.3,18.86,18.86,0,0,0-3.26-.17c-2.19.41-4.73,1-7.08,1.56a22.75,22.75,0,0,0-13.41,18.08,24.15,24.15,0,0,0,.46,8.89h0c1.17,1.49,2.55,2.58,2.87,4.75a3.3,3.3,0,0,0,.46,1.66c.49.62,1.41.58,2,1,.8.55,1,1.68,1.44,2.56.74,1.41,2,1.37,3.06,2.29a4.82,4.82,0,0,0,3.08,1.64,2.91,2.91,0,0,1,1.65.2,4.9,4.9,0,0,0,1.77.88,2.27,2.27,0,0,0,1-.2,2.69,2.69,0,0,1,1-.22c.5,0,1.08.59,1.57.81a3,3,0,0,0,2.49.24c.81-.42,1.3-1.33,2.12-1.73a4.32,4.32,0,0,1,1.86-.32,5,5,0,0,0,3.68-1.38,5.5,5.5,0,0,1,.63-.73,3.43,3.43,0,0,1,1.34-.62,3.36,3.36,0,0,0,1.43-.79,6.84,6.84,0,0,0,1.05-2.23,2.17,2.17,0,0,1,1.43-1.34c.53-.14.86-.07,1.21-.64.64-1.05.36-2.5,1-3.59C213.33,259.53,214.57,258.76,214.39,256.74ZM200,262.47c-.7.82-1.3,1-2.31,2.19a2.37,2.37,0,0,1-2.54,1c-.59-.12-1.12-.14-1.68-.2s-1.1-.73-1.7-1a3.46,3.46,0,0,0-2.09-.06,2.28,2.28,0,0,1-2-.38,7.84,7.84,0,0,1-.72-1.14c-.67-1-1.94-1.39-2.68-2.35,0-.34-1-1.54-1.1-2a7,7,0,0,1,.19-2.48.85.85,0,0,0,0-.42,1,1,0,0,0-.3-.34,3.15,3.15,0,0,1-.78-3.44c.25-.61.69-1.11,1-1.7.68-1.28.13-3.63,1.18-4.63a6.15,6.15,0,0,1,.94-.53c.9-.6.9-2.06,1.72-2.78a2.26,2.26,0,0,1,1.12-.49c1-.19,1.88.15,2.77-.21a14.94,14.94,0,0,0,2.26-1.29,3,3,0,0,1,1.92-.62c.71.12,1.26.75,2,.87s1.21-.16,1.78,0c.95.23,1.06,1.13,1.53,1.85a4.79,4.79,0,0,0,2,1.45c1.36.6,3.13.8,2.65,2.8-.17.69-.35,1.31-.48,1.94a12,12,0,0,1,.59,5.69A11.75,11.75,0,0,1,200,262.47Z" style="fill:#582F71"></path><g style="opacity:0.5"><path d="M177.89,249.54a.33.33,0,0,1-.24-.16l-.92-1.53a.39.39,0,0,1,.1-.52.35.35,0,0,1,.49.11l.92,1.52a.4.4,0,0,1-.11.52A.35.35,0,0,1,177.89,249.54Z" style="fill:#fff"></path><path d="M179.36,245.25l-.07,0a8.63,8.63,0,0,1-2.2-1.17.39.39,0,0,1-.09-.52.34.34,0,0,1,.49-.1,8,8,0,0,0,2,1.08.39.39,0,0,1,.21.48A.36.36,0,0,1,179.36,245.25Z" style="fill:#fff"></path><path d="M182,242.89a.31.31,0,0,1-.18-.09.37.37,0,0,1,0-.52l1.57-1.89a.33.33,0,0,1,.49,0,.39.39,0,0,1,0,.53l-1.57,1.89A.32.32,0,0,1,182,242.89Z" style="fill:#fff"></path><path d="M180.19,241.84a.35.35,0,0,1-.29-.26l-.38-1.31a.38.38,0,0,1,.23-.47.34.34,0,0,1,.44.24l.38,1.31a.38.38,0,0,1-.23.47A.27.27,0,0,1,180.19,241.84Z" style="fill:#fff"></path><path d="M185.58,237.9a3.6,3.6,0,0,1-1.67-.68.37.37,0,0,1-.08-.51.33.33,0,0,1,.48-.11,3,3,0,0,0,2.07.57.34.34,0,0,1,.37.34.37.37,0,0,1-.32.4A3.45,3.45,0,0,1,185.58,237.9Z" style="fill:#fff"></path><path d="M187.52,236.17l-.07,0a.37.37,0,0,1-.21-.47,12.78,12.78,0,0,1,.7-1.71.34.34,0,0,1,.47-.16.38.38,0,0,1,.15.5,11.83,11.83,0,0,0-.66,1.61A.36.36,0,0,1,187.52,236.17Z" style="fill:#fff"></path><path d="M191.88,237.31a.32.32,0,0,1-.24-.15,8.2,8.2,0,0,0-.77-1,.39.39,0,0,1,0-.53.34.34,0,0,1,.5,0,9.67,9.67,0,0,1,.83,1.08.39.39,0,0,1-.08.52A.35.35,0,0,1,191.88,237.31Z" style="fill:#fff"></path><path d="M195.28,235.17a.29.29,0,0,1-.13,0,3.54,3.54,0,0,1-1.51-2.08.39.39,0,0,1,.24-.47.34.34,0,0,1,.43.25,2.92,2.92,0,0,0,1.2,1.66.38.38,0,0,1,.12.51A.36.36,0,0,1,195.28,235.17Z" style="fill:#fff"></path><path d="M198,236.39a.39.39,0,0,1-.27-.2.41.41,0,0,1,.16-.51,4.05,4.05,0,0,0,1.4-1.24.35.35,0,0,1,.5-.07.38.38,0,0,1,.05.52,4.88,4.88,0,0,1-1.64,1.46A.34.34,0,0,1,198,236.39Z" style="fill:#fff"></path><path d="M203.91,236.86a.29.29,0,0,1-.22-.13,5.55,5.55,0,0,1-.85-1.66.39.39,0,0,1,.21-.48.34.34,0,0,1,.45.23,5.17,5.17,0,0,0,.74,1.44.39.39,0,0,1-.06.52A.31.31,0,0,1,203.91,236.86Z" style="fill:#fff"></path><path d="M206,240.25a.35.35,0,0,1-.26-.2.4.4,0,0,1,.15-.51,8.55,8.55,0,0,0,1.28-.88.33.33,0,0,1,.49.06.39.39,0,0,1-.06.52,8.61,8.61,0,0,1-1.39,1A.38.38,0,0,1,206,240.25Z" style="fill:#fff"></path><path d="M208.74,244a.3.3,0,0,1-.17-.08l-1.67-1.38a.35.35,0,0,1-.37-.32.44.44,0,0,1,.19-.41.43.43,0,0,1,.51,0l1.77,1.47a.38.38,0,0,1,.06.52A.35.35,0,0,1,208.74,244Zm-2-1.55Z" style="fill:#fff"></path><path d="M209.58,248a.34.34,0,0,1-.26-.18.41.41,0,0,1,.14-.52,5.46,5.46,0,0,0,1.42-1.25.34.34,0,0,1,.5-.05.4.4,0,0,1,0,.53,6.21,6.21,0,0,1-1.61,1.42A.3.3,0,0,1,209.58,248Z" style="fill:#fff"></path><path d="M207.66,251.18a.33.33,0,0,1-.23-.14,6.47,6.47,0,0,1-.88-1.64.39.39,0,0,1,.2-.49.34.34,0,0,1,.45.21,6.6,6.6,0,0,0,.78,1.46.39.39,0,0,1-.06.52A.33.33,0,0,1,207.66,251.18Z" style="fill:#fff"></path><path d="M210.24,255.59a.31.31,0,0,1-.2-.11.39.39,0,0,1,0-.53l.79-.83a.34.34,0,0,1,.5,0,.39.39,0,0,1,0,.53l-.79.82A.37.37,0,0,1,210.24,255.59Z" style="fill:#fff"></path><path d="M208.34,258.16l-.09,0a2.77,2.77,0,0,1-1.5-2.09.39.39,0,0,1,.29-.44.35.35,0,0,1,.4.31,2.07,2.07,0,0,0,1.1,1.54.37.37,0,0,1,.17.49A.35.35,0,0,1,208.34,258.16Z" style="fill:#fff"></path><path d="M207.33,263.16a.38.38,0,0,1-.26-.19.39.39,0,0,1,.14-.51L209,261.4a.34.34,0,0,1,.48.14.39.39,0,0,1-.14.51l-1.75,1.06A.36.36,0,0,1,207.33,263.16Z" style="fill:#fff"></path><path d="M203.53,264.33a.38.38,0,0,1-.3-.38,16.74,16.74,0,0,1,.27-2.35.36.36,0,0,1,.41-.31.38.38,0,0,1,.28.44,15.37,15.37,0,0,0-.26,2.24.36.36,0,0,1-.36.36Z" style="fill:#fff"></path><path d="M202.36,267.1a1,1,0,0,1-.9-.65.38.38,0,0,1,.19-.49.34.34,0,0,1,.46.21c.06.15.34.22.77.19l1-.08a.35.35,0,0,1,.37.35.38.38,0,0,1-.33.4l-1,.07A2.62,2.62,0,0,1,202.36,267.1Z" style="fill:#fff"></path><path d="M199.84,269.39a.39.39,0,0,1-.15-.06l-.66-.49a5.49,5.49,0,0,1-.52-.44,4.61,4.61,0,0,1-.89-1.71.4.4,0,0,1,.21-.49.35.35,0,0,1,.45.22,3.83,3.83,0,0,0,.72,1.44,3.73,3.73,0,0,0,.43.36l.67.49a.39.39,0,0,1,.07.52A.32.32,0,0,1,199.84,269.39Z" style="fill:#fff"></path><path d="M194.09,272.31h0a.36.36,0,0,1-.28-.43c.16-1,.28-2,.35-3a.37.37,0,0,1,.37-.36.35.35,0,0,1,.32.4c-.07,1-.19,2.09-.35,3.11A.38.38,0,0,1,194.09,272.31Z" style="fill:#fff"></path><path d="M189.49,271a.38.38,0,0,1-.21-.12.4.4,0,0,1,0-.53l1.94-1.86a.33.33,0,0,1,.49,0,.39.39,0,0,1,0,.53l-1.93,1.86A.36.36,0,0,1,189.49,271Z" style="fill:#fff"></path><path d="M188.49,267.37a1.88,1.88,0,0,1-.84-.29c-.08-.05-.16-.12-.25-.19s-.27-.23-.32-.21a.33.33,0,0,1-.45-.22.39.39,0,0,1,.21-.48,1,1,0,0,1,1,.32c.06.05.12.11.18.15a1.75,1.75,0,0,0,.73.19h0a.37.37,0,0,1,.3.42.37.37,0,0,1-.39.33Z" style="fill:#fff"></path><path d="M185.32,269.31l0,0a3.34,3.34,0,0,0-.83-.13.36.36,0,0,1-.33-.39.35.35,0,0,1,.36-.36,3.73,3.73,0,0,1,1,.16.37.37,0,0,1,.23.47A.35.35,0,0,1,185.32,269.31Z" style="fill:#fff"></path><path d="M183,265.69l-.07,0a3.77,3.77,0,0,1-1.37-1.1,4.38,4.38,0,0,0-.77-.73.39.39,0,0,1-.09-.52.35.35,0,0,1,.49-.11,5.72,5.72,0,0,1,.87.83,3.19,3.19,0,0,0,1.12.92.38.38,0,0,1,.2.48A.36.36,0,0,1,183,265.69Z" style="fill:#fff"></path><path d="M179.12,261.24a.33.33,0,0,1-.21-.12.4.4,0,0,1,0-.53l1.31-1.34a.33.33,0,0,1,.49,0,.39.39,0,0,1,0,.53l-1.31,1.34A.34.34,0,0,1,179.12,261.24Z" style="fill:#fff"></path><path d="M177.7,257.64h0a3.05,3.05,0,0,1-1.77-1.08.4.4,0,0,1,0-.53.34.34,0,0,1,.5,0,2.29,2.29,0,0,0,1.36.84.37.37,0,0,1,.28.44A.36.36,0,0,1,177.7,257.64Z" style="fill:#fff"></path><path d="M179.86,255.76a.38.38,0,0,1-.17-.08.39.39,0,0,1-.06-.52,6.75,6.75,0,0,0,.9-1.7.35.35,0,0,1,.45-.22.38.38,0,0,1,.2.48,7.77,7.77,0,0,1-1,1.89A.35.35,0,0,1,179.86,255.76Z" style="fill:#fff"></path><path d="M178,253a5.64,5.64,0,0,1-1.91-.62.38.38,0,0,1-.15-.5.35.35,0,0,1,.47-.17,5.16,5.16,0,0,0,1.72.55h0a.37.37,0,0,1-.1.74Z" style="fill:#fff"></path></g><path d="M284.81,240.53s1.55,32.39,7.29,54.75c0,0-58.92,15.57-77.11,1.29,0,0-4.35-31.43,12-59.91Z" style="fill:#582F71"></path><path d="M292.11,295.27s-58.92,15.58-77.12,1.29c0,0-4.35-31.43,12-59.9l29.87,2,28,1.87s.36,7.4,1.35,17.56C287.26,269.18,289.11,283.59,292.11,295.27Z" style="fill:#fff;opacity:0.5"></path><path d="M286.17,258.08c-13.91,9.71-22.61,2.11-22.61,2.11s-5.48,4.13-7.65-10.64c-.63-4.31-1.65-7.65.93-10.9l28,1.87S285.18,247.92,286.17,258.08Z" style="opacity:0.1"></path><path d="M213.84,211.38a35.26,35.26,0,0,0,4.82,15.08c6.19,10.31,18.1,15.09,29.76,14.81a41.35,41.35,0,0,0,25.72-9.4A42.05,42.05,0,0,0,285,216.45a62,62,0,0,0,4.69-18.64,52.29,52.29,0,0,0,.15-6.59,29.67,29.67,0,0,0-12.94-23.54,43.75,43.75,0,0,0-28.89-7,28.9,28.9,0,0,0-4.95.92,34.62,34.62,0,0,0-20.29,14.58C215.52,186.75,212.85,200.63,213.84,211.38Z" style="fill:#e4897b"></path><path d="M248.91,193.69a1.39,1.39,0,0,1-.21-.68,1.17,1.17,0,0,1,1.3-1,11.34,11.34,0,0,1,8.84,5.72,1.15,1.15,0,0,1-.52,1.55h0a1.23,1.23,0,0,1-1.55-.52h0a9,9,0,0,0-7.14-4.42A1.29,1.29,0,0,1,248.91,193.69Z" style="fill:#263238"></path><path d="M222.64,191.93a1.42,1.42,0,0,1-.57-.43,1.18,1.18,0,0,1,.45-1.58,11.38,11.38,0,0,1,10.53-.58,1.15,1.15,0,0,1,.48,1.56h0a1.22,1.22,0,0,1-1.56.49h0a9,9,0,0,0-8.37.63A1.24,1.24,0,0,1,222.64,191.93Z" style="fill:#263238"></path><path d="M233.53,210.71l-6.26,3.65s1.16,2.5,6.49,3.82Z" style="fill:#de5753"></path><path d="M243,161.64a34.62,34.62,0,0,0-20.29,14.58c13.14-6.06,47.16-3.74,45.8,13.92-1.22,15.89,4.8,27.91,16.43,26.31a62,62,0,0,0,4.69-18.64,52.29,52.29,0,0,0,.15-6.59,29.67,29.67,0,0,0-12.94-23.54,43.75,43.75,0,0,0-28.89-7A28.9,28.9,0,0,0,243,161.64Z" style="opacity:0.1"></path><path d="M218.35,179.59c.14,0,.27-.24.43-.59C218.62,179.2,218.48,179.39,218.35,179.59Z" style="opacity:0.1"></path><path d="M275.19,209.47s6.64-11.74,12.57-7.17,2.43,25-7,24S270.19,215.62,275.19,209.47Z" style="fill:#e4897b"></path><path d="M251.48,165.77a20,20,0,0,0-10.12-1.06s4.18-3.14,11.69-1.58c8.21,1.71,9.37,6.31,9.37,6.31a13.31,13.31,0,0,1-4.91,1.09,38.21,38.21,0,0,1-4.26-.09c1.11,1.78,4.21,2.85,4.21,2.85-4.12,2.31-10.7,1.49-10.7,1.49,2.87,3.34,8,3.82,8,3.82-10.9,2.42-15.89-2.06-15.89-2.06,1.87,5.31,9.08,6.09,9.08,6.09s-13.93,2.43-15.36-8.82C231.66,166.41,242.4,164.66,251.48,165.77Z" style="fill:#e4897b"></path><path d="M251.48,165.77a20,20,0,0,0-10.12-1.06s4.18-3.14,11.69-1.58c8.21,1.71,9.37,6.31,9.37,6.31a13.31,13.31,0,0,1-4.91,1.09,38.21,38.21,0,0,1-4.26-.09c1.11,1.78,4.21,2.85,4.21,2.85-4.12,2.31-10.7,1.49-10.7,1.49,2.87,3.34,8,3.82,8,3.82-10.9,2.42-15.89-2.06-15.89-2.06,1.87,5.31,9.08,6.09,9.08,6.09s-13.93,2.43-15.36-8.82C231.66,166.41,242.4,164.66,251.48,165.77Z" style="opacity:0.4"></path><path d="M253.94,207.49c0,1.6-1.09,2.89-2.37,2.86a3,3,0,1,1,2.37-2.86Z" style="fill:#263238"></path><path d="M229.58,205.49a2.38,2.38,0,1,1-2.27-2.94A2.66,2.66,0,0,1,229.58,205.49Z" style="fill:#263238"></path><path d="M254.7,223.49c-1,4.33-4.35,9.4-14,9.93,0,0-.19-.77-.58-1.92-.92-2.7-3-7.45-6.44-8.62,0,0,1.29.05,3.38-.1,1.31-.1,2.92-.28,4.72-.6a44.7,44.7,0,0,0,4.7-1.13,34.49,34.49,0,0,0,4.67-1.78,30.9,30.9,0,0,0,3.81-2.08A16.35,16.35,0,0,1,254.7,223.49Z" style="fill:#263238"></path><path d="M254.7,223.49c-1,4.33-4.35,9.4-14,9.93,0,0-.19-.77-.58-1.92A25.22,25.22,0,0,1,254.7,223.49Z" style="fill:#de5753"></path><path d="M283.89,251.06c-9,8.22-20.31,14.79-32.72,15.9-11.4.6-22-1.47-32.82-4.63a5.28,5.28,0,0,1,1.12-10.3c5.06-.58,10.22-1,15.18-1.44s10.54-.9,15.2-2.27a46.51,46.51,0,0,0,9.28-4.86c3.75-2.44,7.54-5.38,11.08-8.18,10.71-7.81,22.88,6.32,13.68,15.78Z" style="fill:#dc897c"></path><path d="M255.91,242.64l20.93,19.56s19.37-12,8.41-26.28S255.91,242.64,255.91,242.64Z" style="fill:#582F71"></path><path d="M255.91,242.64l20.93,19.56s19.37-12,8.41-26.28S255.91,242.64,255.91,242.64Z" style="fill:#fff;opacity:0.5"></path><path d="M224.21,256.29a9.38,9.38,0,0,1,.61,4.5l-.19,1.93c-7.09,2.19-16.37-.67-16.37-.67l-2.72-.52a4.33,4.33,0,0,1-3.58-5l1-5.43a5,5,0,0,1,3.82-3.87l4.33-1a5.08,5.08,0,0,1,1.82-.09,5.14,5.14,0,0,1,2.8,1.25l5.9,5.17A9.53,9.53,0,0,1,224.21,256.29Z" style="fill:#e4897b"></path></g></g></svg>