<svg width="27" height="28" viewBox="0 0 27 28" fill="none" xmlns="http://www.w3.org/2000/svg">
<mask id="mask0_152_23" style="mask-type:luminance" maskUnits="userSpaceOnUse" x="0" y="0" width="27" height="28">
<path d="M26.8371 0H0V28H26.8371V0Z" fill="white"/>
</mask>
<g mask="url(#mask0_152_23)">
<path d="M26.837 14.3215C26.837 13.3698 26.7616 12.413 26.6005 11.4768H13.6876V16.8679H21.0822C20.7753 18.6067 19.7895 20.1448 18.3457 21.1221V24.6202H22.7574C25.348 22.1818 26.837 18.5809 26.837 14.3215Z" fill="#4285F4"/>
<path d="M13.6877 28C17.3799 28 20.4938 26.7602 22.7624 24.6202L18.3508 21.1221C17.1234 21.9761 15.5388 22.4597 13.6927 22.4597C10.1211 22.4597 7.09284 19.9955 6.00629 16.6827H1.4538V20.2887C3.77783 25.0164 8.51141 28 13.6877 28Z" fill="#34A853"/>
<path d="M6.00124 16.6827C5.42777 14.944 5.42777 13.0612 6.00124 11.3224V7.71633H1.45379C-0.487933 11.6722 -0.487933 16.3329 1.45379 20.2887L6.00124 16.6827Z" fill="#FBBC04"/>
<path d="M13.6877 5.54032C15.6394 5.50947 17.5258 6.26051 18.9393 7.63918L22.8479 3.6421C20.373 1.26548 17.0882 -0.0411544 13.6877 -6.97502e-07C8.51139 -6.97502e-07 3.77783 2.98365 1.4538 7.71633L6.00125 11.3224C7.08277 8.0044 10.1161 5.54032 13.6877 5.54032Z" fill="#EA4335"/>
</g>
</svg>
